<svg xmlns="http://www.w3.org/2000/svg" xmlns:xlink="http://www.w3.org/1999/xlink" width="100" zoomAndPan="magnify" viewBox="0 0 75 74.999997" height="100" preserveAspectRatio="xMidYMid meet" version="1.2"><defs><clipPath id="6e8ead963f"><path d="M 0.00390625 11.355469 L 74.851562 11.355469 L 74.851562 60.855469 L 0.00390625 60.855469 Z M 0.00390625 11.355469 "/></clipPath></defs><g id="597c7976a2"><g clip-rule="nonzero" clip-path="url(#6e8ead963f)"><path style=" stroke:none;fill-rule:evenodd;fill:#0097b2;fill-opacity:1;" d="M 33.824219 23.59375 C 31.484375 19.382812 27.652344 16.519531 23.351562 15.304688 C 21.148438 14.683594 18.820312 14.5 16.507812 14.785156 C 14.273438 15.0625 12.058594 15.78125 9.976562 16.96875 C 9.753906 17.09375 9.519531 17.238281 9.289062 17.386719 C 9.058594 17.53125 8.828125 17.683594 8.617188 17.828125 C 4.464844 20.660156 2.191406 23.550781 1.039062 26.285156 C -0.847656 30.757812 0.261719 34.820312 1.113281 37.570312 C 1.15625 37.710938 1.289062 38.058594 1.464844 38.507812 C 1.898438 39.609375 2.609375 41.34375 2.925781 42.132812 C 3.007812 42.339844 3.085938 42.828125 3.179688 43.480469 C 3.382812 44.949219 3.628906 47.222656 3.96875 49.253906 C 4.101562 50.046875 4.226562 51.242188 4.636719 52.046875 C 4.875 52.519531 5.210938 52.867188 5.667969 52.984375 C 6.019531 53.078125 6.300781 53.066406 6.632812 52.949219 C 6.925781 52.847656 7.265625 52.652344 7.765625 52.359375 C 8.0625 52.1875 8.277344 52.042969 8.445312 51.953125 C 8.554688 51.890625 8.625 51.839844 8.707031 51.878906 C 8.867188 51.957031 9.023438 52.183594 9.3125 52.585938 C 9.78125 53.234375 10.519531 54.316406 11.878906 56 C 13.765625 58.332031 14.867188 59.492188 15.894531 59.753906 C 16.445312 59.890625 16.984375 59.792969 17.605469 59.46875 C 18.398438 59.058594 19.34375 58.269531 20.6875 57.183594 C 20.96875 56.957031 21.195312 56.847656 21.40625 56.855469 C 21.640625 56.863281 21.839844 57.019531 22.058594 57.269531 C 22.640625 57.929688 23.304688 59.222656 24.582031 60.800781 C 24.628906 60.863281 24.71875 60.871094 24.78125 60.824219 C 24.839844 60.773438 24.851562 60.683594 24.800781 60.625 C 23.539062 59.027344 22.886719 57.71875 22.3125 57.050781 C 22.019531 56.710938 21.734375 56.527344 21.421875 56.511719 C 21.148438 56.496094 20.839844 56.613281 20.46875 56.90625 C 19.140625 57.957031 18.207031 58.722656 17.425781 59.117188 C 16.902344 59.382812 16.457031 59.476562 15.996094 59.355469 C 15.023438 59.09375 14.019531 57.945312 12.246094 55.707031 C 10.554688 53.570312 9.839844 52.398438 9.410156 51.847656 C 9.226562 51.613281 9.074219 51.476562 8.9375 51.410156 C 8.75 51.316406 8.566406 51.320312 8.335938 51.417969 C 8.136719 51.5 7.886719 51.671875 7.5 51.894531 C 7.03125 52.15625 6.71875 52.335938 6.453125 52.429688 C 6.230469 52.503906 6.046875 52.507812 5.8125 52.445312 C 5.40625 52.335938 5.175781 51.929688 5.003906 51.453125 C 4.746094 50.722656 4.660156 49.796875 4.558594 49.15625 C 4.234375 47.128906 4.015625 44.859375 3.824219 43.394531 C 3.726562 42.664062 3.632812 42.125 3.542969 41.890625 C 3.273438 41.203125 2.710938 39.792969 2.289062 38.710938 C 2.039062 38.070312 1.839844 37.546875 1.785156 37.363281 C 0.992188 34.730469 -0.0625 30.851562 1.757812 26.589844 C 2.875 23.96875 5.074219 21.203125 9.070312 18.488281 L 10.375 17.652344 C 12.351562 16.496094 14.464844 15.792969 16.601562 15.496094 C 18.820312 15.1875 21.0625 15.324219 23.203125 15.867188 C 27.441406 16.941406 31.277344 19.617188 33.703125 23.664062 C 33.722656 23.699219 33.765625 23.710938 33.796875 23.691406 C 33.832031 23.671875 33.84375 23.628906 33.824219 23.59375 Z M 37.367188 36.679688 C 36.789062 35.492188 36.34375 34.230469 36.046875 32.914062 C 35.761719 31.640625 35.617188 30.316406 35.632812 28.957031 C 35.671875 24.257812 37.617188 20.023438 40.714844 16.960938 C 43.796875 13.910156 48.03125 12.015625 52.710938 12.027344 C 52.957031 12.027344 53.222656 12.035156 53.484375 12.046875 C 53.75 12.058594 54.015625 12.078125 54.265625 12.09375 C 59.097656 12.449219 62.398438 13.746094 64.683594 15.460938 C 68.40625 18.257812 69.429688 22.164062 70.0625 24.851562 C 70.105469 25.035156 70.191406 25.589844 70.296875 26.269531 C 70.46875 27.421875 70.683594 28.921875 70.792969 29.652344 C 70.832031 29.898438 71.019531 30.410156 71.296875 31.085938 C 71.863281 32.453125 72.804688 34.53125 73.535156 36.449219 C 73.765625 37.058594 74.152344 37.902344 74.292969 38.671875 C 74.386719 39.179688 74.382812 39.652344 74.078125 39.957031 C 73.902344 40.132812 73.738281 40.222656 73.5 40.269531 C 73.222656 40.324219 72.859375 40.324219 72.324219 40.324219 C 71.878906 40.328125 71.574219 40.304688 71.363281 40.328125 C 71.121094 40.359375 70.964844 40.445312 70.851562 40.613281 C 70.765625 40.742188 70.707031 40.929688 70.664062 41.21875 C 70.566406 41.914062 70.53125 43.285156 70.128906 45.976562 C 69.707031 48.804688 69.410156 50.300781 68.691406 51.011719 C 68.355469 51.347656 67.921875 51.488281 67.335938 51.519531 C 66.464844 51.566406 65.273438 51.367188 63.601562 51.117188 C 63.128906 51.046875 62.800781 51.101562 62.566406 51.25 C 62.300781 51.421875 62.144531 51.726562 62.058594 52.171875 C 61.890625 53.039062 61.976562 54.496094 61.675781 56.511719 C 61.664062 56.601562 61.726562 56.6875 61.816406 56.699219 C 61.90625 56.714844 61.992188 56.652344 62.007812 56.5625 C 62.320312 54.554688 62.242188 53.101562 62.414062 52.242188 C 62.480469 51.917969 62.570312 51.6875 62.765625 51.5625 C 62.941406 51.453125 63.191406 51.433594 63.542969 51.492188 C 65.25 51.757812 66.464844 51.960938 67.359375 51.921875 C 68.058594 51.886719 68.574219 51.703125 68.980469 51.304688 C 69.738281 50.566406 70.109375 49.011719 70.570312 46.046875 C 70.902344 43.910156 71 42.601562 71.078125 41.804688 C 71.125 41.308594 71.148438 41.03125 71.25 40.882812 C 71.304688 40.800781 71.394531 40.804688 71.53125 40.804688 C 71.722656 40.796875 71.980469 40.8125 72.324219 40.816406 C 72.902344 40.816406 73.292969 40.8125 73.59375 40.757812 C 73.9375 40.695312 74.179688 40.566406 74.433594 40.3125 C 74.761719 39.984375 74.878906 39.527344 74.847656 39.007812 C 74.796875 38.109375 74.308594 37.011719 74.027344 36.261719 C 73.304688 34.335938 72.371094 32.246094 71.816406 30.875 C 71.566406 30.257812 71.390625 29.792969 71.355469 29.566406 C 71.25 28.839844 71.042969 27.335938 70.875 26.183594 C 70.769531 25.480469 70.683594 24.90625 70.636719 24.714844 C 69.996094 21.921875 68.925781 17.867188 65.070312 14.949219 C 62.714844 13.164062 59.3125 11.800781 54.316406 11.421875 C 54.0625 11.402344 53.789062 11.386719 53.515625 11.375 C 53.242188 11.363281 52.96875 11.355469 52.710938 11.355469 C 47.855469 11.367188 43.457031 13.335938 40.292969 16.539062 C 37.140625 19.722656 35.21875 24.121094 35.257812 28.957031 C 35.273438 30.34375 35.449219 31.691406 35.769531 32.980469 C 36.101562 34.308594 36.585938 35.574219 37.207031 36.761719 C 37.226562 36.804688 37.28125 36.824219 37.328125 36.800781 C 37.371094 36.777344 37.390625 36.722656 37.367188 36.679688 Z M 43.433594 49.933594 C 43.605469 49.480469 43.78125 48.984375 43.902344 48.453125 C 44.019531 47.945312 44.082031 47.414062 44.070312 46.882812 C 44.0625 46.527344 44.015625 46.167969 43.925781 45.816406 C 43.839844 45.472656 43.703125 45.136719 43.523438 44.8125 C 43.277344 44.371094 42.679688 43.597656 42.015625 42.796875 C 40.933594 41.496094 39.683594 40.128906 39.5625 39.992188 C 39.417969 39.832031 39.277344 39.667969 39.140625 39.503906 C 39.003906 39.335938 38.867188 39.167969 38.738281 39 C 38.71875 38.972656 38.683594 38.96875 38.65625 38.984375 C 38.632812 39.003906 38.625 39.039062 38.644531 39.066406 C 38.765625 39.246094 38.890625 39.425781 39.015625 39.601562 C 39.144531 39.777344 39.277344 39.949219 39.410156 40.121094 C 39.539062 40.28125 40.988281 42.082031 42.058594 43.546875 C 42.507812 44.164062 42.890625 44.714844 43.066406 45.058594 C 43.21875 45.347656 43.324219 45.648438 43.40625 45.953125 C 43.488281 46.269531 43.539062 46.589844 43.566406 46.910156 C 43.609375 47.410156 43.589844 47.910156 43.542969 48.394531 C 43.492188 48.925781 43.417969 49.433594 43.320312 49.902344 C 43.3125 49.933594 43.332031 49.964844 43.359375 49.972656 C 43.390625 49.980469 43.421875 49.964844 43.433594 49.933594 Z M 21.203125 37.5625 C 21.058594 37.59375 20.917969 37.613281 20.78125 37.625 C 20.234375 37.675781 19.71875 37.59375 19.339844 37.34375 C 19.308594 37.324219 19.269531 37.296875 19.222656 37.269531 C 19.003906 37.957031 18.628906 38.59375 17.992188 39.121094 C 17.90625 39.191406 17.734375 39.328125 17.492188 39.46875 C 17.644531 39.582031 17.773438 39.691406 17.882812 39.796875 C 18.171875 40.074219 18.332031 40.320312 18.398438 40.535156 C 18.535156 40.953125 18.359375 41.261719 18.042969 41.433594 C 17.746094 41.59375 17.3125 41.621094 16.917969 41.480469 C 16.691406 41.398438 16.460938 41.273438 16.222656 41.117188 C 15.71875 42.019531 14.851562 42.695312 13.484375 42.976562 C 12.644531 43.148438 12.023438 43.117188 11.472656 42.867188 C 11.089844 42.695312 10.742188 42.417969 10.382812 42.015625 C 9.828125 42.316406 9.277344 42.546875 8.773438 42.679688 C 7.707031 42.960938 6.84375 42.792969 6.507812 42.019531 C 6.417969 41.804688 6.371094 41.414062 6.382812 40.921875 C 6.398438 40.25 6.515625 39.375 6.738281 38.496094 C 6.492188 37.960938 6.367188 37.289062 6.359375 36.628906 L 6.359375 36.574219 C 6.28125 36.582031 6.203125 36.59375 6.125 36.597656 C 5.003906 36.691406 4.238281 36.363281 4.058594 35.429688 C 3.988281 35.066406 3.796875 33.8125 3.984375 33.046875 C 4.054688 32.742188 4.191406 32.511719 4.390625 32.398438 C 4.59375 32.28125 4.871094 32.269531 5.246094 32.472656 C 6.308594 33.046875 7.261719 33.371094 8.117188 33.519531 C 8.308594 33.386719 8.46875 33.261719 8.601562 33.140625 C 7.9375 32.824219 7.277344 32.476562 6.699219 32.085938 C 5.710938 31.417969 4.953125 30.609375 4.738281 29.585938 C 4.597656 28.898438 4.695312 28.113281 5.148438 27.203125 C 5.371094 26.753906 5.703125 26.164062 6.125 25.707031 C 6.421875 25.386719 6.765625 25.132812 7.136719 25.023438 C 7.648438 24.878906 8.238281 25.039062 8.828125 25.355469 C 9.1875 25.011719 9.613281 24.765625 9.839844 24.632812 C 10.488281 24.257812 10.988281 24.21875 11.386719 24.367188 C 11.761719 24.503906 12.054688 24.816406 12.300781 25.210938 L 12.371094 24.816406 C 12.382812 24.742188 12.398438 24.664062 12.410156 24.589844 L 12.433594 24.457031 C 11.824219 24.097656 11.273438 23.828125 10.886719 23.570312 C 10.378906 23.230469 10.148438 22.882812 10.289062 22.449219 C 10.414062 22.074219 10.695312 21.820312 11.109375 21.667969 C 11.480469 21.53125 11.960938 21.484375 12.511719 21.503906 C 12.679688 21.507812 12.855469 21.523438 13.039062 21.539062 C 13.054688 21.472656 13.074219 21.40625 13.09375 21.34375 C 13.351562 20.414062 13.667969 19.78125 14.011719 19.382812 C 14.382812 18.945312 14.789062 18.765625 15.199219 18.773438 C 15.917969 18.785156 16.671875 19.398438 17.257812 20.253906 C 17.371094 20.414062 17.476562 20.585938 17.574219 20.761719 C 17.769531 20.351562 18.003906 20.003906 18.25 19.753906 C 18.742188 19.257812 19.285156 19.136719 19.738281 19.539062 C 20.207031 19.953125 20.65625 20.261719 21.070312 20.492188 C 21.296875 19.9375 21.949219 19.757812 22.828125 19.863281 C 24.355469 20.050781 26.585938 21.078125 27.933594 21.941406 C 28.539062 22.328125 28.964844 22.6875 29.101562 22.925781 C 29.207031 23.105469 29.234375 23.328125 29.175781 23.582031 C 29.105469 23.90625 28.898438 24.285156 28.582031 24.675781 C 28.402344 24.898438 28.1875 25.128906 27.945312 25.355469 C 28.5625 25.898438 29.226562 26.734375 29.277344 27.539062 C 29.324219 28.355469 29.191406 28.863281 28.957031 29.195312 C 28.816406 29.394531 28.640625 29.535156 28.4375 29.636719 C 28.738281 30.0625 28.96875 30.476562 29.101562 30.871094 C 29.386719 31.699219 29.265625 32.441406 28.519531 33.042969 C 28.027344 33.441406 27.570312 33.644531 27.136719 33.714844 C 27.09375 33.722656 27.054688 33.726562 27.015625 33.730469 C 26.671875 34.246094 26.21875 34.710938 25.722656 35.101562 C 25.863281 35.722656 25.714844 36.246094 25.445312 36.613281 C 25.148438 37.023438 24.574219 37.585938 23.734375 37.75 C 23.371094 37.820312 22.957031 37.816406 22.492188 37.6875 C 23.4375 38.433594 24.382812 39.929688 26.121094 40.726562 C 28.074219 41.621094 29.964844 41.578125 31.753906 41.039062 C 33.035156 40.652344 34.265625 40.007812 35.433594 39.273438 C 36.21875 38.777344 36.980469 38.242188 37.707031 37.707031 C 38.929688 36.808594 40.066406 35.914062 41.085938 35.230469 C 42.0625 34.578125 42.941406 34.125 43.691406 34.023438 C 43.710938 34.023438 43.726562 34.019531 43.742188 34.023438 C 44.722656 33.910156 45.277344 34.476562 45.804688 35.183594 C 46.3125 35.867188 46.78125 36.703125 47.742188 36.945312 C 48.203125 37.058594 48.769531 36.910156 49.296875 36.691406 C 50.136719 36.34375 50.753906 35.914062 51.085938 35.636719 C 51.085938 35.636719 51.089844 35.632812 51.097656 35.625 C 51.335938 35.609375 51.574219 35.589844 51.816406 35.5625 C 51.546875 35.839844 51.378906 35.984375 51.378906 35.984375 C 51.179688 36.152344 50.371094 36.738281 49.472656 37.113281 C 48.847656 37.371094 48.179688 37.523438 47.632812 37.386719 C 46.5625 37.117188 46.007812 36.21875 45.4375 35.453125 C 44.953125 34.804688 44.457031 34.265625 43.445312 34.546875 C 43.433594 34.550781 43.421875 34.550781 43.410156 34.554688 C 42.804688 34.742188 42.128906 35.148438 41.386719 35.667969 C 40.386719 36.371094 39.277344 37.285156 38.070312 38.195312 C 37.339844 38.75 36.570312 39.304688 35.769531 39.804688 C 34.550781 40.570312 33.257812 41.21875 31.917969 41.601562 C 30.003906 42.152344 27.984375 42.15625 25.914062 41.164062 C 24.109375 40.296875 23.164062 38.695312 22.179688 37.9375 C 21.871094 37.695312 21.558594 37.546875 21.203125 37.5625 Z M 14.546875 39.632812 C 14.355469 39.890625 14.1875 40.085938 14.046875 40.222656 C 13.742188 40.511719 13.503906 40.582031 13.304688 40.539062 C 13.183594 40.507812 13.066406 40.433594 12.953125 40.3125 C 12.921875 40.285156 12.894531 40.25 12.867188 40.214844 C 12.226562 40.820312 11.472656 41.386719 10.707031 41.832031 C 11.007812 42.15625 11.300781 42.390625 11.621094 42.535156 C 12.109375 42.757812 12.664062 42.769531 13.410156 42.617188 C 14.667969 42.359375 15.457031 41.734375 15.917969 40.898438 C 15.464844 40.554688 15.003906 40.105469 14.546875 39.632812 Z M 10.054688 37.777344 C 9.789062 38.164062 9.503906 38.597656 9.199219 38.9375 C 8.671875 39.523438 8.078125 39.832031 7.441406 39.398438 C 7.277344 39.285156 7.128906 39.136719 7.003906 38.960938 C 6.84375 39.679688 6.757812 40.375 6.746094 40.929688 C 6.738281 41.355469 6.765625 41.691406 6.84375 41.875 C 7.113281 42.496094 7.824219 42.550781 8.679688 42.324219 C 9.136719 42.203125 9.636719 42 10.140625 41.734375 C 10.0625 41.640625 9.984375 41.539062 9.90625 41.433594 C 9.597656 41.027344 9.488281 40.617188 9.390625 40.140625 C 9.265625 39.53125 9.554688 38.980469 9.949219 38.53125 C 10.171875 38.28125 10.394531 38.101562 10.617188 37.972656 C 10.445312 37.898438 10.257812 37.832031 10.054688 37.777344 Z M 11.035156 38.179688 C 10.765625 38.28125 10.496094 38.46875 10.222656 38.773438 C 9.902344 39.136719 9.648438 39.574219 9.746094 40.066406 C 9.835938 40.488281 9.925781 40.855469 10.195312 41.214844 C 10.289062 41.335938 10.375 41.449219 10.464844 41.554688 C 11.238281 41.105469 12.011719 40.53125 12.652344 39.910156 C 12.613281 39.851562 12.574219 39.785156 12.53125 39.71875 C 12.222656 39.246094 11.804688 38.628906 11.035156 38.179688 Z M 17.132812 39.65625 C 16.996094 39.714844 16.851562 39.769531 16.695312 39.816406 C 16.625 40.15625 16.523438 40.484375 16.386719 40.792969 C 16.609375 40.941406 16.828125 41.058594 17.042969 41.136719 C 17.332031 41.238281 17.652344 41.230469 17.871094 41.109375 C 17.96875 41.054688 18.046875 40.976562 18.070312 40.871094 C 18.097656 40.75 18.058594 40.605469 17.949219 40.433594 C 17.800781 40.203125 17.542969 39.945312 17.132812 39.65625 Z M 15.265625 39.84375 C 15.539062 40.109375 15.808594 40.359375 16.082031 40.570312 C 16.171875 40.355469 16.242188 40.132812 16.300781 39.898438 C 15.980469 39.945312 15.632812 39.9375 15.265625 39.84375 Z M 13.828125 39.140625 C 13.625 39.414062 13.390625 39.6875 13.128906 39.957031 C 13.140625 39.972656 13.152344 39.984375 13.164062 40 C 13.238281 40.09375 13.304688 40.164062 13.386719 40.179688 C 13.429688 40.191406 13.472656 40.179688 13.527344 40.15625 C 13.605469 40.121094 13.691406 40.054688 13.792969 39.957031 C 13.929688 39.828125 14.085938 39.644531 14.265625 39.402344 C 14.121094 39.320312 13.972656 39.230469 13.828125 39.140625 Z M 11.574219 38.097656 C 12.1875 38.546875 12.554688 39.089844 12.835938 39.523438 L 12.917969 39.648438 C 13.140625 39.417969 13.34375 39.179688 13.519531 38.945312 C 13.167969 38.722656 12.8125 38.503906 12.464844 38.339844 C 12.167969 38.203125 11.871094 38.109375 11.574219 38.097656 Z M 15.292969 38.550781 C 15.117188 38.824219 14.953125 39.066406 14.804688 39.277344 C 14.902344 39.324219 14.996094 39.367188 15.09375 39.402344 C 15.558594 39.582031 15.992188 39.59375 16.375 39.519531 C 16.394531 39.417969 16.40625 39.3125 16.417969 39.207031 C 16.1875 39.078125 15.933594 38.945312 15.648438 38.808594 C 15.53125 38.753906 15.410156 38.664062 15.292969 38.550781 Z M 16.703125 36.09375 C 16.664062 36.179688 16.625 36.269531 16.582031 36.355469 C 16.742188 37.121094 16.832031 37.902344 16.820312 38.644531 C 16.816406 38.765625 16.8125 38.890625 16.800781 39.011719 C 16.933594 39.085938 17.050781 39.164062 17.164062 39.238281 C 17.460938 39.082031 17.667969 38.914062 17.757812 38.839844 C 18.363281 38.34375 18.703125 37.738281 18.894531 37.085938 C 18.351562 36.792969 17.496094 36.382812 16.703125 36.09375 Z M 10.984375 35.046875 C 9.980469 35.480469 8.976562 35.882812 8.066406 36.171875 C 7.902344 36.429688 7.753906 36.71875 7.617188 37.023438 C 7.417969 37.480469 7.253906 37.972656 7.121094 38.46875 C 7.257812 38.734375 7.433594 38.949219 7.644531 39.09375 C 7.925781 39.285156 8.1875 39.261719 8.433594 39.117188 C 8.726562 38.949219 8.996094 38.636719 9.25 38.292969 C 9.398438 38.09375 9.539062 37.886719 9.675781 37.6875 C 9.039062 37.53125 8.800781 37.046875 8.796875 36.667969 C 8.796875 36.476562 8.855469 36.3125 8.949219 36.207031 C 9.1875 35.9375 9.671875 35.503906 11.402344 36.335938 C 11.566406 36.269531 11.703125 36.195312 11.8125 36.117188 C 12.003906 35.980469 12.109375 35.828125 12.140625 35.65625 C 12.167969 35.492188 12.136719 35.316406 12.0625 35.128906 C 11.675781 35.105469 11.308594 35.078125 10.984375 35.046875 Z M 14.585938 37.40625 C 14.585938 37.441406 14.585938 37.476562 14.582031 37.507812 C 14.535156 37.871094 14.382812 38.265625 14.144531 38.667969 C 14.234375 38.765625 14.324219 38.863281 14.417969 38.960938 C 14.449219 38.996094 14.480469 39.03125 14.511719 39.0625 C 14.671875 38.835938 14.847656 38.570312 15.046875 38.265625 C 14.871094 38.035156 14.71875 37.753906 14.605469 37.457031 C 14.597656 37.441406 14.59375 37.425781 14.585938 37.40625 Z M 16.3125 36.886719 C 16.199219 37.097656 16.070312 37.316406 15.9375 37.535156 C 15.777344 37.789062 15.632812 38.023438 15.492188 38.242188 C 15.59375 38.347656 15.699219 38.429688 15.804688 38.480469 C 16.039062 38.59375 16.25 38.703125 16.449219 38.808594 C 16.449219 38.75 16.453125 38.695312 16.453125 38.636719 C 16.464844 38.066406 16.410156 37.476562 16.3125 36.886719 Z M 11.382812 36.730469 C 11.230469 36.785156 11.058594 36.835938 10.867188 36.878906 C 10.796875 36.898438 10.722656 36.953125 10.644531 37.027344 C 10.542969 37.121094 10.441406 37.246094 10.335938 37.386719 C 10.316406 37.410156 10.296875 37.4375 10.28125 37.460938 C 10.578125 37.550781 10.839844 37.660156 11.078125 37.785156 C 11.148438 37.765625 11.21875 37.753906 11.289062 37.746094 C 11.730469 37.6875 12.171875 37.804688 12.617188 38.007812 C 12.90625 38.144531 13.199219 38.316406 13.492188 38.5 C 12.855469 37.8125 12.261719 37.203125 11.753906 36.925781 C 11.625 36.851562 11.5 36.789062 11.382812 36.730469 Z M 12.472656 35.214844 C 12.515625 35.390625 12.527344 35.5625 12.5 35.722656 C 12.445312 36.023438 12.242188 36.308594 11.8125 36.542969 C 11.851562 36.5625 11.890625 36.582031 11.929688 36.605469 C 12.492188 36.910156 13.167969 37.617188 13.886719 38.390625 C 14.066406 38.070312 14.183594 37.757812 14.21875 37.464844 C 14.238281 37.308594 14.171875 37.148438 14.078125 36.992188 C 13.910156 36.71875 13.652344 36.46875 13.480469 36.292969 C 13.15625 35.957031 12.828125 35.558594 12.472656 35.214844 Z M 16.105469 35.898438 C 16.011719 35.871094 15.917969 35.847656 15.832031 35.828125 C 15.589844 35.769531 15.371094 35.738281 15.199219 35.746094 C 15.082031 35.753906 14.988281 35.765625 14.945312 35.832031 C 14.683594 36.230469 14.75 36.808594 14.945312 37.328125 C 15.027344 37.546875 15.136719 37.753906 15.253906 37.9375 C 15.371094 37.75 15.496094 37.554688 15.625 37.34375 C 15.847656 36.984375 16.039062 36.640625 16.199219 36.308594 C 16.171875 36.171875 16.140625 36.035156 16.105469 35.898438 Z M 7.554688 36.324219 C 7.265625 36.402344 6.988281 36.46875 6.726562 36.515625 C 6.726562 36.550781 6.726562 36.589844 6.726562 36.625 C 6.730469 37.066406 6.785156 37.511719 6.902344 37.910156 C 7.011719 37.554688 7.140625 37.207031 7.285156 36.875 C 7.367188 36.683594 7.457031 36.5 7.554688 36.324219 Z M 51.835938 37.050781 C 51.257812 36.953125 51.015625 36.878906 50.960938 36.863281 C 50.773438 36.984375 50.542969 37.097656 50.402344 37.175781 C 51.375 37.488281 52.414062 37.65625 53.492188 37.65625 C 59.101562 37.65625 63.65625 33.097656 63.65625 27.488281 C 63.65625 21.878906 59.101562 17.324219 53.492188 17.324219 C 47.882812 17.324219 43.324219 21.878906 43.324219 27.488281 C 43.324219 31.351562 45.484375 34.710938 48.660156 36.433594 C 48.839844 36.378906 49.070312 36.289062 49.242188 36.214844 C 48.910156 36.050781 48.824219 36.011719 48.410156 35.753906 C 47.945312 35.46875 47.511719 35.148438 47.105469 34.792969 C 48.949219 35.3125 51.300781 35.339844 53.65625 34.773438 C 55.980469 34.214844 58.304688 33.074219 60.152344 31.257812 L 60.144531 31.261719 C 59.929688 31.363281 59.710938 31.460938 59.492188 31.550781 C 59.277344 31.644531 59.058594 31.730469 58.839844 31.808594 L 58.832031 31.8125 C 57.242188 33.066406 55.394531 33.886719 53.550781 34.332031 C 50.878906 34.976562 48.214844 34.828125 46.339844 34.046875 C 46.003906 33.679688 45.699219 33.289062 45.421875 32.875 C 48.421875 33.902344 51.953125 33.90625 55.042969 32.707031 C 54.421875 32.773438 53.808594 32.804688 53.203125 32.800781 C 50.464844 33.453125 47.527344 33.226562 45.035156 32.25 C 44.800781 31.832031 44.59375 31.398438 44.421875 30.945312 C 45.328125 31.464844 46.464844 31.777344 47.722656 31.894531 C 47.851562 31.90625 47.984375 31.917969 48.117188 31.925781 C 47.546875 31.726562 47.003906 31.496094 46.492188 31.242188 C 45.601562 31.039062 44.8125 30.710938 44.1875 30.25 C 44.050781 29.796875 43.949219 29.332031 43.882812 28.855469 L 43.890625 28.863281 C 44.195312 29.171875 44.527344 29.457031 44.871094 29.71875 C 45.148438 29.925781 45.4375 30.121094 45.730469 30.304688 C 46.152344 30.5625 46.59375 30.796875 47.042969 31.003906 C 47.5625 31.242188 48.097656 31.449219 48.640625 31.625 C 49.363281 31.855469 50.105469 32.03125 50.851562 32.148438 C 52.171875 32.359375 53.515625 32.398438 54.847656 32.265625 C 55.449219 32.203125 56.050781 32.109375 56.644531 31.976562 C 57.214844 31.851562 57.777344 31.691406 58.328125 31.503906 C 59.265625 31.179688 60.175781 30.769531 61.039062 30.28125 C 61.488281 30.023438 61.929688 29.75 62.355469 29.453125 C 62.601562 29.28125 62.84375 29.105469 63.082031 28.921875 L 63.089844 28.914062 C 63.007812 29.46875 62.878906 30.011719 62.707031 30.53125 C 62.207031 30.660156 61.714844 30.738281 61.230469 30.777344 C 61.089844 30.941406 60.949219 31.101562 60.800781 31.257812 C 61.359375 31.242188 61.933594 31.171875 62.523438 31.042969 C 62.457031 31.210938 62.386719 31.375 62.3125 31.535156 C 61.671875 31.625 61.039062 31.660156 60.414062 31.648438 C 60.257812 31.800781 60.101562 31.945312 59.9375 32.089844 C 60.636719 32.125 61.347656 32.105469 62.070312 32.027344 C 61.933594 32.285156 61.78125 32.539062 61.621094 32.785156 C 60.949219 32.871094 60.289062 32.90625 59.636719 32.894531 C 59.574219 33.050781 59.511719 33.199219 59.449219 33.347656 C 60.046875 33.367188 60.65625 33.347656 61.273438 33.285156 C 61.085938 33.535156 60.886719 33.777344 60.675781 34.011719 C 60.152344 34.027344 59.644531 34.027344 59.144531 34.007812 C 59.074219 34.152344 59 34.292969 58.925781 34.429688 C 58.921875 34.4375 58.917969 34.445312 58.914062 34.457031 C 59.339844 34.476562 59.777344 34.484375 60.222656 34.476562 C 60 34.691406 59.765625 34.894531 59.527344 35.085938 C 59.191406 35.101562 58.863281 35.105469 58.535156 35.105469 C 58.441406 35.261719 58.339844 35.414062 58.238281 35.558594 C 58.449219 35.5625 58.664062 35.5625 58.878906 35.558594 C 58.210938 36.007812 57.480469 36.375 56.707031 36.644531 C 57.347656 36.0625 57.972656 35.230469 58.519531 34.210938 C 58.777344 33.734375 59.015625 33.21875 59.230469 32.667969 C 59 32.839844 58.765625 33.007812 58.527344 33.167969 C 58.023438 34.285156 57.425781 35.226562 56.796875 35.917969 C 56.292969 36.46875 55.773438 36.859375 55.273438 37.03125 C 55.019531 37.078125 54.761719 37.113281 54.503906 37.140625 C 55.496094 36.183594 56.265625 35.167969 56.851562 34.125 C 56.609375 34.238281 56.367188 34.347656 56.121094 34.453125 C 55.523438 35.402344 54.753906 36.320312 53.78125 37.1875 C 53.6875 37.191406 53.589844 37.191406 53.492188 37.191406 C 53.125 37.191406 52.765625 37.171875 52.410156 37.132812 C 52.785156 36.761719 53.410156 36.085938 54.0625 35.148438 C 53.964844 35.175781 53.863281 35.199219 53.765625 35.222656 C 53.640625 35.253906 53.511719 35.28125 53.386719 35.308594 C 52.679688 36.253906 52.050781 36.855469 51.835938 37.050781 Z M 25.398438 35.34375 C 24.746094 35.796875 24.050781 36.117188 23.4375 36.246094 C 23.335938 36.4375 23.167969 36.628906 22.945312 36.800781 C 22.75 36.953125 22.511719 37.097656 22.25 37.21875 C 22.789062 37.4375 23.261719 37.46875 23.664062 37.390625 C 24.394531 37.25 24.890625 36.753906 25.152344 36.398438 C 25.347656 36.128906 25.457031 35.765625 25.398438 35.34375 Z M 10.882812 36.5 C 10.542969 36.355469 10.265625 36.273438 10.042969 36.238281 C 9.542969 36.15625 9.34375 36.3125 9.222656 36.449219 C 9.179688 36.496094 9.160156 36.578125 9.164062 36.664062 C 9.164062 36.925781 9.351562 37.253906 9.8125 37.34375 C 9.839844 37.351562 9.871094 37.359375 9.902344 37.363281 C 9.988281 37.238281 10.074219 37.121094 10.160156 37.015625 C 10.375 36.75 10.589844 36.570312 10.785156 36.523438 C 10.816406 36.515625 10.851562 36.507812 10.882812 36.5 Z M 20.332031 33.734375 C 20.058594 33.890625 19.78125 34.039062 19.5 34.175781 C 19.511719 34.910156 19.527344 35.707031 19.40625 36.472656 C 19.382812 36.617188 19.355469 36.761719 19.320312 36.90625 C 19.410156 36.957031 19.484375 37.003906 19.542969 37.039062 C 19.859375 37.25 20.292969 37.300781 20.746094 37.261719 C 20.945312 37.242188 21.144531 37.207031 21.34375 37.15625 C 20.167969 36.402344 19.761719 35.398438 19.742188 35.058594 C 19.710938 34.554688 19.957031 34.089844 20.332031 33.734375 Z M 22.488281 33.609375 C 22.246094 33.363281 21.820312 33.367188 21.402344 33.507812 C 20.734375 33.730469 20.0625 34.320312 20.105469 35.035156 C 20.125 35.359375 20.574219 36.332031 21.808594 37.011719 C 22.15625 36.878906 22.472656 36.707031 22.722656 36.511719 C 22.804688 36.445312 22.882812 36.378906 22.949219 36.308594 C 22.378906 36.328125 21.929688 36.132812 21.710938 35.703125 C 21.625 35.539062 21.644531 35.378906 21.746094 35.21875 C 21.816406 35.105469 21.941406 34.984375 22.09375 34.855469 C 22.214844 34.757812 22.351562 34.652344 22.5 34.53125 C 22.496094 34.457031 22.496094 34.382812 22.496094 34.308594 C 22.5 34.09375 22.515625 33.882812 22.507812 33.726562 C 22.507812 33.679688 22.492188 33.621094 22.488281 33.609375 Z M 15.832031 34.941406 C 15.734375 34.964844 15.640625 34.984375 15.539062 35.003906 C 14.722656 35.160156 13.804688 35.191406 12.9375 35.171875 C 13.21875 35.460938 13.480469 35.769531 13.742188 36.039062 C 13.929688 36.230469 14.207031 36.503906 14.390625 36.804688 C 14.414062 36.839844 14.433594 36.878906 14.453125 36.917969 C 14.367188 36.449219 14.410156 35.984375 14.640625 35.632812 C 14.722656 35.507812 14.863281 35.425781 15.054688 35.394531 C 15.269531 35.359375 15.570312 35.390625 15.914062 35.472656 C 15.941406 35.476562 15.96875 35.484375 15.996094 35.492188 C 15.945312 35.304688 15.890625 35.121094 15.832031 34.941406 Z M 19.140625 34.347656 C 19.117188 34.355469 19.097656 34.367188 19.078125 34.375 C 18.386719 34.679688 17.707031 34.882812 17.105469 34.890625 C 17.042969 35.167969 16.953125 35.457031 16.839844 35.757812 C 17.609375 36.039062 18.429688 36.425781 18.988281 36.722656 C 19.011719 36.621094 19.027344 36.519531 19.042969 36.414062 C 19.152344 35.726562 19.148438 35.015625 19.140625 34.347656 Z M 7.675781 33.808594 C 6.882812 33.628906 6.019531 33.304688 5.070312 32.792969 C 4.851562 32.675781 4.691406 32.644531 4.574219 32.714844 C 4.449219 32.785156 4.382812 32.941406 4.339844 33.132812 C 4.164062 33.847656 4.351562 35.023438 4.417969 35.359375 C 4.558594 36.105469 5.199219 36.308594 6.097656 36.234375 C 6.1875 36.226562 6.28125 36.214844 6.375 36.203125 C 6.410156 35.679688 6.523438 35.183594 6.710938 34.78125 C 6.878906 34.421875 7.109375 34.140625 7.386719 33.976562 C 7.488281 33.921875 7.585938 33.863281 7.675781 33.808594 Z M 8.195312 33.90625 C 8.011719 34.03125 7.804688 34.160156 7.570312 34.292969 C 7.347656 34.421875 7.175781 34.652344 7.042969 34.9375 C 6.882812 35.277344 6.785156 35.699219 6.746094 36.140625 C 7.085938 36.074219 7.449219 35.980469 7.828125 35.867188 C 7.984375 35.636719 8.152344 35.433594 8.328125 35.257812 C 8.765625 34.828125 9.277344 34.578125 9.855469 34.59375 C 10.09375 34.601562 10.46875 34.636719 10.933594 34.679688 C 11.097656 34.609375 11.257812 34.535156 11.421875 34.464844 C 11.082031 34.28125 10.699219 34.101562 10.292969 33.914062 C 9.660156 34.011719 8.964844 34.027344 8.195312 33.90625 Z M 22.566406 34.945312 C 22.382812 35.089844 22.222656 35.214844 22.113281 35.335938 C 22.050781 35.40625 22 35.464844 22.035156 35.539062 C 22.15625 35.769531 22.375 35.894531 22.65625 35.929688 C 22.8125 35.953125 22.992188 35.949219 23.179688 35.921875 C 23.1875 35.886719 23.1875 35.847656 23.1875 35.808594 C 23.175781 35.660156 23.078125 35.527344 22.886719 35.402344 C 22.726562 35.296875 22.621094 35.136719 22.566406 34.945312 Z M 23.863281 33.199219 C 23.707031 33.863281 23.289062 34.328125 22.878906 34.683594 L 22.886719 34.71875 C 22.914062 34.875 22.964844 35.015625 23.089844 35.097656 C 23.398438 35.304688 23.535156 35.542969 23.550781 35.78125 C 23.550781 35.804688 23.554688 35.824219 23.550781 35.84375 C 23.625 35.824219 23.703125 35.800781 23.777344 35.777344 C 24.273438 35.609375 24.808594 35.328125 25.304688 34.96875 C 25.121094 34.4375 24.679688 33.832031 23.863281 33.199219 Z M 10.222656 34.980469 C 10.074219 34.96875 9.949219 34.960938 9.847656 34.957031 C 9.367188 34.945312 8.945312 35.160156 8.585938 35.515625 C 8.535156 35.566406 8.488281 35.613281 8.441406 35.667969 C 9.015625 35.472656 9.613281 35.234375 10.222656 34.980469 Z M 16.347656 34.789062 C 16.292969 34.808594 16.238281 34.828125 16.183594 34.84375 C 16.261719 35.09375 16.335938 35.347656 16.40625 35.609375 C 16.4375 35.617188 16.464844 35.628906 16.496094 35.636719 C 16.597656 35.371094 16.679688 35.113281 16.734375 34.867188 C 16.691406 34.863281 16.644531 34.855469 16.601562 34.84375 C 16.515625 34.828125 16.429688 34.808594 16.347656 34.789062 Z M 13.695312 33.832031 C 13.210938 34.050781 12.710938 34.28125 12.203125 34.507812 C 12.324219 34.597656 12.441406 34.691406 12.554688 34.792969 C 13.507812 34.835938 14.554688 34.824219 15.46875 34.644531 C 15.523438 34.632812 15.574219 34.625 15.625 34.613281 C 14.886719 34.410156 14.230469 34.167969 13.71875 33.847656 Z M 11.8125 34.683594 L 11.683594 34.742188 L 11.875 34.753906 Z M 23.917969 32.363281 C 23.929688 32.511719 23.933594 32.652344 23.925781 32.785156 C 24.847656 33.472656 25.363281 34.136719 25.605469 34.734375 C 25.964844 34.4375 26.296875 34.101562 26.570312 33.734375 C 25.792969 33.660156 25.078125 33.199219 24.351562 32.679688 C 24.207031 32.574219 24.0625 32.46875 23.917969 32.363281 Z M 16.09375 30.210938 C 16.058594 30.335938 16.039062 30.460938 16.039062 30.582031 C 16.042969 30.835938 15.960938 31.019531 15.828125 31.144531 C 15.699219 31.269531 15.515625 31.339844 15.28125 31.355469 C 15.066406 31.371094 14.800781 31.339844 14.503906 31.261719 C 14.605469 31.421875 14.707031 31.578125 14.804688 31.738281 C 15.289062 31.617188 15.730469 31.652344 16.15625 31.953125 C 16.289062 32.046875 16.410156 32.148438 16.515625 32.257812 C 16.660156 32.207031 16.796875 32.167969 16.921875 32.136719 C 17.269531 32.042969 17.546875 32.011719 17.742188 32.046875 C 17.882812 32.074219 17.992188 32.128906 18.0625 32.214844 C 18.136719 32.300781 18.179688 32.414062 18.175781 32.570312 C 18.152344 33.394531 17.777344 33.976562 17.1875 34.378906 C 17.183594 34.425781 17.175781 34.476562 17.171875 34.527344 C 17.769531 34.503906 18.449219 34.269531 19.132812 33.949219 C 19.132812 33.847656 19.132812 33.75 19.132812 33.652344 C 19.136719 33.0625 19.167969 32.53125 19.3125 32.097656 C 18.222656 31.640625 17.113281 30.960938 16.09375 30.210938 Z M 16.402344 32.679688 C 16.125 32.78125 15.820312 32.902344 15.492188 33.039062 C 15.671875 33.4375 15.847656 33.875 16.011719 34.335938 C 16.113281 34.359375 16.21875 34.386719 16.324219 34.410156 C 16.507812 34.339844 16.679688 34.261719 16.835938 34.167969 C 16.863281 33.585938 16.722656 33.085938 16.402344 32.679688 Z M 15.15625 33.183594 C 14.820312 33.324219 14.46875 33.484375 14.101562 33.648438 C 14.519531 33.878906 15.023438 34.066406 15.582031 34.222656 C 15.445312 33.855469 15.300781 33.503906 15.15625 33.183594 Z M 12.847656 33.042969 C 12.4375 33.246094 11.992188 33.449219 11.507812 33.613281 C 11.671875 33.820312 11.828125 34.023438 11.964844 34.21875 C 12.4375 34.007812 12.902344 33.792969 13.351562 33.589844 C 13.148438 33.425781 12.980469 33.242188 12.847656 33.042969 Z M 22.515625 32.425781 C 22.167969 32.628906 21.761719 32.882812 21.324219 33.148438 C 21.882812 32.972656 22.4375 33.027344 22.757812 33.359375 C 22.804688 33.40625 22.839844 33.476562 22.855469 33.566406 C 22.882812 33.695312 22.875 33.886719 22.867188 34.101562 C 22.867188 34.136719 22.863281 34.167969 22.863281 34.203125 C 23.171875 33.890625 23.449219 33.496094 23.535156 32.960938 C 23.242188 32.769531 22.886719 32.601562 22.515625 32.425781 Z M 11.136719 33.730469 C 11.054688 33.75 10.976562 33.773438 10.894531 33.792969 C 11.058594 33.871094 11.214844 33.945312 11.367188 34.023438 C 11.292969 33.925781 11.214844 33.828125 11.136719 33.730469 Z M 17.203125 33.902344 C 17.570312 33.578125 17.796875 33.144531 17.8125 32.558594 C 17.8125 32.519531 17.808594 32.488281 17.792969 32.464844 C 17.777344 32.433594 17.738281 32.417969 17.695312 32.410156 C 17.640625 32.398438 17.578125 32.394531 17.503906 32.402344 C 17.308594 32.410156 17.0625 32.46875 16.769531 32.558594 C 17.042969 32.941406 17.183594 33.390625 17.203125 33.902344 Z M 19.652344 32.234375 C 19.527344 32.628906 19.5 33.117188 19.5 33.652344 C 19.496094 33.691406 19.496094 33.730469 19.496094 33.769531 C 20.21875 33.40625 20.929688 32.964844 21.554688 32.582031 C 21.316406 32.625 21.09375 32.628906 20.890625 32.589844 C 20.488281 32.515625 20.070312 32.390625 19.652344 32.234375 Z M 8.960938 33.308594 C 8.867188 33.398438 8.757812 33.492188 8.636719 33.589844 C 8.980469 33.625 9.308594 33.628906 9.621094 33.609375 C 9.402344 33.511719 9.179688 33.414062 8.960938 33.308594 Z M 10.507812 29.605469 C 10.480469 29.609375 10.449219 29.609375 10.417969 29.609375 C 9.980469 29.632812 9.511719 29.546875 9.089844 29.488281 C 8.835938 29.453125 8.601562 29.425781 8.40625 29.445312 C 8.292969 29.457031 8.199219 29.484375 8.128906 29.546875 C 8.0625 29.609375 8.027344 29.707031 8.015625 29.839844 C 7.996094 30.113281 8.113281 30.34375 8.273438 30.554688 C 8.464844 30.800781 8.714844 31.019531 8.933594 31.242188 C 9.234375 31.550781 9.476562 31.867188 9.5 32.230469 C 9.515625 32.46875 9.4375 32.730469 9.210938 33.027344 C 9.589844 33.203125 9.96875 33.367188 10.328125 33.53125 C 10.519531 33.5 10.707031 33.460938 10.886719 33.414062 C 10.425781 32.832031 9.976562 32.234375 9.761719 31.664062 C 9.59375 31.226562 9.566406 30.804688 9.742188 30.410156 C 9.871094 30.125 10.113281 29.855469 10.507812 29.605469 Z M 14.636719 32.167969 C 14.222656 32.316406 13.773438 32.5625 13.265625 32.828125 C 13.234375 32.84375 13.207031 32.859375 13.175781 32.875 C 13.320312 33.078125 13.503906 33.257812 13.730469 33.417969 C 14.175781 33.214844 14.601562 33.023438 15 32.851562 C 14.890625 32.625 14.765625 32.398438 14.636719 32.167969 Z M 25.285156 30.6875 C 24.765625 30.992188 24.207031 31.351562 23.660156 31.671875 C 23.679688 31.683594 23.699219 31.695312 23.71875 31.710938 C 23.761719 31.742188 23.800781 31.789062 23.824219 31.847656 C 24.074219 32.023438 24.320312 32.203125 24.566406 32.382812 C 25.296875 32.910156 26.011719 33.394531 26.808594 33.378906 C 26.929688 33.175781 27.035156 32.964844 27.113281 32.746094 C 27.199219 32.523438 27.21875 32.351562 27.179688 32.214844 C 27.136719 32.0625 27.023438 31.964844 26.878906 31.871094 C 26.699219 31.757812 26.46875 31.660156 26.230469 31.542969 C 25.753906 31.3125 25.464844 31.027344 25.292969 30.707031 Z M 28.089844 29.769531 C 28.042969 29.78125 27.996094 29.792969 27.949219 29.804688 C 27.46875 29.917969 26.910156 29.9375 26.402344 30.125 C 26.15625 30.21875 25.886719 30.351562 25.605469 30.507812 C 25.742188 30.777344 25.984375 31.019531 26.390625 31.214844 C 26.640625 31.339844 26.882812 31.441406 27.074219 31.5625 C 27.304688 31.707031 27.464844 31.878906 27.53125 32.117188 C 27.585938 32.308594 27.574219 32.554688 27.457031 32.875 C 27.402344 33.023438 27.335938 33.171875 27.261719 33.316406 C 27.585938 33.230469 27.925781 33.050781 28.289062 32.761719 C 28.894531 32.269531 28.988281 31.664062 28.757812 30.988281 C 28.625 30.601562 28.390625 30.191406 28.089844 29.769531 Z M 11.164062 29.671875 C 10.566406 29.9375 10.226562 30.230469 10.078125 30.5625 C 9.898438 30.949219 10.003906 31.375 10.222656 31.8125 C 10.46875 32.296875 10.859375 32.789062 11.242188 33.277344 L 11.265625 33.304688 C 11.777344 33.140625 12.246094 32.933594 12.671875 32.722656 C 12.558594 32.457031 12.5 32.160156 12.507812 31.832031 C 12.515625 31.460938 12.605469 31.046875 12.800781 30.59375 C 12.257812 30.328125 11.699219 30.007812 11.164062 29.671875 Z M 8.570312 25.628906 C 8.105469 25.386719 7.644531 25.261719 7.238281 25.375 C 6.925781 25.464844 6.644531 25.683594 6.394531 25.953125 C 5.996094 26.382812 5.683594 26.941406 5.476562 27.363281 C 5.070312 28.183594 4.96875 28.894531 5.097656 29.511719 C 5.292969 30.445312 6 31.171875 6.90625 31.785156 C 7.5 32.1875 8.183594 32.542969 8.871094 32.867188 C 9.066406 32.636719 9.144531 32.4375 9.132812 32.253906 C 9.117188 31.972656 8.90625 31.738281 8.671875 31.5 C 8.441406 31.265625 8.183594 31.035156 7.984375 30.777344 C 7.765625 30.492188 7.625 30.179688 7.652344 29.8125 C 7.675781 29.5625 7.757812 29.394531 7.882812 29.28125 C 8.003906 29.167969 8.167969 29.105469 8.367188 29.082031 C 8.585938 29.058594 8.851562 29.085938 9.140625 29.128906 C 9.539062 29.183594 9.984375 29.265625 10.402344 29.246094 C 10.433594 29.246094 10.46875 29.242188 10.5 29.238281 C 10.089844 28.960938 9.710938 28.679688 9.386719 28.414062 C 8.808594 27.941406 8.402344 27.507812 8.285156 27.21875 C 8.058594 26.664062 8.1875 26.179688 8.464844 25.773438 C 8.5 25.722656 8.535156 25.675781 8.570312 25.628906 Z M 16.125 32.394531 C 16.070312 32.34375 16.007812 32.296875 15.945312 32.25 C 15.644531 32.039062 15.335938 32.003906 14.996094 32.066406 C 15.121094 32.28125 15.234375 32.496094 15.335938 32.707031 C 15.617188 32.589844 15.882812 32.484375 16.125 32.394531 Z M 13.125 30.75 C 12.960938 31.144531 12.878906 31.507812 12.871094 31.839844 C 12.867188 32.105469 12.914062 32.339844 13 32.554688 C 13.03125 32.539062 13.066406 32.519531 13.097656 32.503906 C 13.589844 32.246094 14.035156 32.003906 14.445312 31.851562 C 14.289062 31.597656 14.121094 31.34375 13.945312 31.089844 C 13.6875 30.996094 13.410156 30.882812 13.125 30.75 Z M 23.410156 32.007812 C 23.375 32.011719 23.335938 32.023438 23.296875 32.039062 C 23.238281 32.058594 23.179688 32.082031 23.113281 32.109375 C 23.046875 32.140625 22.980469 32.175781 22.90625 32.210938 C 23.136719 32.320312 23.359375 32.433594 23.5625 32.546875 C 23.558594 32.398438 23.539062 32.238281 23.507812 32.070312 L 23.484375 32.054688 C 23.46875 32.046875 23.453125 32.035156 23.4375 32.023438 Z M 20.664062 31.316406 C 20.574219 31.339844 20.484375 31.371094 20.390625 31.40625 C 20.117188 31.507812 19.925781 31.679688 19.796875 31.898438 C 20.191406 32.046875 20.582031 32.160156 20.960938 32.230469 C 21.234375 32.285156 21.550781 32.238281 21.886719 32.128906 C 21.648438 32.011719 21.417969 31.886719 21.203125 31.746094 C 21.007812 31.617188 20.824219 31.472656 20.664062 31.316406 Z M 22.890625 31.6875 L 22.867188 31.675781 C 22.328125 31.378906 21.757812 31.183594 21.125 31.238281 C 21.210938 31.308594 21.304688 31.375 21.402344 31.441406 C 21.695312 31.632812 22.019531 31.796875 22.347656 31.953125 C 22.523438 31.875 22.707031 31.785156 22.890625 31.6875 Z M 50.914062 18.128906 C 51.339844 18 51.71875 17.9375 52.132812 17.878906 C 54.851562 21.207031 55.917969 24.261719 56.070312 26.914062 C 56.113281 27.667969 56.085938 28.382812 56 29.066406 C 56.164062 28.964844 56.332031 28.859375 56.492188 28.753906 C 56.546875 28.15625 56.5625 27.535156 56.527344 26.890625 C 56.371094 24.222656 55.328125 21.15625 52.671875 17.820312 C 52.792969 17.804688 53.175781 17.789062 53.382812 17.785156 C 53.609375 17.78125 54.003906 17.792969 54.191406 17.808594 C 55.042969 18.515625 56.40625 20.636719 57.238281 23.371094 C 57.628906 24.660156 57.902344 26.085938 57.941406 27.570312 C 58.09375 27.417969 58.238281 27.261719 58.378906 27.101562 C 58.296875 25.742188 58.035156 24.433594 57.671875 23.238281 C 56.9375 20.820312 55.792969 18.871094 54.917969 17.886719 C 55.453125 17.96875 55.976562 18.089844 56.480469 18.253906 C 56.648438 18.308594 56.773438 18.351562 56.9375 18.414062 C 57.097656 18.476562 57.257812 18.542969 57.414062 18.609375 C 58.785156 20.503906 59.515625 22.585938 59.789062 24.65625 C 59.910156 24.289062 60 23.90625 60.054688 23.511719 C 59.734375 21.980469 59.15625 20.460938 58.246094 19.027344 C 58.511719 19.179688 58.765625 19.339844 59.015625 19.511719 C 59.148438 19.601562 59.304688 19.71875 59.328125 19.738281 C 59.691406 20.007812 60.03125 20.308594 60.351562 20.625 C 61.445312 25.277344 58.550781 28.53125 54.820312 30.199219 C 53.660156 30.71875 52.417969 31.085938 51.1875 31.292969 C 51.679688 31.363281 52.183594 31.410156 52.703125 31.429688 C 53.488281 31.21875 54.265625 30.949219 55.007812 30.613281 C 58.730469 28.949219 61.632812 25.765625 60.941406 21.269531 C 61.382812 21.796875 61.765625 22.371094 62.089844 22.984375 C 61.53125 26.554688 59.839844 29.113281 57.609375 30.773438 C 58.03125 30.644531 58.453125 30.492188 58.878906 30.316406 C 60.574219 28.726562 61.859375 26.539062 62.425781 23.695312 C 62.660156 24.25 62.847656 24.832031 62.976562 25.433594 C 62.628906 26.765625 62.101562 27.941406 61.4375 28.964844 C 61.738281 28.769531 62.039062 28.558594 62.335938 28.335938 C 62.648438 27.753906 62.917969 27.132812 63.144531 26.46875 C 63.179688 26.804688 63.195312 27.144531 63.195312 27.488281 C 63.195312 27.765625 63.183594 28.039062 63.160156 28.308594 C 63.128906 28.316406 63.097656 28.328125 63.070312 28.351562 C 55.648438 34.289062 46.808594 31.75 43.804688 28.085938 C 43.792969 27.890625 43.789062 27.691406 43.789062 27.488281 C 43.789062 27.328125 43.792969 27.167969 43.800781 27.011719 C 43.855469 27.214844 43.925781 27.421875 44 27.625 C 44.042969 27.65625 44.082031 27.695312 44.117188 27.738281 C 44.363281 28.046875 44.648438 28.34375 44.972656 28.628906 C 44.382812 27.589844 44.050781 26.511719 44 25.464844 C 44.085938 25.054688 44.199219 24.660156 44.335938 24.273438 C 44.585938 25.664062 45.265625 27.117188 46.324219 28.476562 C 46.375 28.292969 46.425781 28.113281 46.480469 27.929688 C 45.394531 26.449219 44.769531 24.871094 44.6875 23.402344 C 44.953125 22.835938 45.269531 22.300781 45.632812 21.796875 C 45.746094 23.226562 46.277344 24.726562 47.144531 26.152344 C 47.21875 25.984375 47.296875 25.816406 47.375 25.648438 C 46.542969 24.195312 46.070312 22.675781 46.0625 21.246094 C 46.382812 20.867188 46.734375 20.507812 47.109375 20.179688 C 47.085938 21.542969 47.4375 22.957031 48.09375 24.3125 C 48.1875 24.160156 48.28125 24.007812 48.378906 23.855469 C 47.773438 22.511719 47.480469 21.121094 47.582031 19.792969 C 48.101562 19.394531 48.65625 19.046875 49.25 18.757812 C 49.164062 19.277344 49.1875 19.914062 49.316406 20.621094 C 49.402344 21.082031 49.535156 21.578125 49.707031 22.09375 C 49.824219 21.964844 49.941406 21.832031 50.058594 21.707031 C 49.933594 21.300781 49.835938 20.910156 49.765625 20.539062 C 49.617188 19.738281 49.609375 19.042969 49.769531 18.523438 C 49.992188 18.433594 50.214844 18.347656 50.445312 18.273438 C 53.875 22.535156 54.671875 26.167969 54.382812 28.992188 C 54.347656 29.324219 54.300781 29.640625 54.238281 29.945312 C 54.371094 29.890625 54.503906 29.835938 54.632812 29.777344 C 54.667969 29.761719 54.703125 29.746094 54.742188 29.730469 C 54.78125 29.503906 54.8125 29.273438 54.835938 29.039062 C 55.132812 26.160156 54.351562 22.460938 50.914062 18.128906 Z M 18.507812 27.816406 C 18.421875 27.816406 18.34375 27.820312 18.269531 27.828125 C 18.019531 27.847656 17.707031 27.894531 17.351562 27.960938 C 17.320312 28.011719 17.292969 28.0625 17.261719 28.109375 C 16.925781 28.660156 16.546875 29.1875 16.296875 29.691406 C 16.269531 29.746094 16.242188 29.800781 16.21875 29.855469 C 17.242188 30.613281 18.359375 31.308594 19.453125 31.761719 C 19.625 31.445312 19.882812 31.207031 20.261719 31.0625 C 20.3125 31.046875 20.359375 31.027344 20.40625 31.011719 C 20.28125 30.839844 20.1875 30.644531 20.125 30.433594 C 20.085938 30.296875 20.0625 30.15625 20.050781 30.003906 C 18.824219 30.351562 18.003906 30.429688 17.507812 30.339844 C 16.964844 30.242188 16.757812 29.953125 16.78125 29.605469 C 16.804688 29.277344 17.082031 28.84375 17.574219 28.433594 C 17.832031 28.21875 18.148438 28.007812 18.507812 27.816406 Z M 24.898438 27.222656 C 24.429688 27.382812 23.960938 27.480469 23.511719 27.5 C 23.925781 28.546875 24.113281 29.195312 24.144531 29.5625 C 24.164062 29.828125 24.101562 29.984375 24.015625 30.066406 C 23.917969 30.160156 23.773438 30.195312 23.589844 30.148438 C 23.414062 30.105469 23.183594 29.980469 22.925781 29.816406 C 22.652344 29.640625 22.34375 29.421875 22.035156 29.230469 C 21.878906 29.355469 21.632812 29.484375 21.277344 29.609375 C 20.972656 29.71875 20.683594 29.8125 20.414062 29.898438 C 20.414062 30.050781 20.4375 30.195312 20.476562 30.332031 C 20.539062 30.550781 20.648438 30.742188 20.789062 30.914062 C 21.621094 30.753906 22.355469 30.976562 23.042969 31.355469 C 23.117188 31.394531 23.191406 31.4375 23.265625 31.480469 C 23.898438 31.121094 24.546875 30.695312 25.148438 30.347656 C 25.046875 29.976562 25.058594 29.574219 25.101562 29.171875 C 25.140625 28.765625 25.214844 28.359375 25.195312 27.992188 C 25.183594 27.699219 25.109375 27.433594 24.898438 27.222656 Z M 14.390625 28.84375 C 14.050781 29.234375 13.773438 29.601562 13.554688 29.949219 C 13.769531 30.222656 13.976562 30.503906 14.175781 30.785156 C 14.257812 30.8125 14.335938 30.839844 14.414062 30.859375 C 14.742188 30.957031 15.03125 31.007812 15.257812 30.992188 C 15.390625 30.984375 15.503906 30.953125 15.578125 30.882812 C 15.644531 30.816406 15.675781 30.714844 15.675781 30.582031 C 15.675781 30.386719 15.714844 30.183594 15.78125 29.976562 C 15.289062 29.605469 14.820312 29.222656 14.390625 28.84375 Z M 53.539062 24.875 C 53.59375 25.0625 53.640625 25.25 53.683594 25.433594 C 52.585938 26.949219 51.777344 28.695312 51.273438 30.378906 C 51.226562 30.53125 51.183594 30.679688 51.144531 30.832031 C 50.980469 30.859375 50.816406 30.882812 50.65625 30.90625 C 50.710938 30.6875 50.769531 30.46875 50.835938 30.25 C 51.386719 28.402344 52.296875 26.496094 53.539062 24.875 Z M 48.824219 30.742188 C 48.675781 30.691406 48.53125 30.640625 48.386719 30.589844 C 48.882812 27.554688 50.347656 24.6875 52.65625 22.554688 C 52.726562 22.703125 52.792969 22.847656 52.855469 22.992188 C 50.667969 25.0625 49.28125 27.824219 48.824219 30.742188 Z M 13.351562 30.285156 C 13.328125 30.332031 13.304688 30.375 13.28125 30.421875 C 13.371094 30.460938 13.460938 30.503906 13.546875 30.539062 C 13.484375 30.453125 13.417969 30.371094 13.351562 30.285156 Z M 12.476562 29.210938 C 12.128906 29.320312 11.824219 29.421875 11.585938 29.507812 C 12.039062 29.78125 12.503906 30.042969 12.953125 30.265625 C 13.003906 30.171875 13.054688 30.074219 13.113281 29.976562 C 12.902344 29.71875 12.691406 29.460938 12.476562 29.210938 Z M 25.539062 26.96875 C 25.480469 26.992188 25.421875 27.019531 25.363281 27.042969 C 25.328125 27.058594 25.296875 27.070312 25.265625 27.085938 C 25.605469 27.523438 25.589844 28.097656 25.519531 28.714844 C 25.464844 29.195312 25.375 29.703125 25.480469 30.160156 C 25.761719 30.007812 26.027344 29.878906 26.277344 29.785156 C 26.671875 29.636719 27.101562 29.585938 27.5 29.519531 C 27.621094 29.5 27.738281 29.480469 27.851562 29.453125 C 27.632812 29.171875 27.386719 28.882812 27.121094 28.589844 C 26.640625 28.058594 26.097656 27.515625 25.539062 26.96875 Z M 19.277344 27.859375 C 18.6875 28.101562 18.183594 28.402344 17.808594 28.714844 C 17.414062 29.042969 17.164062 29.367188 17.144531 29.628906 C 17.132812 29.816406 17.28125 29.929688 17.574219 29.980469 C 18.054688 30.066406 18.855469 29.976562 20.0625 29.621094 C 20.078125 29.449219 20.117188 29.269531 20.171875 29.074219 C 20.261719 28.777344 20.40625 28.601562 20.582031 28.507812 C 20.757812 28.410156 20.972656 28.398438 21.207031 28.449219 C 21.433594 28.5 21.6875 28.617188 21.945312 28.761719 C 21.945312 28.726562 21.921875 28.695312 21.894531 28.660156 C 21.847656 28.605469 21.777344 28.554688 21.691406 28.5 C 21.175781 28.1875 20.144531 27.953125 19.277344 27.859375 Z M 46.929688 29.945312 C 46.785156 29.871094 46.644531 29.796875 46.507812 29.71875 C 46.652344 28.972656 46.855469 28.214844 47.125 27.457031 C 47.980469 25.03125 49.480469 22.621094 51.691406 20.8125 C 51.777344 20.945312 51.855469 21.074219 51.933594 21.207031 C 49.816406 22.957031 48.378906 25.273438 47.554688 27.609375 C 47.277344 28.394531 47.070312 29.179688 46.929688 29.945312 Z M 23.117188 27.496094 C 23.011719 27.488281 22.90625 27.476562 22.804688 27.457031 C 21.824219 27.285156 20.871094 27.375 20.03125 27.605469 C 20.75 27.734375 21.46875 27.941406 21.882812 28.1875 C 22.15625 28.355469 22.300781 28.550781 22.3125 28.742188 C 22.316406 28.8125 22.304688 28.882812 22.269531 28.953125 C 22.566406 29.140625 22.859375 29.339844 23.121094 29.507812 C 23.328125 29.640625 23.515625 29.746094 23.664062 29.789062 C 23.699219 29.800781 23.75 29.804688 23.761719 29.804688 C 23.765625 29.796875 23.773438 29.777344 23.773438 29.761719 C 23.785156 29.71875 23.785156 29.660156 23.777344 29.589844 C 23.75 29.222656 23.550781 28.570312 23.117188 27.496094 Z M 13.96875 28.773438 C 13.578125 28.882812 13.203125 28.992188 12.855469 29.097656 C 13.011719 29.277344 13.164062 29.460938 13.316406 29.648438 C 13.5 29.371094 13.714844 29.078125 13.96875 28.773438 Z M 16.863281 28.058594 C 16.1875 28.199219 15.414062 28.386719 14.652344 28.589844 C 15.050781 28.9375 15.476562 29.289062 15.921875 29.628906 C 15.9375 29.59375 15.953125 29.5625 15.96875 29.527344 C 16.203125 29.058594 16.546875 28.566406 16.863281 28.058594 Z M 21.6875 29.027344 C 21.492188 28.925781 21.300781 28.84375 21.128906 28.804688 C 20.988281 28.773438 20.859375 28.773438 20.753906 28.828125 C 20.652344 28.882812 20.574219 29 20.523438 29.175781 C 20.488281 29.289062 20.464844 29.398438 20.445312 29.503906 C 20.671875 29.433594 20.90625 29.351562 21.15625 29.265625 C 21.378906 29.183594 21.554688 29.105469 21.6875 29.027344 Z M 27.671875 25.601562 C 27.152344 26.046875 26.535156 26.464844 25.886719 26.796875 C 26.417969 27.320312 26.933594 27.839844 27.390625 28.34375 C 27.695312 28.679688 27.976562 29.011719 28.222656 29.335938 C 28.347656 29.28125 28.464844 29.207031 28.5625 29.105469 C 28.828125 28.832031 28.960938 28.371094 28.910156 27.5625 C 28.867188 26.832031 28.234375 26.085938 27.671875 25.601562 Z M 8.894531 25.816406 C 8.601562 26.15625 8.417969 26.582031 8.621094 27.082031 C 8.726562 27.335938 9.101562 27.710938 9.617188 28.132812 C 10.007812 28.449219 10.476562 28.792969 10.980469 29.125 C 11.054688 29.09375 11.121094 29.054688 11.183594 29.007812 C 11.386719 28.863281 11.546875 28.636719 11.660156 28.304688 C 11.527344 28.164062 11.398438 28.027344 11.269531 27.894531 C 10.839844 27.449219 9.933594 26.480469 8.976562 25.867188 C 8.949219 25.847656 8.921875 25.832031 8.894531 25.816406 Z M 11.9375 28.605469 C 11.847656 28.808594 11.742188 28.976562 11.617188 29.109375 C 11.792969 29.046875 11.992188 28.984375 12.214844 28.914062 C 12.121094 28.808594 12.027344 28.707031 11.9375 28.605469 Z M 12.46875 26.34375 C 12.347656 27.007812 12.21875 27.640625 12.066406 28.207031 C 12.242188 28.398438 12.417969 28.59375 12.597656 28.792969 C 13 28.671875 13.445312 28.542969 13.914062 28.414062 C 13.722656 28.238281 13.542969 28.066406 13.375 27.898438 C 13.144531 27.671875 12.953125 27.355469 12.777344 27.003906 C 12.671875 26.792969 12.570312 26.566406 12.46875 26.34375 Z M 12.765625 24.660156 C 12.703125 25.019531 12.644531 25.371094 12.582031 25.722656 C 12.71875 26.003906 12.851562 26.304688 12.984375 26.589844 C 13.175781 27 13.375 27.386719 13.628906 27.636719 C 13.847656 27.851562 14.082031 28.074219 14.332031 28.300781 L 14.40625 28.277344 C 14.550781 28.125 14.703125 27.964844 14.863281 27.804688 C 15.621094 27.046875 16.464844 26.355469 17.121094 25.523438 C 16.851562 25.574219 16.589844 25.621094 16.332031 25.65625 C 15.257812 25.816406 14.296875 25.804688 13.660156 25.292969 C 13.359375 25.054688 13.058594 24.847656 12.765625 24.660156 Z M 17.566406 25.527344 C 16.882812 26.46875 15.953125 27.230469 15.121094 28.0625 L 15.082031 28.101562 C 15.800781 27.917969 16.511719 27.753906 17.117188 27.636719 C 17.511719 26.949219 17.789062 26.242188 17.566406 25.527344 Z M 12.203125 25.78125 C 12.148438 25.671875 12.089844 25.570312 12.03125 25.46875 C 11.820312 25.117188 11.582031 24.828125 11.257812 24.710938 C 10.9375 24.589844 10.542969 24.648438 10.023438 24.949219 C 9.828125 25.0625 9.472656 25.265625 9.15625 25.546875 L 9.171875 25.558594 C 10.15625 26.191406 11.089844 27.183594 11.53125 27.640625 C 11.613281 27.722656 11.691406 27.804688 11.773438 27.890625 C 11.929688 27.25 12.070312 26.527344 12.203125 25.78125 Z M 20.542969 25.136719 C 19.753906 25.035156 18.828125 25.191406 17.902344 25.371094 C 18.148438 26.105469 17.941406 26.839844 17.578125 27.550781 C 17.828125 27.511719 18.050781 27.480469 18.238281 27.464844 C 18.496094 27.441406 18.839844 27.453125 19.222656 27.492188 C 19.519531 27.375 19.835938 27.273438 20.167969 27.195312 C 20.035156 27.117188 19.925781 26.9375 19.925781 26.574219 C 19.925781 26.226562 20.101562 25.75 20.542969 25.136719 Z M 20.941406 25.214844 C 20.492188 25.804688 20.289062 26.246094 20.292969 26.574219 C 20.292969 26.683594 20.300781 26.765625 20.320312 26.824219 C 20.332031 26.851562 20.335938 26.871094 20.351562 26.878906 C 20.386719 26.898438 20.433594 26.882812 20.488281 26.863281 C 20.59375 26.832031 20.710938 26.773438 20.839844 26.703125 C 21.148438 26.535156 21.507812 26.320312 21.863281 26.222656 C 22.128906 26.144531 22.398438 26.136719 22.640625 26.242188 C 22.898438 26.347656 23.136719 26.582031 23.320312 27.027344 L 23.367188 27.140625 C 23.75 27.140625 24.15625 27.070312 24.5625 26.945312 C 23.898438 26.4375 22.683594 25.640625 20.941406 25.214844 Z M 22.960938 27.113281 C 22.832031 26.820312 22.675781 26.652344 22.5 26.578125 C 22.28125 26.484375 22.042969 26.535156 21.804688 26.625 C 21.527344 26.730469 21.253906 26.894531 21.011719 27.023438 C 20.996094 27.035156 20.980469 27.042969 20.964844 27.050781 C 21.574219 26.976562 22.214844 26.984375 22.867188 27.097656 C 22.898438 27.105469 22.929688 27.109375 22.960938 27.113281 Z M 22.457031 23.820312 C 22.007812 24.074219 21.523438 24.53125 21.195312 24.902344 C 23.09375 25.402344 24.363281 26.316406 24.972656 26.808594 C 25.054688 26.777344 25.136719 26.742188 25.21875 26.707031 L 25.257812 26.691406 C 24.261719 25.71875 23.246094 24.746094 22.457031 23.820312 Z M 27.371094 25.378906 C 27.050781 25.199219 26.730469 25.191406 26.398438 25.1875 C 25.929688 25.183594 25.4375 25.191406 24.902344 24.894531 C 24.726562 24.796875 24.523438 24.507812 24.265625 24.214844 C 23.941406 23.847656 23.5 23.472656 22.808594 23.667969 C 23.605469 24.589844 24.625 25.5625 25.613281 26.527344 C 26.25 26.214844 26.855469 25.808594 27.371094 25.378906 Z M 13.3125 21.9375 C 13.128906 22.675781 12.976562 23.472656 12.835938 24.277344 C 13.175781 24.484375 13.535156 24.726562 13.886719 25.007812 C 14.457031 25.464844 15.320312 25.4375 16.277344 25.296875 C 16.636719 25.242188 17.007812 25.175781 17.382812 25.101562 C 17.054688 24.394531 16.960938 23.589844 17.023438 22.808594 C 15.808594 22.441406 14.46875 22.085938 13.3125 21.9375 Z M 27.65625 25.125 C 27.902344 24.898438 28.117188 24.671875 28.296875 24.449219 C 28.527344 24.160156 28.695312 23.886719 28.78125 23.636719 C 28.851562 23.429688 28.867188 23.25 28.785156 23.109375 C 28.664062 22.898438 28.273438 22.59375 27.738281 22.25 C 26.429688 21.414062 24.265625 20.40625 22.785156 20.226562 C 22.097656 20.144531 21.558594 20.222656 21.398438 20.664062 C 22.257812 21.085938 22.9375 21.199219 23.285156 21.359375 C 23.457031 21.4375 23.5625 21.53125 23.617188 21.644531 C 23.675781 21.761719 23.679688 21.90625 23.601562 22.105469 C 23.519531 22.300781 23.316406 22.527344 23.039062 22.75 C 22.855469 22.898438 22.636719 23.042969 22.402344 23.179688 L 22.414062 23.195312 C 22.4375 23.226562 22.460938 23.257812 22.488281 23.285156 L 22.554688 23.371094 C 22.605469 23.351562 22.65625 23.332031 22.703125 23.316406 C 23.574219 23.070312 24.132812 23.511719 24.539062 23.972656 C 24.683594 24.136719 24.808594 24.300781 24.917969 24.425781 C 24.976562 24.492188 25.027344 24.546875 25.078125 24.574219 C 25.550781 24.835938 25.988281 24.820312 26.402344 24.820312 C 26.832031 24.824219 27.246094 24.851562 27.65625 25.125 Z M 18.402344 23.25 C 18.425781 23.597656 18.398438 23.910156 18.304688 24.160156 C 18.199219 24.457031 18.066406 24.738281 17.914062 25 C 18.933594 24.808594 19.953125 24.648438 20.796875 24.808594 C 21.125 24.410156 21.691406 23.859375 22.222656 23.539062 C 22.171875 23.480469 22.125 23.417969 22.078125 23.355469 C 21.921875 23.433594 21.765625 23.507812 21.613281 23.570312 C 21.265625 23.714844 20.925781 23.820312 20.648438 23.859375 C 20.4375 23.890625 20.257812 23.882812 20.121094 23.835938 C 19.726562 23.707031 19.121094 23.492188 18.402344 23.25 Z M 17.382812 22.921875 C 17.339844 23.542969 17.410156 24.179688 17.632812 24.757812 C 17.761719 24.53125 17.871094 24.292969 17.960938 24.039062 C 18.050781 23.792969 18.066406 23.476562 18.023438 23.125 C 17.816406 23.058594 17.601562 22.988281 17.382812 22.921875 Z M 12.945312 21.898438 C 12.792969 21.882812 12.644531 21.875 12.5 21.867188 C 12.003906 21.851562 11.566406 21.890625 11.234375 22.011719 C 10.9375 22.121094 10.726562 22.292969 10.636719 22.5625 C 10.585938 22.714844 10.628906 22.839844 10.726562 22.960938 C 10.816406 23.066406 10.9375 23.164062 11.089844 23.265625 C 11.449219 23.503906 11.945312 23.753906 12.5 24.078125 C 12.636719 23.328125 12.777344 22.585938 12.945312 21.898438 Z M 20.988281 20.863281 C 20.53125 20.617188 20.027344 20.28125 19.496094 19.8125 C 19.195312 19.542969 18.839844 19.679688 18.511719 20.011719 C 18.238281 20.285156 17.984375 20.691406 17.789062 21.171875 C 18.035156 21.683594 18.222656 22.21875 18.324219 22.714844 C 18.335938 22.761719 18.34375 22.804688 18.351562 22.851562 C 19.144531 23.113281 19.8125 23.347656 20.238281 23.492188 C 20.328125 23.519531 20.453125 23.519531 20.597656 23.496094 C 20.847656 23.460938 21.15625 23.367188 21.472656 23.234375 C 21.597656 23.179688 21.726562 23.121094 21.855469 23.058594 C 21.285156 22.265625 20.949219 21.519531 20.988281 20.867188 Z M 21.351562 21.046875 C 21.375 21.605469 21.691406 22.226562 22.175781 22.886719 C 22.410156 22.753906 22.628906 22.609375 22.8125 22.464844 C 23.03125 22.289062 23.199219 22.121094 23.261719 21.964844 C 23.289062 21.898438 23.308594 21.847656 23.289062 21.804688 C 23.273438 21.765625 23.230469 21.742188 23.171875 21.710938 C 23.09375 21.667969 22.988281 21.632812 22.863281 21.59375 C 22.5 21.476562 21.976562 21.339844 21.351562 21.046875 Z M 17.613281 21.667969 C 17.558594 21.851562 17.511719 22.042969 17.472656 22.238281 C 17.453125 22.34375 17.433594 22.445312 17.421875 22.550781 C 17.601562 22.609375 17.78125 22.664062 17.953125 22.722656 C 17.878906 22.378906 17.761719 22.023438 17.613281 21.667969 Z M 17.390625 21.191406 C 17.261719 20.933594 17.113281 20.691406 16.957031 20.460938 C 16.445312 19.71875 15.820312 19.148438 15.191406 19.136719 C 14.878906 19.132812 14.574219 19.28125 14.289062 19.617188 C 13.972656 19.992188 13.683594 20.582031 13.445312 21.441406 C 13.429688 21.488281 13.417969 21.535156 13.40625 21.582031 C 14.550781 21.734375 15.867188 22.082031 17.066406 22.445312 C 17.082031 22.351562 17.097656 22.261719 17.113281 22.171875 C 17.179688 21.828125 17.273438 21.496094 17.390625 21.191406 "/></g></g></svg>