<svg xmlns="http://www.w3.org/2000/svg" xmlns:xlink="http://www.w3.org/1999/xlink" width="100" zoomAndPan="magnify" viewBox="0 0 75 74.999997" height="100" preserveAspectRatio="xMidYMid meet" version="1.2"><g id="b7b4ea2839"><path style=" stroke:none;fill-rule:nonzero;fill:#000000;fill-opacity:1;" d="M 3.316406 24.289062 L 6.546875 25.621094 C 6.988281 25.808594 7.5 25.59375 7.6875 25.152344 C 7.773438 24.9375 7.773438 24.707031 7.6875 24.496094 C 7.585938 24.28125 7.433594 24.109375 7.21875 24.007812 L 3.988281 22.679688 C 3.886719 22.636719 3.777344 22.621094 3.65625 22.621094 C 3.316406 22.621094 2.992188 22.816406 2.847656 23.15625 C 2.769531 23.371094 2.769531 23.597656 2.847656 23.820312 C 2.949219 24.035156 3.109375 24.203125 3.316406 24.289062 Z M 3.316406 24.289062 "/><path style=" stroke:none;fill-rule:nonzero;fill:#000000;fill-opacity:1;" d="M 13.441406 14.683594 C 13.773438 15.007812 14.351562 15.007812 14.675781 14.683594 C 14.847656 14.523438 14.921875 14.300781 14.921875 14.070312 C 14.921875 13.839844 14.847656 13.621094 14.675781 13.449219 L 12.203125 10.984375 C 12.042969 10.824219 11.820312 10.730469 11.589844 10.730469 C 11.359375 10.730469 11.140625 10.832031 10.976562 10.984375 C 10.636719 11.328125 10.636719 11.878906 10.976562 12.214844 Z M 13.441406 14.683594 "/><path style=" stroke:none;fill-rule:nonzero;fill:#000000;fill-opacity:1;" d="M 24 7.210938 C 24.195312 7.652344 24.707031 7.867188 25.140625 7.695312 C 25.363281 7.59375 25.527344 7.441406 25.609375 7.226562 C 25.695312 7.015625 25.695312 6.777344 25.609375 6.5625 L 24.28125 3.332031 C 24.136719 3 23.820312 2.796875 23.480469 2.796875 C 23.359375 2.796875 23.25 2.8125 23.140625 2.855469 C 22.703125 3.042969 22.484375 3.5625 22.671875 3.996094 L 24 7.21875 Z M 24 7.210938 "/><path style=" stroke:none;fill-rule:nonzero;fill:#000000;fill-opacity:1;" d="M 37.5 5.222656 C 37.984375 5.222656 38.378906 4.832031 38.378906 4.347656 L 38.378906 0.871094 C 38.378906 0.402344 37.984375 0 37.5 0 C 37.015625 0 36.621094 0.390625 36.621094 0.871094 L 36.621094 4.355469 C 36.621094 4.839844 37.015625 5.234375 37.5 5.234375 Z M 37.5 5.222656 "/><path style=" stroke:none;fill-rule:nonzero;fill:#000000;fill-opacity:1;" d="M 49.859375 7.6875 C 50.292969 7.867188 50.8125 7.652344 51 7.203125 L 52.328125 3.980469 C 52.515625 3.546875 52.296875 3.027344 51.859375 2.839844 C 51.75 2.796875 51.640625 2.777344 51.519531 2.777344 C 51.179688 2.777344 50.863281 2.984375 50.71875 3.316406 L 49.390625 6.546875 C 49.304688 6.757812 49.304688 6.996094 49.390625 7.210938 C 49.472656 7.421875 49.636719 7.585938 49.859375 7.679688 Z M 49.859375 7.6875 "/><path style=" stroke:none;fill-rule:nonzero;fill:#000000;fill-opacity:1;" d="M 61.558594 14.683594 L 64.023438 12.214844 C 64.363281 11.871094 64.363281 11.316406 64.023438 10.984375 C 63.859375 10.824219 63.640625 10.730469 63.410156 10.730469 C 63.179688 10.730469 62.957031 10.832031 62.796875 10.984375 L 60.324219 13.449219 C 60.152344 13.621094 60.078125 13.832031 60.078125 14.070312 C 60.078125 14.308594 60.152344 14.523438 60.324219 14.683594 C 60.65625 15.015625 61.234375 15.007812 61.558594 14.683594 Z M 61.558594 14.683594 "/><path style=" stroke:none;fill-rule:nonzero;fill:#000000;fill-opacity:1;" d="M 68.453125 25.621094 L 71.683594 24.289062 C 71.890625 24.203125 72.058594 24.035156 72.152344 23.820312 C 72.230469 23.597656 72.230469 23.371094 72.152344 23.15625 C 71.964844 22.722656 71.445312 22.5 71.011719 22.6875 L 67.78125 24.015625 C 67.566406 24.121094 67.40625 24.28125 67.3125 24.503906 C 67.226562 24.714844 67.226562 24.945312 67.3125 25.160156 C 67.507812 25.601562 68.011719 25.816406 68.453125 25.628906 Z M 68.453125 25.621094 "/><path style=" stroke:none;fill-rule:nonzero;fill:#000000;fill-opacity:1;" d="M 61.21875 32.574219 C 60.816406 36.46875 60.066406 40.160156 59.046875 43.550781 C 61.3125 43.039062 63.46875 41.054688 64.644531 39.1875 C 65.566406 37.722656 65.660156 36.121094 64.917969 34.765625 C 64.210938 33.476562 62.839844 32.675781 61.21875 32.574219 Z M 61.21875 32.574219 "/><path style=" stroke:none;fill-rule:nonzero;fill:#000000;fill-opacity:1;" d="M 16.003906 43.578125 C 14.972656 40.167969 14.222656 36.476562 13.816406 32.566406 C 12.179688 32.675781 10.796875 33.476562 10.089844 34.773438 C 9.347656 36.128906 9.453125 37.730469 10.363281 39.195312 C 11.546875 41.078125 13.730469 43.074219 16.015625 43.578125 Z M 16.003906 43.578125 "/><path style=" stroke:none;fill-rule:nonzero;fill:#000000;fill-opacity:1;" d="M 37.535156 63.664062 C 48.886719 63.664062 58.398438 49.253906 59.675781 30.136719 L 15.324219 30.136719 C 16.628906 49.234375 26.164062 63.664062 37.535156 63.664062 Z M 28.703125 49.328125 C 29.191406 49.328125 29.574219 49.722656 29.574219 50.199219 C 29.574219 52.109375 32.753906 54.160156 37.5 54.160156 C 42.246094 54.160156 45.425781 52.117188 45.425781 50.199219 C 45.425781 49.714844 45.816406 49.328125 46.296875 49.328125 C 46.773438 49.328125 47.164062 49.722656 47.164062 50.199219 C 47.164062 53.394531 42.921875 55.902344 37.5 55.902344 C 32.078125 55.902344 27.835938 53.394531 27.835938 50.199219 C 27.835938 49.714844 28.226562 49.328125 28.703125 49.328125 Z M 28.703125 49.328125 "/><path style=" stroke:none;fill-rule:nonzero;fill:#000000;fill-opacity:1;" d="M 54.109375 24.476562 C 53.710938 24.324219 53.488281 23.898438 53.574219 23.488281 C 53.71875 22.875 53.777344 22.304688 53.777344 21.714844 C 53.777344 17.4375 50.316406 13.953125 46.074219 13.953125 L 45.160156 13.953125 C 43.355469 13.953125 41.652344 14.667969 40.371094 15.953125 C 39.628906 16.695312 39.066406 17.609375 38.753906 18.578125 C 38.625 18.9375 38.300781 19.183594 37.925781 19.183594 L 37.089844 19.183594 C 36.714844 19.183594 36.382812 18.9375 36.265625 18.578125 C 35.941406 17.609375 35.378906 16.695312 34.644531 15.964844 C 33.367188 14.660156 31.660156 13.941406 29.855469 13.941406 L 28.941406 13.941406 C 24.699219 13.941406 21.238281 17.421875 21.238281 21.707031 C 21.238281 22.296875 21.296875 22.867188 21.441406 23.480469 C 21.527344 23.890625 21.308594 24.316406 20.90625 24.46875 C 19.160156 25.167969 17.847656 26.625 17.285156 28.371094 L 57.742188 28.371094 C 57.160156 26.597656 55.847656 25.160156 54.121094 24.46875 Z M 54.109375 24.476562 "/><path style=" stroke:none;fill-rule:nonzero;fill:#000000;fill-opacity:1;" d="M 69.777344 69.777344 L 61.023438 69.777344 C 56.726562 69.777344 52.925781 66.894531 51.785156 62.785156 C 51.402344 61.371094 51.1875 59.921875 51.160156 58.464844 C 47.285156 62.855469 42.578125 65.402344 37.542969 65.402344 C 32.503906 65.402344 27.75 62.828125 23.847656 58.40625 C 23.828125 59.878906 23.617188 61.339844 23.222656 62.777344 C 22.082031 66.878906 18.28125 69.765625 13.984375 69.765625 L 5.222656 69.765625 C 2.34375 69.765625 0 72.109375 0 74.992188 L 75 74.992188 C 75 72.109375 72.65625 69.765625 69.777344 69.765625 Z M 69.777344 69.777344 "/></g></svg>