<svg xmlns="http://www.w3.org/2000/svg" xmlns:xlink="http://www.w3.org/1999/xlink" width="100" zoomAndPan="magnify" viewBox="0 0 75 74.999997" height="100" preserveAspectRatio="xMidYMid meet" version="1.2"><g id="e7230ba890"><path style=" stroke:none;fill-rule:nonzero;fill:#000000;fill-opacity:1;" d="M 68.300781 66.589844 L 59.949219 66.589844 C 56.59375 66.589844 53.625 64.351562 52.730469 61.140625 C 52.378906 59.863281 52.195312 58.542969 52.183594 57.226562 L 52.183594 57.070312 C 52.183594 56.433594 52.203125 55.863281 52.234375 55.34375 C 54.332031 52.457031 56.125 48.957031 57.488281 45.007812 C 60.484375 44.769531 63.292969 42.359375 64.800781 39.960938 C 66 38.0625 66.113281 35.847656 65.117188 34.042969 C 64.171875 32.332031 62.375 31.25 60.273438 31.097656 C 60.289062 30.886719 60.304688 30.671875 60.324219 30.46875 C 60.359375 30.027344 60.195312 29.582031 59.890625 29.269531 C 59.589844 28.945312 59.164062 28.757812 58.722656 28.757812 L 40.574219 28.757812 L 40.429688 16.761719 C 40.710938 16.761719 40.992188 16.777344 41.28125 16.777344 C 43.816406 16.777344 46.5 16.59375 48.847656 15.714844 C 50.015625 15.273438 50.992188 14.71875 51.828125 14.003906 C 51.871094 13.96875 51.914062 13.9375 51.945312 13.894531 C 52.847656 13.050781 53.523438 12.039062 54.007812 10.828125 C 54.023438 10.792969 54.039062 10.753906 54.058594 10.710938 C 54.109375 10.574219 54.167969 10.445312 54.21875 10.300781 C 54.21875 10.285156 54.238281 10.265625 54.246094 10.242188 C 54.902344 8.25 54.976562 6.09375 54.976562 3.984375 L 54.976562 3.105469 C 54.976562 2.691406 54.976562 2.273438 54.976562 1.871094 C 54.976562 0.886719 54.167969 0.0859375 53.128906 0.0507812 C 51.300781 -0.015625 49.511719 -0.0429688 47.785156 0.078125 C 46.011719 0.203125 44.320312 0.484375 42.742188 1.0625 C 41.578125 1.515625 40.574219 2.101562 39.78125 2.785156 C 39.757812 2.800781 39.738281 2.828125 39.714844 2.84375 C 38.65625 3.824219 37.898438 5.023438 37.398438 6.511719 C 36.980469 7.773438 36.757812 9.246094 36.691406 11.136719 C 36.664062 11.945312 36.664062 12.753906 36.664062 13.5625 L 36.664062 13.671875 C 36.664062 14.011719 36.664062 14.335938 36.664062 14.667969 C 36.375 14.921875 36.105469 15.210938 35.867188 15.511719 C 35.363281 14.105469 34.632812 12.949219 33.59375 11.988281 C 32.757812 11.261719 31.753906 10.675781 30.636719 10.25 C 30.621094 10.25 30.5625 10.214844 30.542969 10.214844 C 27.480469 9.066406 23.90625 9.082031 20.203125 9.210938 C 19.164062 9.246094 18.355469 10.046875 18.355469 11.03125 C 18.355469 11.433594 18.355469 11.851562 18.355469 12.265625 L 18.355469 13.144531 C 18.355469 15.253906 18.429688 17.417969 19.085938 19.402344 C 19.085938 19.425781 19.101562 19.445312 19.113281 19.460938 C 19.164062 19.605469 19.222656 19.726562 19.273438 19.871094 C 19.289062 19.910156 19.308594 19.953125 19.332031 19.996094 C 19.820312 21.207031 20.480469 22.21875 21.375 23.054688 C 21.417969 23.097656 21.460938 23.128906 21.503906 23.164062 C 22.339844 23.878906 23.316406 24.441406 24.492188 24.875 C 26.832031 25.753906 29.515625 25.9375 32.050781 25.9375 C 32.757812 25.9375 33.449219 25.921875 34.121094 25.90625 L 34.460938 25.886719 L 34.425781 28.757812 L 16.292969 28.757812 C 15.859375 28.757812 15.433594 28.945312 15.128906 29.269531 C 14.828125 29.589844 14.667969 30.027344 14.703125 30.46875 C 14.703125 30.671875 14.734375 30.886719 14.753906 31.097656 C 12.632812 31.25 10.820312 32.324219 9.875 34.042969 C 8.878906 35.847656 8.988281 38.0625 10.191406 39.960938 C 11.707031 42.371094 14.53125 44.789062 17.546875 45.007812 C 18.898438 48.933594 20.679688 52.398438 22.753906 55.273438 C 22.789062 55.828125 22.804688 56.414062 22.804688 57.097656 L 22.804688 57.234375 C 22.804688 58.542969 22.621094 59.871094 22.261719 61.148438 C 21.367188 64.359375 18.398438 66.597656 15.042969 66.597656 L 6.699219 66.597656 C 3.03125 66.597656 0.0429688 69.585938 0.0429688 73.253906 C 0.0429688 74.175781 0.792969 74.921875 1.710938 74.921875 L 73.289062 74.921875 C 74.207031 74.921875 74.957031 74.175781 74.957031 73.253906 C 74.957031 69.585938 71.96875 66.597656 68.300781 66.597656 Z M 60.136719 32.75 C 61.695312 32.859375 62.996094 33.625 63.675781 34.84375 C 64.382812 36.136719 64.28125 37.671875 63.414062 39.066406 C 62.289062 40.84375 60.230469 42.742188 58.066406 43.230469 C 59.046875 39.996094 59.753906 36.46875 60.136719 32.75 Z M 50.839844 12.660156 C 50.839844 12.660156 50.824219 12.683594 50.8125 12.691406 C 50.117188 13.296875 49.289062 13.773438 48.285156 14.15625 C 45.699219 15.109375 42.53125 15.152344 39.703125 15.09375 L 44.4375 10.777344 L 51.972656 11.253906 C 51.65625 11.773438 51.292969 12.242188 50.839844 12.660156 Z M 50.355469 1.660156 C 51.25 1.660156 52.160156 1.6875 53.078125 1.710938 C 53.222656 1.710938 53.316406 1.8125 53.316406 1.863281 C 53.316406 2.273438 53.316406 2.691406 53.316406 3.117188 L 51.222656 3.066406 C 50.730469 3.066406 50.269531 3.234375 49.910156 3.550781 L 49.078125 4.308594 L 48.796875 1.703125 C 49.316406 1.675781 49.828125 1.667969 50.355469 1.667969 Z M 51.035156 4.777344 C 51.035156 4.777344 51.078125 4.699219 51.1875 4.726562 L 53.308594 4.777344 C 53.28125 6.460938 53.171875 8.128906 52.695312 9.628906 L 46.148438 9.21875 Z M 43.367188 2.621094 C 44.523438 2.1875 45.800781 1.949219 47.128906 1.804688 L 47.554688 5.6875 L 43.59375 9.289062 C 43.59375 9.289062 43.570312 9.3125 43.5625 9.320312 L 41.917969 10.8125 L 41.160156 3.832031 C 41.78125 3.355469 42.496094 2.953125 43.367188 2.621094 Z M 38.324219 13.5625 C 38.324219 12.777344 38.324219 11.988281 38.351562 11.203125 C 38.410156 9.476562 38.605469 8.15625 38.972656 7.046875 C 39.160156 6.496094 39.390625 6 39.664062 5.542969 L 40.386719 12.199219 L 38.324219 14.070312 L 38.324219 13.554688 Z M 36.121094 25.316406 C 36.460938 24.976562 36.664062 24.527344 36.664062 24.050781 C 36.664062 23.648438 36.664062 23.242188 36.664062 22.832031 L 36.664062 22.710938 C 36.664062 21.914062 36.664062 21.105469 36.640625 20.296875 C 36.605469 19.402344 36.539062 18.609375 36.4375 17.886719 C 36.632812 17.296875 36.964844 16.753906 37.371094 16.300781 C 37.695312 16.550781 38.097656 16.695312 38.511719 16.710938 L 38.777344 16.710938 C 38.777344 16.710938 38.921875 28.75 38.921875 28.75 L 36.085938 28.75 L 36.128906 25.300781 Z M 26.195312 10.964844 C 27.515625 11.101562 28.765625 11.339844 29.898438 11.757812 C 29.914062 11.757812 29.972656 11.789062 29.992188 11.789062 C 30.816406 12.105469 31.523438 12.496094 32.164062 12.992188 L 31.40625 19.972656 L 29.753906 18.472656 C 29.753906 18.472656 29.753906 18.472656 29.734375 18.457031 L 25.769531 14.847656 Z M 20.015625 11.023438 C 20.015625 10.972656 20.117188 10.878906 20.253906 10.871094 C 21.71875 10.828125 23.148438 10.804688 24.535156 10.855469 L 24.253906 13.460938 L 23.417969 12.703125 C 23.078125 12.386719 22.601562 12.226562 22.109375 12.214844 L 20.015625 12.265625 C 20.015625 11.839844 20.015625 11.425781 20.015625 11.015625 Z M 20.636719 18.789062 C 20.152344 17.289062 20.046875 15.613281 20.023438 13.9375 L 22.140625 13.886719 C 22.226562 13.886719 22.269531 13.910156 22.296875 13.9375 L 27.183594 18.378906 Z M 25.054688 23.316406 C 24.039062 22.933594 23.214844 22.457031 22.515625 21.851562 L 22.492188 21.828125 C 22.046875 21.410156 21.675781 20.933594 21.359375 20.414062 L 28.894531 19.9375 L 33.625 24.253906 C 30.800781 24.320312 27.632812 24.277344 25.054688 23.316406 Z M 32.929688 21.359375 L 33.652344 14.703125 C 33.925781 15.160156 34.164062 15.65625 34.339844 16.207031 C 34.707031 17.316406 34.902344 18.636719 34.964844 20.363281 C 34.988281 21.144531 34.988281 21.9375 34.988281 22.710938 L 34.988281 23.242188 L 32.929688 21.367188 Z M 11.585938 39.074219 C 10.710938 37.6875 10.617188 36.144531 11.324219 34.851562 C 12.003906 33.617188 13.324219 32.851562 14.878906 32.75 C 15.273438 36.476562 15.988281 40.011719 16.964844 43.253906 C 14.789062 42.777344 12.710938 40.871094 11.578125 39.074219 Z M 16.328125 30.425781 L 58.65625 30.425781 C 57.429688 48.667969 48.355469 62.433594 37.515625 62.433594 C 26.679688 62.433594 17.5625 48.660156 16.328125 30.425781 Z M 1.710938 73.246094 C 1.710938 70.488281 3.949219 68.25 6.707031 68.25 L 15.058594 68.25 C 19.164062 68.25 22.789062 65.5 23.878906 61.582031 C 24.253906 60.222656 24.449219 58.816406 24.464844 57.410156 C 28.1875 61.632812 32.699219 64.085938 37.535156 64.085938 C 42.371094 64.085938 46.832031 61.652344 50.535156 57.464844 C 50.558594 58.851562 50.753906 60.238281 51.121094 61.582031 C 52.210938 65.507812 55.835938 68.25 59.941406 68.25 L 68.292969 68.25 C 71.050781 68.25 73.289062 70.488281 73.289062 73.246094 Z M 1.710938 73.246094 "/><path style=" stroke:none;fill-rule:nonzero;fill:#000000;fill-opacity:1;" d="M 37.5 55.019531 C 42.675781 55.019531 46.726562 52.628906 46.726562 49.570312 C 46.726562 49.113281 46.355469 48.738281 45.894531 48.738281 C 45.433594 48.738281 45.058594 49.113281 45.058594 49.570312 C 45.058594 51.394531 42.019531 53.351562 37.5 53.351562 C 32.980469 53.351562 29.941406 51.394531 29.941406 49.570312 C 29.941406 49.113281 29.566406 48.738281 29.105469 48.738281 C 28.644531 48.738281 28.273438 49.113281 28.273438 49.570312 C 28.273438 52.628906 32.324219 55.019531 37.5 55.019531 Z M 37.5 55.019531 "/></g></svg>