<svg xmlns="http://www.w3.org/2000/svg" xmlns:xlink="http://www.w3.org/1999/xlink" width="100" zoomAndPan="magnify" viewBox="0 0 75 74.999997" height="100" preserveAspectRatio="xMidYMid meet" version="1.2"><g id="657e4a7b9b"><path style=" stroke:none;fill-rule:nonzero;fill:#a4edf5;fill-opacity:1;" d="M 64.929688 37.496094 C 64.929688 38.398438 64.886719 39.292969 64.800781 40.191406 C 64.710938 41.085938 64.578125 41.972656 64.402344 42.855469 C 64.230469 43.738281 64.011719 44.609375 63.75 45.46875 C 63.488281 46.332031 63.1875 47.175781 62.84375 48.007812 C 62.5 48.839844 62.117188 49.652344 61.691406 50.445312 C 61.269531 51.238281 60.808594 52.007812 60.308594 52.757812 C 59.808594 53.503906 59.273438 54.226562 58.703125 54.921875 C 58.132812 55.617188 57.53125 56.28125 56.898438 56.917969 C 56.261719 57.554688 55.597656 58.15625 54.902344 58.730469 C 54.207031 59.300781 53.488281 59.835938 52.738281 60.335938 C 51.992188 60.835938 51.222656 61.296875 50.429688 61.71875 C 49.640625 62.144531 48.828125 62.527344 47.996094 62.871094 C 47.167969 63.214844 46.324219 63.519531 45.464844 63.78125 C 44.601562 64.042969 43.734375 64.261719 42.851562 64.433594 C 41.96875 64.609375 41.082031 64.742188 40.1875 64.832031 C 39.292969 64.917969 38.398438 64.964844 37.5 64.964844 C 36.601562 64.964844 35.707031 64.917969 34.8125 64.832031 C 33.917969 64.742188 33.03125 64.609375 32.148438 64.433594 C 31.265625 64.261719 30.398438 64.042969 29.539062 63.78125 C 28.675781 63.519531 27.832031 63.214844 27.003906 62.871094 C 26.171875 62.527344 25.363281 62.144531 24.570312 61.71875 C 23.777344 61.296875 23.007812 60.835938 22.261719 60.335938 C 21.511719 59.835938 20.792969 59.300781 20.097656 58.730469 C 19.402344 58.15625 18.738281 57.554688 18.101562 56.917969 C 17.46875 56.28125 16.867188 55.617188 16.296875 54.921875 C 15.726562 54.226562 15.191406 53.503906 14.691406 52.757812 C 14.191406 52.007812 13.730469 51.238281 13.308594 50.445312 C 12.882812 49.652344 12.5 48.839844 12.15625 48.007812 C 11.8125 47.175781 11.511719 46.332031 11.25 45.46875 C 10.988281 44.609375 10.769531 43.738281 10.597656 42.855469 C 10.421875 41.972656 10.289062 41.085938 10.199219 40.191406 C 10.113281 39.292969 10.070312 38.398438 10.070312 37.496094 C 10.070312 36.597656 10.113281 35.699219 10.199219 34.804688 C 10.289062 33.910156 10.421875 33.023438 10.597656 32.140625 C 10.769531 31.257812 10.988281 30.386719 11.25 29.523438 C 11.511719 28.664062 11.8125 27.816406 12.15625 26.988281 C 12.5 26.15625 12.882812 25.34375 13.308594 24.550781 C 13.730469 23.757812 14.191406 22.988281 14.691406 22.238281 C 15.191406 21.492188 15.726562 20.769531 16.296875 20.074219 C 16.867188 19.378906 17.46875 18.710938 18.101562 18.078125 C 18.738281 17.441406 19.402344 16.835938 20.097656 16.265625 C 20.792969 15.695312 21.511719 15.160156 22.261719 14.660156 C 23.007812 14.160156 23.777344 13.699219 24.570312 13.273438 C 25.363281 12.851562 26.171875 12.46875 27.003906 12.121094 C 27.832031 11.777344 28.675781 11.476562 29.539062 11.214844 C 30.398438 10.953125 31.265625 10.734375 32.148438 10.558594 C 33.03125 10.382812 33.917969 10.253906 34.8125 10.164062 C 35.707031 10.078125 36.601562 10.03125 37.5 10.03125 C 38.398438 10.03125 39.292969 10.078125 40.1875 10.164062 C 41.082031 10.253906 41.96875 10.382812 42.851562 10.558594 C 43.734375 10.734375 44.601562 10.953125 45.464844 11.214844 C 46.324219 11.476562 47.167969 11.777344 47.996094 12.121094 C 48.828125 12.46875 49.640625 12.851562 50.429688 13.273438 C 51.222656 13.699219 51.992188 14.160156 52.738281 14.660156 C 53.488281 15.160156 54.207031 15.695312 54.902344 16.265625 C 55.597656 16.835938 56.261719 17.441406 56.898438 18.078125 C 57.53125 18.710938 58.132812 19.378906 58.703125 20.074219 C 59.273438 20.769531 59.808594 21.492188 60.308594 22.238281 C 60.808594 22.988281 61.269531 23.757812 61.691406 24.550781 C 62.117188 25.34375 62.5 26.15625 62.84375 26.988281 C 63.1875 27.816406 63.488281 28.664062 63.75 29.523438 C 64.011719 30.386719 64.230469 31.257812 64.402344 32.140625 C 64.578125 33.023438 64.710938 33.910156 64.800781 34.804688 C 64.886719 35.699219 64.929688 36.597656 64.929688 37.496094 Z M 64.929688 37.496094 "/><path style=" stroke:none;fill-rule:nonzero;fill:#366088;fill-opacity:1;" d="M 1.679688 47.574219 C 1.507812 47.574219 1.347656 47.460938 1.300781 47.285156 C 0.957031 46.007812 0.675781 44.695312 0.46875 43.382812 C 0.433594 43.167969 0.582031 42.96875 0.792969 42.933594 C 1.007812 42.898438 1.210938 43.046875 1.242188 43.261719 C 1.445312 44.542969 1.71875 45.828125 2.058594 47.082031 C 2.113281 47.289062 1.992188 47.503906 1.78125 47.5625 C 1.746094 47.570312 1.714844 47.574219 1.679688 47.574219 Z M 0.449219 39.785156 C 0.242188 39.785156 0.0664062 39.625 0.0585938 39.414062 C 0.0234375 38.78125 0.0078125 38.136719 0.0078125 37.496094 C 0.0078125 36.808594 0.0273438 36.109375 0.0664062 35.421875 C 0.078125 35.207031 0.261719 35.039062 0.476562 35.054688 C 0.695312 35.066406 0.859375 35.25 0.847656 35.464844 C 0.8125 36.140625 0.792969 36.820312 0.792969 37.496094 C 0.792969 38.121094 0.808594 38.753906 0.839844 39.375 C 0.851562 39.589844 0.683594 39.777344 0.46875 39.785156 C 0.460938 39.785156 0.453125 39.785156 0.449219 39.785156 Z M 0.882812 31.910156 C 0.859375 31.910156 0.839844 31.910156 0.816406 31.90625 C 0.605469 31.871094 0.460938 31.667969 0.492188 31.457031 C 0.707031 30.144531 0.992188 28.832031 1.34375 27.554688 C 1.402344 27.347656 1.617188 27.222656 1.824219 27.28125 C 2.035156 27.339844 2.15625 27.554688 2.097656 27.765625 C 1.753906 29.015625 1.476562 30.300781 1.269531 31.582031 C 1.238281 31.773438 1.070312 31.910156 0.882812 31.910156 Z M 2.96875 24.304688 C 2.921875 24.304688 2.871094 24.296875 2.824219 24.277344 C 2.625 24.199219 2.523438 23.972656 2.605469 23.769531 C 3.089844 22.539062 3.648438 21.316406 4.261719 20.140625 C 4.363281 19.949219 4.601562 19.875 4.792969 19.976562 C 4.984375 20.074219 5.058594 20.3125 4.957031 20.503906 C 4.355469 21.65625 3.808594 22.851562 3.332031 24.058594 C 3.273438 24.210938 3.125 24.304688 2.96875 24.304688 Z M 2.96875 24.304688 "/><path style=" stroke:none;fill-rule:nonzero;fill:#366088;fill-opacity:1;" d="M 35.835938 75 C 35.828125 75 35.824219 75 35.816406 75 C 34.5 74.941406 33.175781 74.8125 31.878906 74.613281 C 31.664062 74.582031 31.515625 74.382812 31.546875 74.167969 C 31.582031 73.953125 31.78125 73.804688 31.996094 73.839844 C 33.265625 74.03125 34.5625 74.15625 35.851562 74.214844 C 36.070312 74.222656 36.238281 74.40625 36.226562 74.625 C 36.21875 74.835938 36.042969 75 35.835938 75 Z M 39.753906 74.96875 C 39.546875 74.96875 39.375 74.808594 39.363281 74.597656 C 39.347656 74.382812 39.515625 74.195312 39.730469 74.183594 C 41.015625 74.105469 42.3125 73.960938 43.582031 73.746094 C 43.792969 73.710938 43.996094 73.855469 44.03125 74.070312 C 44.066406 74.28125 43.921875 74.484375 43.710938 74.519531 C 42.414062 74.738281 41.09375 74.886719 39.777344 74.96875 C 39.769531 74.96875 39.761719 74.96875 39.753906 74.96875 Z M 28.097656 73.828125 C 28.066406 73.828125 28.03125 73.824219 28 73.816406 C 26.726562 73.480469 25.457031 73.074219 24.226562 72.605469 C 24.023438 72.53125 23.921875 72.304688 24 72.101562 C 24.078125 71.898438 24.304688 71.796875 24.507812 71.871094 C 25.710938 72.332031 26.953125 72.730469 28.199219 73.054688 C 28.40625 73.109375 28.53125 73.324219 28.476562 73.535156 C 28.429688 73.710938 28.273438 73.828125 28.097656 73.828125 Z M 47.46875 73.675781 C 47.296875 73.675781 47.140625 73.558594 47.089844 73.386719 C 47.035156 73.179688 47.15625 72.960938 47.363281 72.902344 C 48.605469 72.558594 49.839844 72.140625 51.035156 71.664062 C 51.238281 71.582031 51.464844 71.679688 51.542969 71.882812 C 51.625 72.082031 51.527344 72.3125 51.324219 72.390625 C 50.101562 72.878906 48.839844 73.304688 47.574219 73.660156 C 47.539062 73.667969 47.503906 73.675781 47.46875 73.675781 Z M 47.46875 73.675781 "/><path style=" stroke:none;fill-rule:nonzero;fill:#366088;fill-opacity:1;" d="M 73.71875 45.949219 C 73.691406 45.949219 73.664062 45.945312 73.636719 45.941406 C 73.421875 45.894531 73.289062 45.683594 73.335938 45.472656 C 73.644531 44.09375 73.871094 42.679688 74.015625 41.273438 C 74.039062 41.058594 74.230469 40.898438 74.445312 40.921875 C 74.660156 40.945312 74.816406 41.136719 74.796875 41.351562 C 74.648438 42.792969 74.414062 44.234375 74.101562 45.644531 C 74.0625 45.824219 73.898438 45.949219 73.71875 45.949219 Z M 74.597656 37.410156 C 74.382812 37.410156 74.207031 37.234375 74.203125 37.019531 C 74.1875 35.605469 74.085938 34.175781 73.90625 32.777344 C 73.878906 32.5625 74.03125 32.367188 74.246094 32.339844 C 74.460938 32.3125 74.65625 32.464844 74.683594 32.679688 C 74.867188 34.105469 74.96875 35.5625 74.988281 37.011719 C 74.992188 37.226562 74.816406 37.40625 74.601562 37.410156 C 74.601562 37.410156 74.597656 37.410156 74.597656 37.410156 Z M 73.5 28.894531 C 73.324219 28.894531 73.164062 28.777344 73.121094 28.597656 C 72.777344 27.226562 72.351562 25.863281 71.851562 24.539062 C 71.777344 24.335938 71.878906 24.109375 72.082031 24.035156 C 72.28125 23.957031 72.507812 24.058594 72.585938 24.261719 C 73.09375 25.613281 73.53125 27.007812 73.878906 28.410156 C 73.933594 28.617188 73.804688 28.832031 73.59375 28.882812 C 73.5625 28.890625 73.53125 28.894531 73.5 28.894531 Z M 70.46875 20.867188 C 70.328125 20.867188 70.191406 20.789062 70.121094 20.65625 C 69.472656 19.402344 68.742188 18.171875 67.953125 16.996094 C 67.832031 16.816406 67.878906 16.574219 68.058594 16.453125 C 68.238281 16.332031 68.480469 16.378906 68.601562 16.558594 C 69.410156 17.757812 70.15625 19.011719 70.816406 20.292969 C 70.917969 20.484375 70.839844 20.722656 70.648438 20.824219 C 70.59375 20.851562 70.53125 20.867188 70.46875 20.867188 Z M 65.675781 13.75 C 65.566406 13.75 65.457031 13.703125 65.378906 13.613281 C 64.460938 12.539062 63.46875 11.507812 62.433594 10.546875 C 62.273438 10.398438 62.265625 10.152344 62.414062 9.992188 C 62.558594 9.835938 62.808594 9.824219 62.964844 9.972656 C 64.023438 10.953125 65.035156 12.007812 65.972656 13.101562 C 66.113281 13.269531 66.097656 13.515625 65.933594 13.65625 C 65.859375 13.71875 65.765625 13.75 65.675781 13.75 Z M 59.386719 7.914062 C 59.308594 7.914062 59.226562 7.890625 59.15625 7.839844 C 58.015625 7.003906 56.816406 6.222656 55.589844 5.523438 C 55.402344 5.417969 55.335938 5.179688 55.441406 4.988281 C 55.550781 4.800781 55.789062 4.734375 55.976562 4.84375 C 57.230469 5.554688 58.457031 6.351562 59.621094 7.207031 C 59.792969 7.335938 59.832031 7.578125 59.703125 7.753906 C 59.628906 7.859375 59.507812 7.914062 59.386719 7.914062 Z M 22.675781 3.839844 C 22.523438 3.839844 22.378906 3.75 22.316406 3.605469 C 22.230469 3.40625 22.320312 3.175781 22.519531 3.085938 C 23.839844 2.507812 25.210938 2 26.589844 1.582031 C 26.796875 1.515625 27.015625 1.632812 27.078125 1.839844 C 27.140625 2.046875 27.023438 2.269531 26.816406 2.332031 C 25.46875 2.742188 24.125 3.238281 22.832031 3.804688 C 22.78125 3.828125 22.726562 3.839844 22.675781 3.839844 Z M 51.933594 3.671875 C 51.882812 3.671875 51.832031 3.660156 51.78125 3.640625 C 50.480469 3.085938 49.132812 2.605469 47.777344 2.210938 C 47.570312 2.148438 47.449219 1.929688 47.511719 1.722656 C 47.570312 1.515625 47.789062 1.394531 47.996094 1.457031 C 49.382812 1.863281 50.757812 2.351562 52.085938 2.917969 C 52.285156 3 52.378906 3.230469 52.292969 3.429688 C 52.230469 3.582031 52.085938 3.671875 51.933594 3.671875 Z M 30.875 1.335938 C 30.691406 1.335938 30.527344 1.203125 30.492188 1.015625 C 30.453125 0.800781 30.59375 0.597656 30.808594 0.558594 C 32.222656 0.300781 33.671875 0.125 35.117188 0.0351562 C 35.332031 0.0195312 35.519531 0.183594 35.53125 0.402344 C 35.546875 0.617188 35.382812 0.804688 35.164062 0.816406 C 33.753906 0.90625 32.332031 1.078125 30.945312 1.332031 C 30.921875 1.335938 30.898438 1.335938 30.875 1.335938 Z M 43.703125 1.261719 C 43.679688 1.261719 43.660156 1.261719 43.636719 1.257812 C 42.246094 1.023438 40.828125 0.867188 39.414062 0.792969 C 39.199219 0.78125 39.03125 0.597656 39.042969 0.382812 C 39.054688 0.164062 39.238281 0 39.453125 0.0117188 C 40.898438 0.0859375 42.347656 0.242188 43.765625 0.484375 C 43.980469 0.519531 44.125 0.722656 44.089844 0.9375 C 44.054688 1.128906 43.890625 1.261719 43.703125 1.261719 Z M 43.703125 1.261719 "/><path style=" stroke:none;fill-rule:nonzero;fill:#ffffff;fill-opacity:1;" d="M 62.253906 67.125 L 62.253906 65.167969 L 67.382812 65.167969 C 68.191406 65.167969 68.84375 64.511719 68.84375 63.703125 L 68.84375 59.257812 C 68.84375 58.847656 69.105469 58.476562 69.492188 58.339844 L 70.75 57.890625 C 71.5625 57.597656 71.949219 56.671875 71.582031 55.890625 L 69.332031 51.054688 L 69.332031 49.738281 C 69.332031 42.769531 63.816406 36.9375 56.859375 36.824219 C 49.75 36.703125 43.949219 42.4375 43.949219 49.527344 C 43.949219 52.453125 44.976562 55.132812 46.65625 57.273438 C 47.746094 58.664062 48.34375 60.375 48.34375 62.144531 L 48.34375 67.125 Z M 62.253906 67.125 "/><path style=" stroke:none;fill-rule:nonzero;fill:#366088;fill-opacity:1;" d="M 62.253906 67.492188 C 62.054688 67.492188 61.890625 67.328125 61.890625 67.125 L 61.890625 65.167969 C 61.890625 64.964844 62.054688 64.800781 62.253906 64.800781 L 67.382812 64.800781 C 67.984375 64.800781 68.480469 64.308594 68.480469 63.703125 L 68.480469 59.257812 C 68.480469 58.691406 68.835938 58.183594 69.371094 57.992188 L 70.625 57.542969 C 70.917969 57.4375 71.148438 57.222656 71.269531 56.933594 C 71.390625 56.644531 71.382812 56.328125 71.25 56.042969 L 69 51.210938 C 68.980469 51.164062 68.96875 51.109375 68.96875 51.054688 L 68.96875 49.738281 C 68.96875 42.929688 63.53125 37.300781 56.851562 37.191406 C 53.519531 37.132812 50.375 38.390625 48 40.730469 C 45.625 43.066406 44.316406 46.191406 44.316406 49.527344 C 44.316406 52.253906 45.226562 54.855469 46.945312 57.046875 C 48.082031 58.5 48.710938 60.3125 48.710938 62.144531 L 48.710938 67.125 C 48.710938 67.328125 48.546875 67.492188 48.34375 67.492188 C 48.140625 67.492188 47.976562 67.328125 47.976562 67.125 L 47.976562 62.144531 C 47.976562 60.476562 47.40625 58.824219 46.367188 57.5 C 45.484375 56.378906 44.800781 55.140625 44.328125 53.820312 C 43.832031 52.441406 43.582031 50.996094 43.582031 49.527344 C 43.582031 47.742188 43.9375 46.015625 44.632812 44.386719 C 45.304688 42.816406 46.265625 41.410156 47.484375 40.207031 C 48.707031 39.003906 50.128906 38.066406 51.707031 37.417969 C 53.34375 36.75 55.082031 36.425781 56.863281 36.457031 C 58.613281 36.484375 60.304688 36.859375 61.894531 37.574219 C 63.421875 38.261719 64.792969 39.230469 65.96875 40.457031 C 67.140625 41.675781 68.0625 43.089844 68.703125 44.65625 C 69.363281 46.273438 69.699219 47.984375 69.699219 49.738281 L 69.699219 50.972656 L 71.917969 55.734375 C 72.132812 56.199219 72.144531 56.742188 71.945312 57.214844 C 71.746094 57.691406 71.355469 58.0625 70.871094 58.234375 L 69.617188 58.683594 C 69.375 58.769531 69.210938 59 69.210938 59.257812 L 69.210938 63.703125 C 69.210938 64.714844 68.390625 65.535156 67.382812 65.535156 L 62.621094 65.535156 L 62.621094 67.125 C 62.621094 67.328125 62.457031 67.492188 62.253906 67.492188 Z M 62.253906 67.492188 "/><path style=" stroke:none;fill-rule:nonzero;fill:#366088;fill-opacity:1;" d="M 62.253906 65.535156 L 60.535156 65.535156 C 59.742188 65.535156 58.976562 65.300781 58.324219 64.851562 C 57.667969 64.40625 57.167969 63.777344 56.878906 63.039062 L 55.566406 59.679688 C 55.496094 59.492188 55.585938 59.28125 55.777344 59.207031 C 55.964844 59.132812 56.175781 59.226562 56.25 59.414062 L 57.5625 62.769531 C 58.046875 64.003906 59.210938 64.800781 60.535156 64.800781 L 62.253906 64.800781 C 62.457031 64.800781 62.621094 64.964844 62.621094 65.167969 C 62.621094 65.371094 62.457031 65.535156 62.253906 65.535156 Z M 62.253906 65.535156 "/><path style=" stroke:none;fill-rule:nonzero;fill:#d0fdff;fill-opacity:1;" d="M 48.878906 48.949219 L 56.351562 48.949219 L 61.632812 54.234375 C 60.28125 55.589844 58.414062 56.425781 56.351562 56.425781 C 52.222656 56.425781 48.878906 53.078125 48.878906 48.949219 Z M 48.878906 48.949219 "/><path style=" stroke:none;fill-rule:nonzero;fill:#366088;fill-opacity:1;" d="M 56.351562 56.808594 C 54.253906 56.808594 52.28125 55.992188 50.796875 54.507812 C 49.3125 53.023438 48.496094 51.046875 48.496094 48.949219 C 48.496094 48.738281 48.667969 48.566406 48.878906 48.566406 L 56.351562 48.566406 C 56.453125 48.566406 56.546875 48.605469 56.621094 48.679688 L 61.902344 53.964844 C 61.972656 54.035156 62.011719 54.132812 62.011719 54.234375 C 62.011719 54.335938 61.972656 54.433594 61.902344 54.507812 C 60.417969 55.992188 58.445312 56.808594 56.351562 56.808594 Z M 49.269531 49.332031 C 49.46875 53.066406 52.570312 56.042969 56.351562 56.042969 C 58.117188 56.042969 59.78125 55.402344 61.082031 54.230469 L 56.191406 49.332031 Z M 49.269531 49.332031 "/><path style=" stroke:none;fill-rule:nonzero;fill:#d0fdff;fill-opacity:1;" d="M 61.632812 43.660156 C 62.980469 45.015625 63.816406 46.882812 63.816406 48.949219 C 63.816406 51.011719 62.980469 52.882812 61.632812 54.234375 L 56.351562 48.949219 Z M 61.632812 43.660156 "/><path style=" stroke:none;fill-rule:nonzero;fill:#366088;fill-opacity:1;" d="M 61.632812 54.617188 C 61.535156 54.617188 61.4375 54.582031 61.359375 54.507812 L 56.078125 49.21875 C 56.007812 49.148438 55.96875 49.050781 55.96875 48.949219 C 55.96875 48.847656 56.007812 48.75 56.078125 48.679688 L 61.359375 43.390625 C 61.433594 43.320312 61.53125 43.277344 61.632812 43.277344 C 61.734375 43.277344 61.828125 43.320312 61.902344 43.390625 C 63.382812 44.878906 64.199219 46.851562 64.199219 48.949219 C 64.199219 51.046875 63.382812 53.023438 61.902344 54.507812 C 61.828125 54.582031 61.730469 54.617188 61.632812 54.617188 Z M 56.890625 48.949219 L 61.625 53.6875 C 62.796875 52.382812 63.4375 50.714844 63.4375 48.949219 C 63.4375 47.183594 62.796875 45.515625 61.625 44.207031 Z M 56.890625 48.949219 "/><path style=" stroke:none;fill-rule:nonzero;fill:#366088;fill-opacity:1;" d="M 56.351562 49.332031 L 48.878906 49.332031 C 48.667969 49.332031 48.496094 49.160156 48.496094 48.949219 C 48.496094 46.847656 49.3125 44.875 50.796875 43.386719 C 52.28125 41.902344 54.253906 41.085938 56.351562 41.085938 C 58.453125 41.085938 60.421875 41.90625 61.902344 43.390625 C 62.050781 43.539062 62.050781 43.78125 61.902344 43.929688 L 56.621094 49.21875 C 56.546875 49.289062 56.453125 49.332031 56.351562 49.332031 Z M 49.269531 48.566406 L 56.191406 48.566406 L 61.085938 43.667969 C 59.785156 42.492188 58.117188 41.851562 56.351562 41.851562 C 52.570312 41.851562 49.46875 44.828125 49.269531 48.566406 Z M 49.269531 48.566406 "/><path style=" stroke:none;fill-rule:nonzero;fill:#d0fdff;fill-opacity:1;" d="M 23.425781 47.609375 C 23.425781 49.21875 22.128906 50.519531 20.523438 50.519531 L 20.523438 53.910156 L 16.410156 53.910156 C 16.410156 52.304688 15.113281 51.003906 13.507812 51.003906 C 11.902344 51.003906 10.605469 52.304688 10.605469 53.910156 L 6.976562 53.910156 L 6.976562 43.007812 C 6.976562 42.472656 7.40625 42.039062 7.941406 42.039062 L 20.523438 42.039062 L 20.523438 44.703125 C 22.128906 44.703125 23.425781 46.003906 23.425781 47.609375 Z M 23.425781 47.609375 "/><path style=" stroke:none;fill-rule:nonzero;fill:#366088;fill-opacity:1;" d="M 20.523438 54.292969 L 16.410156 54.292969 C 16.199219 54.292969 16.027344 54.121094 16.027344 53.910156 C 16.027344 52.515625 14.898438 51.386719 13.507812 51.386719 C 12.117188 51.386719 10.984375 52.515625 10.984375 53.910156 C 10.984375 54.121094 10.816406 54.292969 10.605469 54.292969 L 6.976562 54.292969 C 6.765625 54.292969 6.59375 54.121094 6.59375 53.910156 L 6.59375 43.007812 C 6.59375 42.261719 7.199219 41.65625 7.941406 41.65625 L 20.523438 41.65625 C 20.734375 41.65625 20.90625 41.828125 20.90625 42.039062 L 20.90625 44.34375 C 22.539062 44.535156 23.808594 45.925781 23.808594 47.609375 C 23.808594 49.296875 22.539062 50.6875 20.90625 50.878906 L 20.90625 53.910156 C 20.90625 54.121094 20.734375 54.292969 20.523438 54.292969 Z M 16.769531 53.527344 L 20.140625 53.527344 L 20.140625 50.519531 C 20.140625 50.308594 20.3125 50.136719 20.523438 50.136719 C 21.914062 50.136719 23.046875 49.003906 23.046875 47.609375 C 23.046875 46.21875 21.914062 45.085938 20.523438 45.085938 C 20.3125 45.085938 20.140625 44.914062 20.140625 44.703125 L 20.140625 42.421875 L 7.941406 42.421875 C 7.621094 42.421875 7.355469 42.683594 7.355469 43.007812 L 7.355469 53.527344 L 10.246094 53.527344 C 10.433594 51.894531 11.824219 50.621094 13.507812 50.621094 C 15.191406 50.621094 16.582031 51.894531 16.769531 53.527344 Z M 16.769531 53.527344 "/><path style=" stroke:none;fill-rule:nonzero;fill:#ffffff;fill-opacity:1;" d="M 17.621094 60.207031 C 17.621094 61.8125 18.921875 63.113281 20.523438 63.113281 L 20.523438 66.023438 L 7.941406 66.023438 C 7.40625 66.023438 6.976562 65.589844 6.976562 65.054688 L 6.976562 53.910156 L 10.605469 53.910156 C 10.605469 52.304688 11.902344 51.003906 13.507812 51.003906 C 15.113281 51.003906 16.410156 52.304688 16.410156 53.910156 L 20.523438 53.910156 L 20.523438 57.300781 C 18.921875 57.300781 17.621094 58.601562 17.621094 60.207031 Z M 17.621094 60.207031 "/><path style=" stroke:none;fill-rule:nonzero;fill:#366088;fill-opacity:1;" d="M 20.523438 66.40625 L 7.941406 66.40625 C 7.199219 66.40625 6.59375 65.796875 6.59375 65.054688 L 6.59375 53.910156 C 6.59375 53.699219 6.765625 53.527344 6.976562 53.527344 L 10.246094 53.527344 C 10.433594 51.894531 11.824219 50.621094 13.507812 50.621094 C 15.191406 50.621094 16.582031 51.894531 16.769531 53.527344 L 20.523438 53.527344 C 20.734375 53.527344 20.90625 53.699219 20.90625 53.910156 L 20.90625 57.300781 C 20.90625 57.511719 20.734375 57.683594 20.523438 57.683594 C 19.132812 57.683594 18.003906 58.816406 18.003906 60.207031 C 18.003906 61.601562 19.132812 62.734375 20.523438 62.734375 C 20.734375 62.734375 20.90625 62.902344 20.90625 63.117188 L 20.90625 66.023438 C 20.90625 66.234375 20.734375 66.40625 20.523438 66.40625 Z M 7.355469 54.292969 L 7.355469 65.054688 C 7.355469 65.375 7.621094 65.640625 7.941406 65.640625 L 20.140625 65.640625 L 20.140625 63.476562 C 18.511719 63.285156 17.238281 61.894531 17.238281 60.207031 C 17.238281 58.523438 18.511719 57.132812 20.140625 56.941406 L 20.140625 54.292969 L 16.410156 54.292969 C 16.199219 54.292969 16.027344 54.121094 16.027344 53.910156 C 16.027344 52.515625 14.898438 51.386719 13.507812 51.386719 C 12.117188 51.386719 10.984375 52.515625 10.984375 53.910156 C 10.984375 54.121094 10.816406 54.292969 10.605469 54.292969 Z M 7.355469 54.292969 "/><path style=" stroke:none;fill-rule:nonzero;fill:#d0fdff;fill-opacity:1;" d="M 34.316406 53.910156 L 34.316406 65.054688 C 34.316406 65.589844 33.882812 66.023438 33.347656 66.023438 L 20.523438 66.023438 L 20.523438 63.113281 C 18.921875 63.113281 17.621094 61.8125 17.621094 60.207031 C 17.621094 58.601562 18.921875 57.300781 20.523438 57.300781 L 20.523438 53.910156 L 25.121094 53.910156 C 25.121094 55.515625 26.421875 56.816406 28.023438 56.816406 C 29.628906 56.816406 30.929688 55.515625 30.929688 53.910156 Z M 34.316406 53.910156 "/><path style=" stroke:none;fill-rule:nonzero;fill:#366088;fill-opacity:1;" d="M 33.347656 66.40625 L 20.523438 66.40625 C 20.3125 66.40625 20.140625 66.234375 20.140625 66.023438 L 20.140625 63.476562 C 18.511719 63.285156 17.238281 61.894531 17.238281 60.207031 C 17.238281 58.523438 18.511719 57.132812 20.140625 56.941406 L 20.140625 53.910156 C 20.140625 53.699219 20.3125 53.527344 20.523438 53.527344 L 25.121094 53.527344 C 25.332031 53.527344 25.503906 53.699219 25.503906 53.910156 C 25.503906 55.300781 26.632812 56.433594 28.023438 56.433594 C 29.414062 56.433594 30.546875 55.300781 30.546875 53.910156 C 30.546875 53.699219 30.71875 53.527344 30.929688 53.527344 L 34.316406 53.527344 C 34.527344 53.527344 34.695312 53.699219 34.695312 53.910156 L 34.695312 65.054688 C 34.695312 65.796875 34.089844 66.40625 33.347656 66.40625 Z M 20.90625 65.640625 L 33.347656 65.640625 C 33.671875 65.640625 33.933594 65.375 33.933594 65.054688 L 33.933594 54.292969 L 31.289062 54.292969 C 31.097656 55.925781 29.707031 57.199219 28.023438 57.199219 C 26.34375 57.199219 24.953125 55.925781 24.761719 54.292969 L 20.90625 54.292969 L 20.90625 57.300781 C 20.90625 57.511719 20.734375 57.683594 20.523438 57.683594 C 19.132812 57.683594 18.003906 58.816406 18.003906 60.207031 C 18.003906 61.601562 19.132812 62.734375 20.523438 62.734375 C 20.734375 62.734375 20.90625 62.902344 20.90625 63.117188 Z M 20.90625 65.640625 "/><path style=" stroke:none;fill-rule:nonzero;fill:#d0fdff;fill-opacity:1;" d="M 34.316406 43.007812 L 34.316406 53.910156 L 30.929688 53.910156 C 30.929688 55.515625 29.628906 56.816406 28.023438 56.816406 C 26.421875 56.816406 25.121094 55.515625 25.121094 53.910156 L 20.523438 53.910156 L 20.523438 50.519531 C 22.128906 50.519531 23.425781 49.21875 23.425781 47.609375 C 23.425781 46.003906 22.128906 44.703125 20.523438 44.703125 L 20.523438 42.039062 L 33.347656 42.039062 C 33.882812 42.039062 34.316406 42.472656 34.316406 43.007812 Z M 34.316406 43.007812 "/><path style=" stroke:none;fill-rule:nonzero;fill:#366088;fill-opacity:1;" d="M 28.023438 57.199219 C 26.34375 57.199219 24.953125 55.925781 24.761719 54.292969 L 20.523438 54.292969 C 20.3125 54.292969 20.140625 54.121094 20.140625 53.910156 L 20.140625 50.519531 C 20.140625 50.308594 20.3125 50.136719 20.523438 50.136719 C 21.914062 50.136719 23.046875 49.003906 23.046875 47.609375 C 23.046875 46.21875 21.914062 45.085938 20.523438 45.085938 C 20.3125 45.085938 20.140625 44.914062 20.140625 44.703125 L 20.140625 42.039062 C 20.140625 41.828125 20.3125 41.65625 20.523438 41.65625 L 33.347656 41.65625 C 34.089844 41.65625 34.695312 42.261719 34.695312 43.007812 L 34.695312 53.910156 C 34.695312 54.121094 34.527344 54.292969 34.316406 54.292969 L 31.289062 54.292969 C 31.097656 55.925781 29.707031 57.199219 28.023438 57.199219 Z M 20.90625 53.527344 L 25.121094 53.527344 C 25.332031 53.527344 25.503906 53.699219 25.503906 53.910156 C 25.503906 55.300781 26.632812 56.433594 28.023438 56.433594 C 29.414062 56.433594 30.546875 55.300781 30.546875 53.910156 C 30.546875 53.699219 30.71875 53.527344 30.929688 53.527344 L 33.933594 53.527344 L 33.933594 43.007812 C 33.933594 42.683594 33.671875 42.421875 33.347656 42.421875 L 20.90625 42.421875 L 20.90625 44.34375 C 22.539062 44.535156 23.808594 45.925781 23.808594 47.609375 C 23.808594 49.296875 22.539062 50.6875 20.90625 50.878906 Z M 20.90625 53.527344 "/><path style=" stroke:none;fill-rule:nonzero;fill:#d0fdff;fill-opacity:1;" d="M 24.636719 25.550781 L 19.320312 30.871094 Z M 24.636719 25.550781 "/><path style=" stroke:none;fill-rule:nonzero;fill:#366088;fill-opacity:1;" d="M 19.320312 31.261719 C 19.222656 31.261719 19.121094 31.226562 19.042969 31.148438 C 18.890625 30.996094 18.890625 30.746094 19.042969 30.59375 L 24.359375 25.273438 C 24.511719 25.117188 24.761719 25.117188 24.914062 25.273438 C 25.066406 25.425781 25.066406 25.675781 24.914062 25.828125 L 19.597656 31.148438 C 19.523438 31.226562 19.421875 31.261719 19.320312 31.261719 Z M 19.320312 31.261719 "/><path style=" stroke:none;fill-rule:nonzero;fill:#d0fdff;fill-opacity:1;" d="M 48.828125 25.550781 L 54.140625 30.871094 Z M 48.828125 25.550781 "/><path style=" stroke:none;fill-rule:nonzero;fill:#366088;fill-opacity:1;" d="M 54.140625 31.261719 C 54.042969 31.261719 53.941406 31.226562 53.863281 31.148438 L 48.550781 25.828125 C 48.398438 25.675781 48.398438 25.425781 48.550781 25.273438 C 48.703125 25.117188 48.953125 25.117188 49.105469 25.273438 L 54.417969 30.59375 C 54.570312 30.746094 54.570312 30.996094 54.417969 31.148438 C 54.34375 31.226562 54.242188 31.261719 54.140625 31.261719 Z M 54.140625 31.261719 "/><path style=" stroke:none;fill-rule:nonzero;fill:#ffffff;fill-opacity:1;" d="M 20.046875 10.761719 C 20.046875 11.261719 19.949219 11.738281 19.761719 12.199219 C 19.570312 12.660156 19.296875 13.066406 18.945312 13.417969 C 18.59375 13.769531 18.1875 14.042969 17.730469 14.234375 C 17.269531 14.425781 16.789062 14.519531 16.292969 14.519531 C 15.796875 14.519531 15.316406 14.425781 14.855469 14.234375 C 14.398438 14.042969 13.992188 13.769531 13.640625 13.417969 C 13.289062 13.066406 13.015625 12.660156 12.824219 12.199219 C 12.636719 11.738281 12.539062 11.261719 12.539062 10.761719 C 12.539062 10.261719 12.636719 9.785156 12.824219 9.324219 C 13.015625 8.863281 13.289062 8.457031 13.640625 8.105469 C 13.992188 7.753906 14.398438 7.480469 14.855469 7.289062 C 15.316406 7.101562 15.796875 7.003906 16.292969 7.003906 C 16.789062 7.003906 17.269531 7.101562 17.730469 7.289062 C 18.1875 7.480469 18.59375 7.753906 18.945312 8.105469 C 19.296875 8.457031 19.570312 8.863281 19.761719 9.324219 C 19.949219 9.785156 20.046875 10.261719 20.046875 10.761719 Z M 20.046875 10.761719 "/><path style=" stroke:none;fill-rule:nonzero;fill:#366088;fill-opacity:1;" d="M 16.292969 14.910156 C 14.007812 14.910156 12.148438 13.050781 12.148438 10.761719 C 12.148438 8.472656 14.007812 6.613281 16.292969 6.613281 C 18.578125 6.613281 20.4375 8.472656 20.4375 10.761719 C 20.4375 13.050781 18.578125 14.910156 16.292969 14.910156 Z M 16.292969 7.398438 C 14.441406 7.398438 12.933594 8.90625 12.933594 10.761719 C 12.933594 12.617188 14.441406 14.125 16.292969 14.125 C 18.144531 14.125 19.652344 12.617188 19.652344 10.761719 C 19.652344 8.90625 18.144531 7.398438 16.292969 7.398438 Z M 16.292969 7.398438 "/><path style=" stroke:none;fill-rule:nonzero;fill:#ffffff;fill-opacity:1;" d="M 56.460938 25.285156 C 56.292969 25.285156 56.125 25.265625 55.957031 25.222656 L 44.707031 22.5 L 35.242188 23.503906 C 34.070312 23.625 33.019531 22.773438 32.894531 21.601562 C 32.769531 20.425781 33.621094 19.375 34.792969 19.25 L 44.625 18.210938 C 44.867188 18.183594 45.113281 18.199219 45.351562 18.257812 L 56.960938 21.066406 C 58.105469 21.34375 58.8125 22.5 58.535156 23.648438 C 58.296875 24.628906 57.421875 25.285156 56.460938 25.285156 Z M 56.460938 25.285156 "/><path style=" stroke:none;fill-rule:nonzero;fill:#366088;fill-opacity:1;" d="M 56.460938 25.675781 C 56.261719 25.675781 56.0625 25.652344 55.863281 25.605469 L 44.679688 22.898438 L 35.285156 23.894531 C 34.613281 23.964844 33.953125 23.769531 33.429688 23.34375 C 32.902344 22.917969 32.574219 22.3125 32.503906 21.640625 C 32.433594 20.96875 32.628906 20.308594 33.054688 19.785156 C 33.476562 19.257812 34.082031 18.929688 34.753906 18.859375 L 44.585938 17.820312 C 44.871094 17.789062 45.160156 17.808594 45.445312 17.875 L 57.050781 20.6875 C 58.40625 21.015625 59.242188 22.382812 58.914062 23.742188 C 58.640625 24.882812 57.628906 25.675781 56.460938 25.675781 Z M 44.707031 22.109375 C 44.738281 22.109375 44.769531 22.113281 44.800781 22.121094 L 56.050781 24.84375 C 56.183594 24.875 56.324219 24.890625 56.460938 24.890625 C 57.265625 24.890625 57.964844 24.34375 58.152344 23.554688 C 58.378906 22.621094 57.804688 21.675781 56.867188 21.449219 L 45.257812 18.640625 C 45.066406 18.59375 44.867188 18.578125 44.667969 18.601562 L 34.835938 19.640625 C 34.371094 19.6875 33.957031 19.914062 33.664062 20.277344 C 33.371094 20.640625 33.234375 21.097656 33.285156 21.558594 C 33.332031 22.023438 33.558594 22.441406 33.921875 22.734375 C 34.285156 23.027344 34.738281 23.160156 35.203125 23.113281 L 44.664062 22.109375 C 44.679688 22.109375 44.691406 22.109375 44.707031 22.109375 Z M 44.707031 22.109375 "/><path style=" stroke:none;fill-rule:nonzero;fill:#ffffff;fill-opacity:1;" d="M 53.484375 23.820312 C 53.074219 24.199219 52.558594 24.382812 52.039062 24.382812 C 51.464844 24.382812 50.890625 24.152344 50.46875 23.695312 L 44.535156 17.238281 L 36.554688 22.914062 C 35.914062 24.4375 34.414062 25.453125 32.734375 25.453125 C 32.554688 25.453125 32.367188 25.441406 32.179688 25.417969 L 24.40625 24.378906 L 18.882812 21.714844 C 16.820312 20.71875 15.953125 18.234375 16.945312 16.167969 C 17.941406 14.097656 20.425781 13.230469 22.488281 14.226562 L 26.820312 16.3125 L 33.28125 17.175781 C 34.203125 17.300781 35.015625 17.71875 35.636719 18.324219 L 43.597656 12.664062 C 44.472656 12.039062 45.675781 12.164062 46.402344 12.960938 L 53.609375 20.800781 C 54.410156 21.667969 54.355469 23.019531 53.484375 23.820312 Z M 53.484375 23.820312 "/><path style=" stroke:none;fill-rule:nonzero;fill:#366088;fill-opacity:1;" d="M 32.734375 25.847656 C 32.53125 25.847656 32.324219 25.832031 32.125 25.804688 L 24.355469 24.769531 C 24.316406 24.761719 24.273438 24.75 24.238281 24.734375 L 18.714844 22.070312 C 16.457031 20.980469 15.507812 18.257812 16.59375 15.996094 C 17.679688 13.738281 20.402344 12.785156 22.660156 13.871094 L 26.933594 15.933594 L 33.332031 16.785156 C 34.203125 16.902344 35.003906 17.257812 35.667969 17.824219 L 43.367188 12.34375 C 44.402344 11.605469 45.832031 11.757812 46.691406 12.695312 L 53.898438 20.53125 C 54.84375 21.5625 54.773438 23.164062 53.75 24.109375 C 53.285156 24.539062 52.675781 24.777344 52.039062 24.777344 C 51.335938 24.777344 50.65625 24.480469 50.179688 23.960938 L 44.480469 17.761719 L 36.871094 23.171875 C 36.523438 23.949219 35.964844 24.605469 35.253906 25.082031 C 34.503906 25.582031 33.632812 25.847656 32.734375 25.847656 Z M 24.523438 24 L 32.234375 25.027344 C 32.398438 25.050781 32.566406 25.0625 32.734375 25.0625 C 34.25 25.0625 35.605469 24.160156 36.195312 22.761719 C 36.222656 22.695312 36.269531 22.636719 36.328125 22.59375 L 44.308594 16.921875 C 44.46875 16.804688 44.691406 16.828125 44.824219 16.972656 L 50.753906 23.429688 C 51.089844 23.792969 51.546875 23.992188 52.039062 23.992188 C 52.480469 23.992188 52.898438 23.828125 53.21875 23.53125 C 53.925781 22.878906 53.972656 21.773438 53.320312 21.0625 L 46.113281 13.226562 C 45.519531 12.578125 44.535156 12.476562 43.824219 12.980469 L 35.863281 18.644531 C 35.707031 18.753906 35.496094 18.738281 35.359375 18.605469 C 34.777344 18.035156 34.039062 17.671875 33.226562 17.566406 L 26.765625 16.703125 C 26.726562 16.695312 26.6875 16.683594 26.648438 16.667969 L 22.320312 14.578125 C 20.449219 13.679688 18.199219 14.46875 17.300781 16.335938 C 16.398438 18.207031 17.1875 20.460938 19.054688 21.363281 Z M 53.484375 23.820312 Z M 53.484375 23.820312 "/><path style=" stroke:none;fill-rule:nonzero;fill:#d0fdff;fill-opacity:1;" d="M 20.410156 25.507812 L 15.539062 20.851562 L 14.792969 20.101562 L 8.597656 13.878906 C 8.136719 13.210938 10.140625 12.910156 10.765625 12.910156 C 12.15625 12.910156 13.78125 13.703125 15.109375 15.03125 L 22.113281 21.957031 L 50.988281 22.738281 C 53.808594 22.738281 56.058594 23.792969 56.347656 25.507812 Z M 20.410156 25.507812 "/><path style=" stroke:none;fill-rule:nonzero;fill:#366088;fill-opacity:1;" d="M 56.347656 25.898438 L 20.410156 25.898438 C 20.308594 25.898438 20.210938 25.859375 20.136719 25.789062 L 15.265625 21.132812 C 15.265625 21.132812 15.261719 21.128906 15.261719 21.125 L 8.320312 14.15625 C 8.304688 14.140625 8.289062 14.121094 8.277344 14.101562 C 8.117188 13.871094 8.09375 13.609375 8.214844 13.378906 C 8.378906 13.070312 8.773438 12.847656 9.46875 12.683594 C 9.960938 12.570312 10.488281 12.515625 10.765625 12.515625 C 12.257812 12.515625 13.988281 13.351562 15.386719 14.753906 L 22.277344 21.570312 L 50.992188 22.34375 C 52.460938 22.34375 53.773438 22.617188 54.792969 23.128906 C 55.902344 23.6875 56.574219 24.484375 56.734375 25.441406 C 56.753906 25.554688 56.722656 25.671875 56.648438 25.757812 C 56.574219 25.847656 56.464844 25.898438 56.347656 25.898438 Z M 20.566406 25.113281 L 55.820312 25.113281 C 55.535156 24.492188 54.941406 24.082031 54.441406 23.832031 C 53.542969 23.378906 52.316406 23.128906 50.988281 23.128906 C 50.984375 23.128906 50.980469 23.128906 50.976562 23.128906 L 22.101562 22.351562 C 22.003906 22.347656 21.910156 22.308594 21.835938 22.238281 L 14.835938 15.3125 C 13.574219 14.050781 12.054688 13.300781 10.765625 13.300781 C 10.535156 13.300781 10.089844 13.347656 9.6875 13.441406 C 9.28125 13.53125 9.066406 13.632812 8.96875 13.695312 L 15.8125 20.570312 Z M 20.566406 25.113281 "/><path style=" stroke:none;fill-rule:nonzero;fill:#ffffff;fill-opacity:1;" d="M 24.554688 19.742188 L 26.59375 23.957031 L 30.464844 26.101562 C 31.4375 26.644531 31.792969 27.871094 31.253906 28.847656 C 30.882812 29.511719 30.195312 29.890625 29.484375 29.890625 C 29.15625 29.890625 28.820312 29.808594 28.511719 29.636719 L 24.082031 27.179688 C 23.71875 26.980469 23.425781 26.671875 23.242188 26.296875 L 19.109375 17.023438 Z M 24.554688 19.742188 "/><path style=" stroke:none;fill-rule:nonzero;fill:#366088;fill-opacity:1;" d="M 29.484375 30.28125 C 29.082031 30.28125 28.675781 30.175781 28.320312 29.980469 L 23.890625 27.523438 C 23.453125 27.28125 23.109375 26.917969 22.890625 26.464844 C 22.890625 26.460938 22.886719 26.457031 22.886719 26.457031 L 18.75 17.183594 C 18.664062 16.984375 18.753906 16.75 18.949219 16.664062 C 19.148438 16.574219 19.378906 16.664062 19.46875 16.863281 L 23.597656 26.128906 C 23.746094 26.429688 23.976562 26.675781 24.273438 26.839844 L 28.699219 29.292969 C 28.941406 29.425781 29.210938 29.496094 29.484375 29.496094 C 30.078125 29.496094 30.621094 29.175781 30.910156 28.65625 C 31.34375 27.871094 31.058594 26.878906 30.273438 26.445312 L 26.40625 24.300781 C 26.335938 24.261719 26.277344 24.203125 26.242188 24.128906 L 24.203125 19.914062 C 24.109375 19.71875 24.191406 19.484375 24.382812 19.390625 C 24.578125 19.292969 24.8125 19.375 24.90625 19.570312 L 26.894531 23.675781 L 30.652344 25.757812 C 31.816406 26.402344 32.238281 27.875 31.59375 29.039062 C 31.171875 29.804688 30.363281 30.28125 29.484375 30.28125 Z M 29.484375 30.28125 "/></g></svg>