<svg xmlns="http://www.w3.org/2000/svg" xmlns:xlink="http://www.w3.org/1999/xlink" width="100" zoomAndPan="magnify" viewBox="0 0 75 74.999997" height="100" preserveAspectRatio="xMidYMid meet" version="1.2"><defs><clipPath id="786dc1cc1e"><path d="M 0 0.84375 L 75 0.84375 L 75 75 L 0 75 Z M 0 0.84375 "/></clipPath></defs><g id="9505afaed9"><g clip-rule="nonzero" clip-path="url(#786dc1cc1e)"><path style=" stroke:none;fill-rule:nonzero;fill:#000000;fill-opacity:1;" d="M 71.847656 29.457031 C 72.984375 27.792969 73.601562 25.820312 73.601562 23.785156 C 73.601562 19.871094 71.394531 16.394531 67.902344 14.742188 C 68.023438 14.074219 68.082031 13.398438 68.082031 12.714844 C 68.082031 6.167969 62.753906 0.835938 56.207031 0.835938 C 55.964844 0.835938 55.71875 0.835938 55.472656 0.859375 C 55.324219 0.84375 55.1875 0.835938 55.042969 0.835938 L 48.75 0.835938 C 47.265625 0.835938 45.96875 1.578125 45.167969 2.699219 C 44.367188 1.578125 43.070312 0.835938 41.585938 0.835938 L 35.292969 0.835938 C 35.132812 0.835938 34.980469 0.851562 34.894531 0.859375 C 34.644531 0.84375 34.390625 0.835938 34.128906 0.835938 C 27.582031 0.835938 22.253906 6.167969 22.253906 12.714844 C 22.253906 13.390625 22.316406 14.066406 22.433594 14.742188 C 18.945312 16.394531 16.734375 19.863281 16.734375 23.785156 C 16.734375 25.820312 17.351562 27.792969 18.488281 29.457031 C 18.320312 29.605469 18.167969 29.765625 18.007812 29.9375 C 13.464844 33.5625 10.558594 39.140625 10.558594 45.394531 C 10.558594 49.816406 12.015625 53.898438 14.46875 57.199219 L 10.863281 60.800781 C 10.085938 60.050781 8.839844 60.050781 8.082031 60.824219 L 2.089844 66.824219 C 0.203125 68.714844 0.203125 71.785156 2.089844 73.675781 C 3.027344 74.613281 4.273438 75.09375 5.511719 75.09375 C 6.75 75.09375 7.988281 74.613281 8.933594 73.675781 L 12.734375 69.878906 C 12.734375 69.878906 12.75 69.878906 12.757812 69.863281 C 12.757812 69.863281 12.757812 69.835938 12.777344 69.835938 L 14.925781 67.675781 C 15.699219 66.910156 15.699219 65.660156 14.949219 64.894531 L 18.546875 61.28125 C 21.84375 63.738281 25.921875 65.195312 30.335938 65.195312 C 36.632812 65.195312 42.246094 62.234375 45.867188 57.628906 C 47.148438 59.230469 49.113281 60.242188 51.304688 60.242188 C 54.917969 60.242188 57.894531 57.46875 58.230469 53.933594 C 58.769531 54.050781 59.324219 54.101562 59.890625 54.101562 C 64.40625 54.101562 68.082031 50.429688 68.082031 45.910156 C 68.082031 45.488281 68.046875 45.066406 67.980469 44.660156 C 71.941406 43.765625 74.832031 40.222656 74.832031 36.070312 C 74.832031 33.539062 73.726562 31.117188 71.847656 29.457031 Z M 18.378906 23.785156 C 18.378906 20.460938 20.402344 17.40625 23.425781 16.105469 L 25.558594 16.640625 C 26.265625 16.816406 27 16.898438 27.734375 16.898438 C 28.164062 16.898438 28.59375 16.875 29.015625 16.808594 L 29.476562 16.738281 C 30.488281 16.597656 31.457031 16.285156 32.335938 15.8125 C 34.164062 14.839844 35.496094 13.214844 36.007812 11.367188 L 36.195312 10.699219 C 36.320312 10.261719 36.058594 9.804688 35.621094 9.6875 C 35.183594 9.558594 34.726562 9.828125 34.617188 10.261719 L 34.433594 10.925781 C 34.046875 12.34375 33 13.59375 31.574219 14.359375 C 30.859375 14.742188 30.085938 14.992188 29.25 15.113281 L 28.796875 15.179688 C 27.859375 15.324219 26.882812 15.273438 25.980469 15.035156 L 24.09375 14.5625 C 23.984375 13.957031 23.90625 13.339844 23.90625 12.722656 C 23.90625 7.078125 28.5 2.496094 34.128906 2.496094 C 34.355469 2.496094 34.59375 2.496094 34.886719 2.523438 C 34.914062 2.523438 34.957031 2.523438 34.972656 2.523438 C 35.082031 2.523438 35.183594 2.507812 35.292969 2.507812 L 41.585938 2.507812 C 43.113281 2.507812 44.351562 3.746094 44.351562 5.273438 L 44.351562 8.503906 C 43.585938 8.429688 42.554688 8.472656 41.519531 8.960938 C 39.902344 9.726562 39.328125 11.070312 39.09375 11.652344 C 38.511719 13.035156 38.644531 14.292969 38.875 15.113281 C 38.976562 15.472656 39.3125 15.710938 39.675781 15.710938 C 39.742188 15.710938 39.816406 15.710938 39.886719 15.683594 C 40.324219 15.558594 40.585938 15.113281 40.457031 14.671875 C 40.296875 14.117188 40.203125 13.246094 40.609375 12.292969 C 40.820312 11.789062 41.175781 10.953125 42.226562 10.453125 C 43.019531 10.082031 43.8125 10.089844 44.359375 10.167969 L 44.359375 31.453125 C 41.789062 28.863281 38.511719 26.992188 34.84375 26.132812 C 34.9375 25.953125 35.023438 25.785156 35.089844 25.582031 C 35.503906 24.484375 35.425781 23.320312 34.886719 22.125 C 34.523438 21.339844 34.019531 20.6875 33.394531 20.175781 C 33.605469 19.851562 34.179688 19.152344 35.164062 18.992188 C 36.195312 18.832031 37.003906 19.371094 37.347656 19.59375 C 38.234375 20.175781 38.546875 20.957031 38.65625 21.378906 C 38.753906 21.75 39.085938 21.988281 39.453125 21.988281 C 39.523438 21.988281 39.597656 21.988281 39.65625 21.960938 C 40.105469 21.84375 40.355469 21.398438 40.238281 20.957031 C 40.070312 20.308594 39.582031 19.09375 38.242188 18.207031 C 37.777344 17.90625 36.554688 17.101562 34.90625 17.355469 C 33.210938 17.609375 32.300781 18.78125 31.957031 19.332031 C 31.871094 19.304688 31.796875 19.269531 31.71875 19.238281 C 29.804688 18.585938 28.105469 19.144531 27.457031 19.421875 C 25.667969 20.183594 24.886719 21.558594 24.640625 22.113281 C 24.457031 22.527344 24.640625 23.027344 25.054688 23.203125 C 25.464844 23.390625 25.957031 23.203125 26.140625 22.789062 C 26.316406 22.417969 26.847656 21.480469 28.105469 20.949219 C 28.574219 20.757812 29.816406 20.34375 31.195312 20.808594 C 31.886719 21.035156 32.824219 21.574219 33.378906 22.796875 C 33.605469 23.304688 33.886719 24.089844 33.539062 25 C 33.429688 25.304688 33.269531 25.558594 33.074219 25.785156 C 32.183594 25.660156 31.273438 25.597656 30.34375 25.597656 C 30.226562 25.597656 30.117188 25.597656 30 25.597656 C 30.21875 25.269531 30.429688 24.933594 30.597656 24.570312 L 31.09375 23.539062 C 31.289062 23.128906 31.128906 22.628906 30.714844 22.433594 C 30.304688 22.242188 29.804688 22.410156 29.613281 22.824219 L 29.117188 23.851562 C 28.769531 24.5625 28.296875 25.195312 27.742188 25.769531 C 24.902344 26.148438 22.246094 27.125 19.90625 28.585938 C 18.925781 27.1875 18.386719 25.507812 18.386719 23.785156 Z M 7.769531 72.511719 C 6.523438 73.761719 4.5 73.761719 3.253906 72.511719 C 2.007812 71.261719 2.007812 69.238281 3.253906 67.988281 L 6.488281 64.757812 L 10.996094 69.273438 Z M 13.761719 66.511719 L 12.160156 68.109375 L 7.652344 63.59375 L 9.246094 61.992188 C 9.378906 61.855469 9.597656 61.855469 9.726562 61.992188 L 13.761719 66.03125 C 13.894531 66.167969 13.894531 66.378906 13.761719 66.511719 Z M 13.777344 63.71875 L 12.042969 61.980469 L 15.53125 58.488281 C 16.078125 59.105469 16.652344 59.6875 17.265625 60.226562 Z M 30.335938 63.542969 C 20.34375 63.542969 12.210938 55.402344 12.210938 45.394531 C 12.210938 35.386719 20.34375 27.246094 30.335938 27.246094 C 40.332031 27.246094 48.464844 35.386719 48.464844 45.394531 C 48.464844 55.402344 40.332031 63.542969 30.335938 63.542969 Z M 66.992188 43.167969 L 65.578125 42.9375 C 64.421875 42.753906 63.402344 42.164062 62.789062 41.308594 C 62.535156 40.957031 62.351562 40.585938 62.242188 40.1875 L 61.390625 36.929688 C 61.273438 36.484375 60.832031 36.222656 60.386719 36.339844 C 59.949219 36.457031 59.6875 36.90625 59.804688 37.34375 L 60.65625 40.601562 C 60.816406 41.199219 61.085938 41.765625 61.457031 42.28125 C 62.34375 43.476562 63.75 44.3125 65.324219 44.566406 L 66.320312 44.726562 C 66.394531 45.105469 66.445312 45.496094 66.445312 45.910156 C 66.445312 49.511719 63.511719 52.449219 59.90625 52.449219 C 59.148438 52.449219 58.414062 52.320312 57.734375 52.078125 L 56.855469 51.664062 C 56.03125 51.273438 55.296875 50.734375 54.734375 50.078125 C 54.066406 49.292969 53.636719 48.371094 53.492188 47.394531 L 53.285156 45.875 C 53.214844 45.425781 52.792969 45.117188 52.355469 45.175781 C 51.902344 45.242188 51.589844 45.664062 51.65625 46.101562 L 51.867188 47.628906 C 52.054688 48.914062 52.609375 50.117188 53.492188 51.148438 C 54.21875 51.992188 55.121094 52.667969 56.164062 53.15625 L 56.636719 53.375 C 56.578125 56.261719 54.226562 58.589844 51.328125 58.589844 C 49.492188 58.589844 47.855469 57.660156 46.90625 56.203125 C 48.945312 53.089844 50.132812 49.375 50.132812 45.386719 C 50.132812 40.835938 48.589844 36.660156 46.011719 33.3125 L 46.011719 10.148438 C 46.566406 10.074219 47.351562 10.066406 48.144531 10.4375 C 49.1875 10.933594 49.542969 11.769531 49.761719 12.277344 C 50.164062 13.222656 50.0625 14.089844 49.914062 14.65625 C 49.785156 15.09375 50.054688 15.550781 50.484375 15.667969 C 50.5625 15.683594 50.636719 15.695312 50.695312 15.695312 C 51.058594 15.695312 51.394531 15.457031 51.496094 15.09375 C 51.714844 14.277344 51.859375 13.027344 51.277344 11.636719 C 51.042969 11.0625 50.460938 9.710938 48.851562 8.945312 C 47.8125 8.453125 46.785156 8.414062 46.019531 8.488281 L 46.019531 5.257812 C 46.019531 3.730469 47.257812 2.488281 48.785156 2.488281 L 55.078125 2.488281 C 55.1875 2.488281 55.289062 2.488281 55.40625 2.515625 L 55.558594 2.515625 C 55.777344 2.496094 56.015625 2.488281 56.242188 2.488281 C 61.878906 2.488281 66.464844 7.078125 66.464844 12.714844 C 66.464844 13.332031 66.386719 13.945312 66.277344 14.554688 L 64.390625 15.027344 C 63.480469 15.253906 62.511719 15.304688 61.574219 15.171875 L 61.121094 15.101562 C 60.285156 14.984375 59.511719 14.730469 58.792969 14.351562 C 57.371094 13.585938 56.324219 12.335938 55.9375 10.917969 L 55.753906 10.25 C 55.632812 9.8125 55.1875 9.550781 54.75 9.679688 C 54.304688 9.804688 54.050781 10.25 54.175781 10.691406 L 54.363281 11.355469 C 54.875 13.203125 56.207031 14.832031 58.035156 15.804688 C 58.921875 16.285156 59.882812 16.597656 60.894531 16.730469 L 61.355469 16.800781 C 61.777344 16.867188 62.207031 16.890625 62.636719 16.890625 C 63.371094 16.890625 64.101562 16.800781 64.8125 16.628906 L 66.945312 16.097656 C 69.976562 17.398438 71.992188 20.453125 71.992188 23.777344 C 71.992188 25.539062 71.425781 27.269531 70.382812 28.6875 L 67.296875 28.148438 C 66.589844 28.011719 65.90625 27.820312 65.257812 27.539062 C 63.464844 26.765625 62.046875 25.457031 61.261719 23.84375 L 60.765625 22.816406 C 60.574219 22.402344 60.074219 22.234375 59.664062 22.425781 C 59.25 22.621094 59.089844 23.117188 59.285156 23.53125 L 59.78125 24.5625 C 60.734375 26.535156 62.445312 28.121094 64.609375 29.058594 C 65.375 29.378906 66.183594 29.625 67.019531 29.777344 L 70.390625 30.359375 C 72.160156 31.707031 73.214844 33.824219 73.214844 36.0625 C 73.214844 39.648438 70.558594 42.675781 67.027344 43.15625 Z M 66.992188 43.167969 "/></g><path style=" stroke:none;fill-rule:nonzero;fill:#000000;fill-opacity:1;" d="M 63.859375 33.269531 C 63.035156 32.695312 62.046875 32.375 60.953125 32.316406 C 60.589844 32.296875 58.972656 32.28125 57.503906 33.191406 C 57.480469 33.191406 57.472656 33.167969 57.445312 33.167969 C 56.796875 32.992188 55.84375 32.609375 55.042969 31.835938 C 54.183594 31 53.738281 30.078125 53.730469 29.101562 C 53.730469 28.644531 53.359375 28.28125 52.902344 28.28125 C 52.449219 28.28125 52.085938 28.664062 52.085938 29.117188 C 52.105469 30.550781 52.710938 31.867188 53.898438 33.015625 C 54.625 33.726562 55.433594 34.171875 56.140625 34.457031 C 55.144531 35.867188 55.304688 37.429688 55.398438 38.332031 C 55.515625 39.480469 55.945312 40.617188 56.644531 41.628906 C 56.804688 41.859375 57.058594 41.984375 57.328125 41.984375 C 57.488281 41.984375 57.648438 41.933594 57.792969 41.839844 C 58.164062 41.578125 58.265625 41.066406 58.003906 40.695312 C 57.453125 39.902344 57.132812 39.046875 57.042969 38.164062 C 56.949219 37.25 56.824219 36.011719 57.808594 35.03125 C 58.972656 33.886719 60.785156 33.96875 60.867188 33.976562 C 61.660156 34.019531 62.351562 34.238281 62.921875 34.644531 C 64.003906 35.394531 64.195312 36.484375 64.230469 36.804688 C 64.28125 37.261719 64.683594 37.582031 65.132812 37.539062 C 65.585938 37.488281 65.914062 37.082031 65.863281 36.636719 C 65.796875 36.003906 65.46875 34.40625 63.859375 33.292969 Z M 63.859375 33.269531 "/><path style=" stroke:none;fill-rule:nonzero;fill:#000000;fill-opacity:1;" d="M 53.003906 19.59375 C 53.351562 19.363281 54.160156 18.832031 55.1875 18.992188 C 56.175781 19.144531 56.746094 19.84375 56.957031 20.164062 C 56.335938 20.671875 55.828125 21.328125 55.464844 22.105469 C 54.917969 23.304688 54.851562 24.46875 55.253906 25.566406 C 55.871094 27.210938 57.304688 28.019531 57.882812 28.289062 C 57.992188 28.339844 58.113281 28.367188 58.230469 28.367188 C 58.542969 28.367188 58.835938 28.191406 58.980469 27.886719 C 59.175781 27.472656 58.988281 26.984375 58.574219 26.789062 C 58.171875 26.601562 57.195312 26.054688 56.796875 24.984375 C 56.460938 24.070312 56.730469 23.289062 56.957031 22.78125 C 57.515625 21.558594 58.449219 21.027344 59.140625 20.789062 C 60.523438 20.324219 61.761719 20.730469 62.234375 20.933594 C 63.488281 21.464844 64.019531 22.402344 64.1875 22.78125 C 64.375 23.195312 64.863281 23.378906 65.273438 23.195312 C 65.6875 23.007812 65.875 22.519531 65.6875 22.105469 C 65.433594 21.550781 64.660156 20.175781 62.863281 19.421875 C 62.222656 19.152344 60.523438 18.597656 58.601562 19.238281 C 58.515625 19.261719 58.441406 19.296875 58.363281 19.332031 C 58.019531 18.78125 57.109375 17.609375 55.414062 17.347656 C 53.765625 17.09375 52.542969 17.894531 52.078125 18.199219 C 50.738281 19.085938 50.25 20.300781 50.082031 20.941406 C 49.964844 21.378906 50.222656 21.835938 50.671875 21.953125 C 50.738281 21.972656 50.8125 21.980469 50.882812 21.980469 C 51.246094 21.980469 51.582031 21.734375 51.675781 21.363281 C 51.785156 20.941406 52.105469 20.15625 52.988281 19.574219 Z M 53.003906 19.59375 "/><path style=" stroke:none;fill-rule:nonzero;fill:#000000;fill-opacity:1;" d="M 30.335938 29.71875 C 21.699219 29.71875 14.679688 36.746094 14.679688 45.394531 C 14.679688 54.042969 21.699219 61.070312 30.335938 61.070312 C 38.976562 61.070312 45.996094 54.042969 45.996094 45.394531 C 45.996094 36.746094 38.976562 29.71875 30.335938 29.71875 Z M 30.335938 59.417969 C 22.617188 59.417969 16.332031 53.121094 16.332031 45.394531 C 16.332031 37.664062 22.617188 31.371094 30.335938 31.371094 C 38.054688 31.371094 44.34375 37.664062 44.34375 45.394531 C 44.34375 53.121094 38.054688 59.417969 30.335938 59.417969 Z M 30.335938 59.417969 "/><path style=" stroke:none;fill-rule:nonzero;fill:#000000;fill-opacity:1;" d="M 30.335938 35.496094 C 30.792969 35.496094 31.164062 35.125 31.164062 34.667969 C 31.164062 34.214844 30.792969 33.84375 30.335938 33.84375 C 23.976562 33.84375 18.800781 39.023438 18.800781 45.394531 C 18.800781 45.847656 19.171875 46.21875 19.625 46.21875 C 20.082031 46.21875 20.453125 45.847656 20.453125 45.394531 C 20.453125 45.097656 20.46875 44.8125 20.496094 44.523438 C 20.90625 39.757812 24.707031 35.953125 29.46875 35.539062 C 29.753906 35.511719 30.042969 35.496094 30.335938 35.496094 Z M 30.335938 35.496094 "/><path style=" stroke:none;fill-rule:nonzero;fill:#000000;fill-opacity:1;" d="M 36.925781 41.269531 C 34.652344 41.269531 32.804688 43.117188 32.804688 45.394531 C 32.804688 47.671875 34.652344 49.519531 36.925781 49.519531 C 39.203125 49.519531 41.046875 47.671875 41.046875 45.394531 C 41.046875 43.117188 39.203125 41.269531 36.925781 41.269531 Z M 36.925781 47.867188 C 35.570312 47.867188 34.457031 46.753906 34.457031 45.394531 C 34.457031 44.035156 35.570312 42.921875 36.925781 42.921875 C 38.285156 42.921875 39.394531 44.035156 39.394531 45.394531 C 39.394531 46.753906 38.285156 47.867188 36.925781 47.867188 Z M 36.925781 47.867188 "/><path style=" stroke:none;fill-rule:nonzero;fill:#000000;fill-opacity:1;" d="M 29.511719 49.105469 C 27.917969 49.105469 26.628906 50.40625 26.628906 51.992188 C 26.628906 53.578125 27.925781 54.878906 29.511719 54.878906 C 31.09375 54.878906 32.394531 53.578125 32.394531 51.992188 C 32.394531 50.40625 31.09375 49.105469 29.511719 49.105469 Z M 29.511719 53.230469 C 28.828125 53.230469 28.273438 52.675781 28.273438 51.992188 C 28.273438 51.308594 28.828125 50.75 29.511719 50.75 C 30.195312 50.75 30.75 51.308594 30.75 51.992188 C 30.75 52.675781 30.195312 53.230469 29.511719 53.230469 Z M 29.511719 53.230469 "/></g></svg>