<svg xmlns="http://www.w3.org/2000/svg" xmlns:xlink="http://www.w3.org/1999/xlink" width="100" zoomAndPan="magnify" viewBox="0 0 75 74.999997" height="100" preserveAspectRatio="xMidYMid meet" version="1.2"><defs><clipPath id="bb40b3e4f5"><path d="M 63 17.660156 L 75 17.660156 L 75 41 L 63 41 Z M 63 17.660156 "/></clipPath><clipPath id="020cc85a87"><path d="M 29 49 L 37 49 L 37 57.410156 L 29 57.410156 Z M 29 49 "/></clipPath></defs><g id="8bdf0c4323"><path style=" stroke:none;fill-rule:nonzero;fill:#231f20;fill-opacity:1;" d="M 45.382812 53.398438 L 37.164062 48.199219 C 37.144531 48.1875 37.128906 48.167969 37.113281 48.152344 C 36.234375 47.472656 35.179688 47.144531 34.089844 47.277344 C 34.023438 47.28125 33.964844 47.296875 33.902344 47.308594 C 33.816406 46.160156 33.292969 45.050781 32.359375 44.285156 C 31.503906 43.585938 30.429688 43.273438 29.335938 43.410156 C 29.300781 43.414062 29.261719 43.421875 29.226562 43.429688 C 29.175781 42.226562 28.648438 41.054688 27.675781 40.257812 C 26.816406 39.554688 25.742188 39.246094 24.652344 39.378906 C 23.546875 39.519531 22.566406 40.097656 21.890625 41.011719 L 21.460938 41.597656 C 21.355469 41.742188 21.132812 41.722656 21.046875 41.558594 C 20.792969 41.0625 20.4375 40.609375 19.984375 40.242188 C 19.125 39.539062 18.050781 39.226562 16.960938 39.363281 C 15.855469 39.503906 14.875 40.082031 14.203125 40.996094 L 12.789062 42.910156 L 12.445312 42.957031 C 11.542969 42.265625 10.617188 41.566406 9.535156 41.089844 C 9.363281 41.015625 9.269531 40.824219 9.3125 40.640625 L 13.683594 22.6875 C 13.707031 22.585938 13.769531 22.5 13.859375 22.445312 C 13.949219 22.390625 14.054688 22.375 14.15625 22.398438 C 16.015625 22.855469 18.246094 23.113281 20.578125 23.113281 C 23.917969 23.113281 27.457031 22.585938 30.335938 21.351562 C 33.304688 20.078125 34.964844 19.445312 36.640625 19.355469 C 36.898438 19.339844 37 19.679688 36.777344 19.8125 C 34.164062 21.324219 31.296875 23.488281 30.246094 25.78125 C 30.242188 25.789062 30.234375 25.800781 30.230469 25.8125 C 30.230469 25.8125 30.226562 25.820312 30.226562 25.820312 C 30.222656 25.828125 30.21875 25.839844 30.214844 25.855469 C 30.207031 25.871094 30.199219 25.886719 30.191406 25.90625 L 27.632812 33.253906 C 27.390625 33.945312 27.4375 34.714844 27.765625 35.371094 C 28.082031 36.011719 28.628906 36.484375 29.296875 36.699219 C 30.789062 37.175781 33.644531 37.523438 36.042969 34.46875 C 36.050781 34.457031 36.0625 34.445312 36.070312 34.429688 C 37.113281 32.980469 37.863281 31.722656 38.316406 30.972656 C 38.378906 30.867188 38.4375 30.769531 38.488281 30.683594 C 38.53125 30.617188 38.597656 30.574219 38.675781 30.566406 L 41.394531 30.335938 C 41.484375 30.328125 41.578125 30.355469 41.660156 30.417969 L 57.050781 41.421875 L 57.707031 41.890625 C 60.210938 43.761719 57.128906 47.289062 54.613281 45.382812 C 54.40625 45.238281 53.523438 44.625 53.296875 44.464844 C 49.734375 41.980469 44.324219 38.195312 44.25 38.144531 C 43.761719 37.808594 43.09375 37.921875 42.753906 38.410156 C 42.414062 38.898438 42.527344 39.578125 43.019531 39.910156 C 43.09375 39.957031 48.292969 43.597656 51.863281 46.085938 C 52.085938 46.242188 52.304688 46.394531 52.515625 46.542969 C 54.320312 47.90625 51.957031 51.097656 49.789062 49.621094 L 49.136719 49.164062 L 40.640625 43.175781 C 40.15625 42.832031 39.488281 42.953125 39.144531 43.4375 C 38.804688 43.921875 38.917969 44.59375 39.40625 44.933594 L 47.703125 50.785156 C 49.492188 52.058594 47.410156 54.6875 45.386719 53.398438 Z M 45.382812 53.398438 "/><path style=" stroke:none;fill-rule:nonzero;fill:#231f20;fill-opacity:1;" d="M 41.589844 55.644531 C 41.863281 55.269531 41.96875 54.816406 41.886719 54.363281 C 41.800781 53.898438 41.53125 53.5 41.125 53.230469 L 38.425781 51.453125 C 38.433594 52.332031 38.175781 53.214844 37.625 53.960938 L 37 54.808594 L 39.222656 56.269531 C 40.042969 56.617188 41.0625 56.367188 41.589844 55.644531 Z M 41.589844 55.644531 "/><g clip-rule="nonzero" clip-path="url(#bb40b3e4f5)"><path style=" stroke:none;fill-rule:nonzero;fill:#231f20;fill-opacity:1;" d="M 69.867188 18.011719 L 74.921875 39.023438 C 74.964844 39.203125 74.851562 39.386719 74.671875 39.433594 L 69.351562 40.714844 C 68.695312 40.875 68.035156 40.46875 67.878906 39.8125 L 63.238281 20.523438 C 63.078125 19.867188 63.484375 19.203125 64.140625 19.046875 L 69.457031 17.761719 C 69.640625 17.71875 69.820312 17.828125 69.867188 18.011719 Z M 69.867188 18.011719 "/></g><path style=" stroke:none;fill-rule:nonzero;fill:#231f20;fill-opacity:1;" d="M 18.582031 41.898438 C 18.242188 41.621094 17.835938 41.472656 17.410156 41.472656 C 17.335938 41.472656 17.257812 41.480469 17.183594 41.488281 C 16.667969 41.554688 16.207031 41.828125 15.882812 42.261719 L 13.339844 45.710938 C 12.664062 46.625 12.824219 47.992188 13.6875 48.699219 C 14.085938 49.027344 14.582031 49.171875 15.082031 49.109375 C 15.597656 49.042969 16.058594 48.769531 16.382812 48.335938 L 18.925781 44.886719 C 19.601562 43.976562 19.441406 42.605469 18.578125 41.898438 Z M 18.582031 41.898438 "/><path style=" stroke:none;fill-rule:nonzero;fill:#231f20;fill-opacity:1;" d="M 50.425781 20.621094 C 47.21875 19.953125 44.191406 19.320312 41.800781 19.8125 C 40.289062 20.121094 33.574219 23.566406 32.152344 26.660156 L 29.613281 33.953125 C 29.542969 34.152344 29.597656 34.316406 29.640625 34.398438 C 29.675781 34.464844 29.753906 34.589844 29.90625 34.640625 C 31.605469 35.183594 33.078125 34.683594 34.292969 33.144531 C 35.277344 31.773438 35.996094 30.570312 36.425781 29.855469 C 36.601562 29.5625 36.726562 29.351562 36.820312 29.214844 C 37.121094 28.769531 37.59375 28.484375 38.121094 28.441406 L 41.164062 28.183594 C 41.765625 28.132812 42.371094 28.300781 42.863281 28.65625 L 58.945312 40.160156 C 58.96875 40.175781 58.988281 40.191406 59.007812 40.210938 C 59.46875 40.59375 59.824219 41 60.105469 41.398438 C 60.246094 41.59375 60.46875 41.714844 60.707031 41.726562 C 62.523438 41.8125 63.5625 41.304688 65.148438 40.53125 C 65.273438 40.472656 65.402344 40.40625 65.539062 40.34375 C 65.703125 40.261719 65.789062 40.078125 65.746094 39.898438 L 61.304688 21.65625 C 61.253906 21.445312 61.042969 21.320312 60.835938 21.367188 C 57.675781 22.136719 54 21.371094 50.425781 20.625 Z M 50.425781 20.621094 "/><path style=" stroke:none;fill-rule:nonzero;fill:#231f20;fill-opacity:1;" d="M 31.457031 48.683594 C 31.941406 47.78125 31.746094 46.585938 30.957031 45.941406 C 30.617188 45.664062 30.210938 45.519531 29.789062 45.519531 C 29.710938 45.519531 29.636719 45.523438 29.558594 45.535156 C 29.042969 45.597656 28.582031 45.871094 28.257812 46.308594 L 24.207031 51.796875 C 23.535156 52.710938 23.691406 54.078125 24.554688 54.785156 C 24.957031 55.113281 25.453125 55.257812 25.953125 55.195312 C 26.46875 55.128906 26.929688 54.855469 27.253906 54.421875 L 28.226562 53.101562 C 28.3125 52.949219 28.402344 52.800781 28.507812 52.65625 L 31.285156 48.894531 C 31.339844 48.820312 31.398438 48.753906 31.460938 48.683594 Z M 31.457031 48.683594 "/><path style=" stroke:none;fill-rule:nonzero;fill:#231f20;fill-opacity:1;" d="M 26.269531 41.914062 C 25.933594 41.636719 25.527344 41.492188 25.101562 41.492188 C 25.027344 41.492188 24.949219 41.496094 24.871094 41.503906 C 24.355469 41.570312 23.894531 41.84375 23.574219 42.28125 L 18.164062 49.609375 C 17.488281 50.523438 17.648438 51.894531 18.511719 52.601562 C 18.910156 52.925781 19.40625 53.074219 19.910156 53.007812 C 20.425781 52.945312 20.886719 52.667969 21.207031 52.234375 L 26.617188 44.90625 C 27.292969 43.992188 27.132812 42.621094 26.269531 41.914062 Z M 26.269531 41.914062 "/><g clip-rule="nonzero" clip-path="url(#020cc85a87)"><path style=" stroke:none;fill-rule:nonzero;fill:#231f20;fill-opacity:1;" d="M 35.707031 49.808594 C 35.371094 49.53125 34.960938 49.386719 34.539062 49.386719 C 34.464844 49.386719 34.386719 49.390625 34.308594 49.398438 C 33.882812 49.453125 33.5 49.652344 33.195312 49.960938 C 33.144531 50.042969 33.089844 50.128906 33.03125 50.210938 L 30.039062 54.261719 C 29.605469 55.152344 29.816406 56.296875 30.582031 56.925781 C 30.980469 57.25 31.476562 57.394531 31.980469 57.332031 C 32.496094 57.269531 32.957031 56.996094 33.277344 56.558594 L 36.054688 52.796875 C 36.726562 51.886719 36.570312 50.515625 35.707031 49.808594 Z M 35.707031 49.808594 "/></g><path style=" stroke:none;fill-rule:nonzero;fill:#231f20;fill-opacity:1;" d="M 11.765625 21.183594 L 7.125 40.472656 C 6.96875 41.132812 6.308594 41.535156 5.652344 41.378906 L 0.332031 40.09375 C 0.152344 40.050781 0.0390625 39.867188 0.0859375 39.683594 L 5.140625 18.671875 C 5.183594 18.488281 5.363281 18.378906 5.546875 18.421875 L 10.867188 19.707031 C 11.523438 19.863281 11.925781 20.527344 11.765625 21.183594 Z M 11.765625 21.183594 "/></g></svg>