<svg xmlns="http://www.w3.org/2000/svg" xmlns:xlink="http://www.w3.org/1999/xlink" width="100" zoomAndPan="magnify" viewBox="0 0 75 74.999997" height="100" preserveAspectRatio="xMidYMid meet" version="1.2"><defs><clipPath id="1e98c3629f"><path d="M 0 6 L 75 6 L 75 73.125 L 0 73.125 Z M 0 6 "/></clipPath></defs><g id="ffa39465f3"><g clip-rule="nonzero" clip-path="url(#1e98c3629f)"><path style=" stroke:none;fill-rule:nonzero;fill:#000000;fill-opacity:1;" d="M 29.261719 32.382812 C 31.542969 33.246094 33.824219 34.117188 36.253906 35.039062 C 36.164062 30.023438 36.078125 25.148438 35.988281 20.273438 C 36.066406 23.355469 34.34375 25.394531 32.070312 27.085938 C 31.445312 27.558594 30.640625 27.734375 29.761719 27.402344 C 30.003906 27 30.222656 26.648438 30.4375 26.292969 C 29.210938 26.890625 27.949219 27 26.5 26.84375 C 26.832031 26.410156 27.105469 26.058594 27.507812 25.53125 C 26.058594 26.214844 24.746094 26.46875 23.257812 26.089844 C 23.757812 25.511719 24.207031 25 24.667969 24.472656 C 23.648438 24.757812 22.707031 25.089844 21.730469 25.265625 C 20.75 25.433594 19.769531 25.304688 18.730469 24.804688 C 19.222656 24.464844 19.632812 24.179688 20.042969 23.894531 C 17.929688 24.414062 15.882812 24.492188 13.785156 23.335938 C 14.324219 23.054688 14.734375 22.828125 15.15625 22.601562 C 13.0625 22.855469 11.160156 22.652344 9.488281 21.054688 C 10.074219 20.839844 10.542969 20.664062 10.925781 20.527344 C 9.769531 20.449219 8.554688 20.417969 7.371094 20.261719 C 6.546875 20.144531 5.882812 19.65625 5.414062 18.941406 C 5.1875 18.589844 5.167969 18.324219 5.65625 18.195312 C 6.039062 18.089844 6.410156 17.941406 6.792969 17.726562 C 4.402344 17.414062 2.003906 17.207031 0.0078125 15.640625 C 4.226562 15.347656 8.222656 14.144531 12.335938 12.957031 C 12.113281 12.773438 11.964844 12.65625 11.777344 12.507812 C 15.1875 11.804688 18.28125 10.402344 21.414062 9.109375 C 23.667969 8.179688 25.882812 8.453125 27.976562 9.628906 C 29.484375 10.480469 30.183594 11.882812 30.542969 13.496094 C 30.652344 14.007812 30.75 14.515625 30.917969 15.003906 C 31.367188 16.308594 32.191406 17.296875 33.550781 17.6875 C 34.296875 17.902344 35.078125 18 35.84375 18.148438 C 35.890625 18 35.949219 17.914062 35.929688 17.882812 C 35.246094 17.109375 35.734375 16.0625 35.3125 15.230469 C 35.15625 14.925781 35.195312 14.496094 34.707031 14.457031 C 34.636719 14.445312 34.53125 14.25 34.53125 14.144531 C 34.570312 13.625 34.667969 13.105469 34.695312 12.585938 C 34.707031 12.390625 34.609375 12.175781 34.511719 12 C 33.589844 10.472656 33.757812 8.582031 34.933594 7.300781 C 36.144531 5.976562 38.027344 5.625 39.632812 6.429688 C 41.5625 7.398438 42.335938 9.84375 41.308594 11.753906 C 41.179688 11.988281 41.035156 12.214844 40.898438 12.449219 C 40.964844 12.449219 41.042969 12.449219 41.113281 12.449219 C 41.121094 13.066406 41.257812 13.722656 41.09375 14.289062 C 41.015625 14.5625 40.425781 14.703125 40.378906 15.199219 C 40.328125 15.730469 40.230469 16.257812 40.113281 16.785156 C 40.023438 17.1875 39.886719 17.578125 39.769531 17.980469 C 42.082031 18.371094 44.285156 16.894531 44.851562 14.5625 C 44.953125 14.171875 45.03125 13.769531 45.117188 13.378906 C 45.734375 10.726562 47.398438 9.179688 50.082031 8.699219 C 51.816406 8.386719 53.402344 8.769531 55.019531 9.40625 C 57.566406 10.421875 60.160156 11.3125 62.746094 12.242188 C 63.082031 12.359375 63.441406 12.390625 63.882812 12.488281 C 63.699219 12.636719 63.570312 12.734375 63.304688 12.9375 C 67.398438 14.152344 71.394531 15.316406 75.742188 15.554688 C 74.753906 16.550781 73.570312 16.863281 72.394531 17.121094 C 71.21875 17.375 70.023438 17.5 68.652344 17.71875 C 69.203125 17.914062 69.582031 18.070312 69.984375 18.175781 C 70.464844 18.304688 70.464844 18.558594 70.238281 18.921875 C 69.800781 19.625 69.144531 20.105469 68.347656 20.234375 C 67.378906 20.390625 66.390625 20.378906 65.402344 20.429688 C 65.167969 20.4375 64.929688 20.398438 64.667969 20.507812 C 65.117188 20.664062 65.578125 20.832031 66.175781 21.046875 C 64.511719 22.640625 62.621094 22.847656 60.515625 22.582031 C 60.925781 22.816406 61.328125 23.042969 61.835938 23.335938 C 59.78125 24.503906 57.722656 24.394531 55.597656 23.894531 C 56 24.167969 56.402344 24.445312 56.917969 24.796875 C 55.902344 25.285156 54.910156 25.433594 53.921875 25.257812 C 52.941406 25.078125 51.992188 24.746094 50.976562 24.464844 C 51.425781 24.972656 51.867188 25.480469 52.386719 26.078125 C 50.894531 26.449219 49.59375 26.246094 48.230469 25.675781 C 48.515625 26.03125 48.808594 26.382812 49.171875 26.832031 C 47.714844 26.988281 46.449219 26.902344 45.195312 26.265625 C 45.421875 26.625 45.636719 26.980469 45.890625 27.390625 C 44.980469 27.734375 44.214844 27.46875 43.519531 27.046875 C 41.835938 26.019531 40.886719 24.386719 39.996094 22.699219 C 39.917969 22.554688 39.847656 22.398438 39.664062 22.269531 C 39.585938 26.46875 39.503906 30.660156 39.425781 35.046875 C 41.835938 34.136719 44.128906 33.265625 46.421875 32.394531 C 46.402344 32.324219 46.382812 32.246094 46.371094 32.179688 C 45.058594 32.667969 43.726562 32.667969 42.386719 32.394531 C 41.394531 32.1875 40.660156 31.640625 40.289062 30.679688 C 40.015625 29.964844 40.261719 29.523438 40.957031 29.25 C 41.40625 29.074219 41.835938 28.828125 42.238281 28.566406 C 43.265625 27.878906 44.285156 27.339844 45.527344 28.136719 C 45.765625 28.292969 46.136719 28.234375 46.449219 28.273438 C 47.644531 28.429688 48.867188 28.496094 50.035156 28.789062 C 51.003906 29.027344 51.789062 29.691406 52.316406 30.582031 C 52.933594 31.601562 52.804688 32.558594 52.082031 33.5 C 51.257812 34.558594 50.210938 35.222656 48.96875 35.65625 C 47.3125 36.242188 45.667969 36.839844 44.011719 37.4375 C 43.804688 37.515625 43.609375 37.632812 43.304688 37.777344 C 43.765625 38.054688 44.117188 38.308594 44.5 38.503906 C 46.3125 39.433594 47.390625 41.285156 47.046875 43.28125 C 46.917969 44.027344 46.46875 44.847656 45.902344 45.335938 C 44.972656 46.160156 43.824219 46.746094 42.777344 47.421875 C 42.589844 47.539062 42.386719 47.628906 42.328125 47.667969 C 42.824219 48.253906 43.316406 48.863281 43.84375 49.441406 C 45.578125 51.320312 46.058594 54.53125 44.84375 56.390625 C 44.078125 57.578125 42.933594 58.351562 41.769531 59.085938 C 41.335938 59.359375 40.898438 59.621094 40.40625 59.925781 C 40.535156 60.121094 40.632812 60.257812 40.71875 60.40625 C 41.015625 60.835938 41.347656 61.238281 41.59375 61.6875 C 42.289062 63.019531 42.316406 64.332031 41.269531 65.515625 C 40.601562 66.269531 39.886719 66.984375 39.164062 67.75 C 39.320312 68.0625 39.535156 68.40625 39.671875 68.777344 C 40.4375 70.753906 39.847656 71.941406 38.242188 72.96875 C 38.085938 73.074219 37.800781 73.125 37.636719 73.054688 C 36.410156 72.566406 35.648438 71.285156 35.832031 69.960938 C 35.921875 69.355469 36.207031 68.769531 36.351562 68.160156 C 36.410156 67.925781 36.402344 67.582031 36.265625 67.425781 C 35.726562 66.789062 35.117188 66.222656 34.550781 65.613281 C 33.570312 64.558594 33.394531 63.332031 33.992188 62.050781 C 34.335938 61.328125 34.8125 60.671875 35.273438 59.925781 C 34.894531 59.683594 34.480469 59.425781 34.070312 59.164062 C 33.726562 58.949219 33.382812 58.742188 33.042969 58.507812 C 29.566406 56.128906 29.28125 51.769531 32.425781 48.921875 C 32.816406 48.570312 33.238281 48.246094 33.707031 47.855469 C 33.023438 47.480469 32.386719 47.167969 31.769531 46.804688 C 31.296875 46.53125 30.839844 46.25 30.40625 45.925781 C 27.910156 44.035156 27.988281 40.714844 30.574219 38.90625 C 31.140625 38.511719 31.757812 38.191406 32.472656 37.757812 C 31.425781 37.367188 30.484375 37.023438 29.546875 36.671875 C 28.429688 36.261719 27.300781 35.859375 26.195312 35.417969 C 25.195312 35.019531 24.316406 34.449219 23.648438 33.589844 C 22.660156 32.296875 22.828125 30.71875 24.078125 29.683594 C 25.390625 28.585938 26.988281 28.339844 28.625 28.203125 C 29.367188 28.144531 30.101562 27.9375 30.847656 27.8125 C 31.808594 27.636719 32.660156 27.859375 33.441406 28.457031 C 33.84375 28.761719 34.265625 29.054688 34.726562 29.242188 C 35.460938 29.542969 35.707031 29.957031 35.421875 30.71875 C 35.089844 31.621094 34.382812 32.109375 33.511719 32.382812 C 32.386719 32.738281 31.238281 32.667969 30.101562 32.402344 C 29.847656 32.34375 29.59375 32.277344 29.339844 32.21875 C 29.28125 32.265625 29.269531 32.324219 29.261719 32.382812 Z M 38.488281 68.632812 C 38.625 69.375 38.761719 70.109375 38.898438 70.851562 C 39.09375 70.039062 39.105469 69.277344 38.46875 68.652344 C 38.242188 68.257812 38.074219 67.828125 37.792969 67.496094 C 37.292969 66.917969 36.683594 66.4375 36.183594 65.859375 C 34.675781 64.136719 34.753906 63.039062 36.519531 61.589844 C 37.351562 60.90625 38.261719 60.316406 39.144531 59.691406 C 40.503906 58.742188 41.925781 57.851562 43.238281 56.832031 C 43.757812 56.429688 44.257812 55.804688 44.402344 55.1875 C 44.589844 54.433594 44.5 53.570312 44.363281 52.789062 C 44 50.761719 42.667969 49.429688 40.9375 48.519531 C 39.503906 47.765625 37.976562 47.199219 36.519531 46.492188 C 34.972656 45.738281 33.402344 44.984375 31.933594 44.074219 C 30.757812 43.351562 30.699219 42.351562 31.769531 41.480469 C 32.589844 40.8125 33.570312 40.265625 34.558594 39.894531 C 38.359375 38.484375 42.199219 37.210938 46 35.8125 C 47.664062 35.203125 49.398438 34.742188 50.847656 33.636719 C 52.265625 32.550781 52.1875 30.738281 50.59375 29.957031 C 49.859375 29.59375 49.035156 29.367188 48.230469 29.191406 C 47.007812 28.9375 45.765625 28.761719 44.519531 28.605469 C 43.804688 28.515625 43.101562 28.546875 42.601562 29.269531 C 42.414062 29.542969 42.042969 29.703125 41.738281 29.867188 C 41.511719 29.996094 41.257812 30.054688 40.796875 30.230469 C 41.25 30.671875 41.53125 31.0625 41.925781 31.328125 C 43.042969 32.070312 44.257812 31.738281 45.449219 31.542969 C 45.929688 31.464844 46.441406 31.375 46.898438 31.472656 C 47.175781 31.53125 47.488281 31.90625 47.574219 32.199219 C 47.625 32.375 47.320312 32.726562 47.105469 32.894531 C 46.800781 33.117188 46.441406 33.265625 46.078125 33.402344 C 44.550781 33.980469 43.011719 34.539062 41.484375 35.125 C 38.96875 36.09375 36.429688 37.042969 33.941406 38.082031 C 32.824219 38.550781 31.710938 39.101562 30.757812 39.824219 C 28.910156 41.226562 28.976562 43.976562 30.828125 45.347656 C 31.515625 45.855469 32.257812 46.308594 33.03125 46.640625 C 34.992188 47.480469 37.007812 48.207031 38.96875 49.058594 C 40.417969 49.683594 41.796875 50.46875 42.699219 51.847656 C 43.511719 53.09375 43.394531 54.425781 42.375 55.5 C 42.128906 55.765625 41.875 56.019531 41.582031 56.234375 C 40.28125 57.203125 38.957031 58.136719 37.664062 59.105469 C 36.558594 59.925781 35.5 60.808594 34.851562 62.0625 C 34.207031 63.332031 34.355469 64.605469 35.34375 65.605469 C 36.363281 66.652344 37.429688 67.621094 38.488281 68.632812 Z M 50.542969 25.394531 C 49.230469 23.769531 48.027344 22.28125 46.832031 20.792969 C 46.871094 20.753906 46.910156 20.714844 46.949219 20.675781 C 47.820312 21.242188 48.691406 21.839844 49.582031 22.386719 C 50.582031 22.996094 51.570312 23.621094 52.628906 24.101562 C 53.226562 24.375 53.941406 24.394531 54.597656 24.53125 C 54.628906 24.464844 54.65625 24.394531 54.695312 24.324219 C 54.414062 23.875 54.117188 23.425781 53.804688 22.925781 C 54.851562 23.101562 55.773438 23.328125 56.703125 23.394531 C 57.625 23.453125 58.554688 23.355469 59.484375 23.328125 C 59.503906 23.25 59.515625 23.171875 59.535156 23.09375 C 57.496094 21.9375 55.46875 20.792969 53.433594 19.636719 C 53.679688 19.527344 53.863281 19.558594 54.039062 19.605469 C 55.851562 20.164062 57.632812 20.78125 59.464844 21.25 C 60.5625 21.535156 61.710938 21.632812 62.84375 21.730469 C 63.257812 21.769531 63.6875 21.546875 64.109375 21.449219 C 64.109375 21.390625 64.109375 21.320312 64.109375 21.261719 C 61.828125 20.242188 59.542969 19.226562 57.261719 18.207031 C 57.46875 18.089844 57.632812 18.078125 57.792969 18.109375 C 59.445312 18.441406 61.09375 18.84375 62.757812 19.105469 C 64.285156 19.34375 65.832031 19.480469 67.371094 19.578125 C 67.988281 19.617188 68.59375 19.382812 69.144531 18.84375 C 67.027344 18.128906 65 17.453125 62.972656 16.777344 C 66.136719 16.53125 69.300781 17.207031 72.296875 16.269531 C 68.183594 15.152344 64.019531 14.035156 59.859375 12.910156 C 59.917969 12.8125 59.976562 12.714844 60.023438 12.617188 C 59.898438 12.488281 59.800781 12.300781 59.640625 12.242188 C 57.878906 11.507812 56.097656 10.804688 54.335938 10.078125 C 53.167969 9.601562 51.972656 9.355469 50.710938 9.492188 C 48.222656 9.765625 46.539062 11.136719 45.988281 13.371094 C 45.851562 13.9375 45.753906 14.515625 45.585938 15.074219 C 45.019531 16.90625 43.882812 18.15625 41.972656 18.636719 C 40.660156 18.96875 40.652344 18.96875 40.660156 20.351562 C 40.671875 21.027344 40.523438 21.769531 40.769531 22.347656 C 41.394531 23.796875 42.277344 25.109375 43.558594 26.097656 C 43.707031 26.214844 43.882812 26.273438 44.109375 26.402344 C 44.128906 25.894531 44.148438 25.480469 44.175781 24.953125 C 45.15625 25.675781 46.117188 26 47.253906 25.980469 C 47.15625 25.34375 47.078125 24.824219 46.980469 24.160156 C 48.085938 24.855469 49.113281 25.460938 50.542969 25.394531 Z M 18.300781 18.011719 C 18.320312 18.070312 18.332031 18.128906 18.351562 18.195312 C 16.066406 19.214844 13.785156 20.234375 11.347656 21.320312 C 12.589844 21.886719 13.707031 21.878906 14.804688 21.625 C 15.871094 21.367188 16.921875 21.015625 17.976562 20.703125 C 19.386719 20.28125 20.800781 19.839844 22.21875 19.421875 C 22.238281 19.46875 22.269531 19.519531 22.289062 19.566406 C 20.210938 20.742188 18.144531 21.917969 15.902344 23.191406 C 17.996094 23.640625 19.859375 23.414062 21.835938 22.847656 C 21.464844 23.464844 21.191406 23.90625 20.859375 24.453125 C 22.523438 24.523438 23.804688 23.867188 25.03125 23.054688 C 26.226562 22.269531 27.429688 21.488281 28.625 20.703125 C 28.664062 20.753906 28.703125 20.800781 28.730469 20.851562 C 28.125 21.605469 27.519531 22.347656 26.910156 23.101562 C 26.3125 23.835938 25.726562 24.570312 25.058594 25.402344 C 26.488281 25.5 27.5 24.855469 28.625 24.1875 C 28.527344 24.84375 28.449219 25.382812 28.371094 25.953125 C 29.554688 26.070312 30.476562 25.570312 31.433594 25.019531 C 31.453125 25.53125 31.472656 25.921875 31.492188 26.390625 C 31.691406 26.304688 31.828125 26.273438 31.914062 26.195312 C 33.542969 24.707031 35.109375 23.191406 34.953125 20.714844 C 34.921875 20.332031 34.921875 19.949219 34.953125 19.566406 C 34.992188 19.078125 34.851562 18.851562 34.304688 18.785156 C 32.472656 18.550781 31.101562 17.597656 30.328125 15.914062 C 30.015625 15.230469 29.828125 14.464844 29.683594 13.722656 C 29.210938 11.214844 27.566406 9.796875 24.558594 9.484375 C 23.363281 9.355469 22.25 9.6875 21.152344 10.140625 C 19.449219 10.84375 17.734375 11.519531 16.019531 12.214844 C 15.773438 12.3125 15.382812 12.332031 15.753906 12.917969 C 11.554688 14.054688 7.410156 15.171875 3.070312 16.335938 C 4.257812 16.492188 5.292969 16.699219 6.332031 16.757812 C 7.390625 16.816406 8.449219 16.71875 9.507812 16.707031 C 10.535156 16.699219 11.5625 16.707031 12.601562 16.707031 C 12.601562 16.738281 12.609375 16.765625 12.609375 16.796875 C 10.582031 17.472656 8.554688 18.15625 6.402344 18.871094 C 7.441406 19.683594 8.496094 19.761719 9.546875 19.644531 C 11.042969 19.480469 12.523438 19.1875 14 18.910156 C 15.453125 18.609375 16.871094 18.304688 18.300781 18.011719 Z M 38.09375 13.457031 C 38.074219 13.398438 38.054688 13.351562 38.035156 13.292969 C 38.515625 13.015625 39.015625 12.773438 39.484375 12.46875 C 40.796875 11.636719 41.238281 9.972656 40.542969 8.542969 C 39.898438 7.210938 38.292969 6.527344 36.890625 7.003906 C 35.648438 7.425781 34.894531 8.308594 34.765625 9.621094 C 34.628906 11.03125 35.285156 12.039062 36.507812 12.703125 C 36.859375 12.898438 37.222656 13.085938 37.578125 13.28125 C 37.558594 13.339844 37.535156 13.398438 37.515625 13.46875 C 36.859375 13.46875 36.207031 13.46875 35.636719 13.46875 C 36.027344 14.78125 36.605469 16.011719 36.722656 17.296875 C 36.929688 19.441406 36.851562 21.613281 36.902344 23.777344 C 36.96875 27.449219 37.046875 31.109375 37.097656 34.78125 C 37.105469 35.378906 37.371094 35.625 37.910156 35.585938 C 38.527344 35.546875 38.535156 35.078125 38.546875 34.597656 C 38.632812 29.328125 38.78125 24.0625 38.789062 18.792969 C 38.789062 16.90625 39.484375 15.25 40.054688 13.46875 C 39.386719 13.457031 38.742188 13.457031 38.09375 13.457031 Z M 36.519531 36.132812 C 36.246094 35.988281 36.117188 35.910156 35.980469 35.859375 C 34.148438 35.164062 32.316406 34.480469 30.496094 33.773438 C 29.78125 33.5 29.066406 33.214844 28.410156 32.84375 C 27.761719 32.480469 27.800781 31.777344 28.488281 31.511719 C 28.871094 31.367188 29.367188 31.375 29.78125 31.472656 C 30.847656 31.707031 31.914062 31.972656 32.972656 31.621094 C 33.511719 31.433594 34.011719 31.042969 34.453125 30.660156 C 34.695312 30.445312 34.628906 30.179688 34.238281 30.003906 C 33.738281 29.78125 33.324219 29.367188 32.824219 29.164062 C 32.257812 28.917969 31.542969 28.546875 31.042969 28.710938 C 30.203125 28.976562 29.398438 29.074219 28.535156 29.09375 C 27.164062 29.132812 25.851562 29.386719 24.726562 30.238281 C 23.628906 31.070312 23.472656 32.285156 24.433594 33.265625 C 24.972656 33.8125 25.648438 34.292969 26.351562 34.578125 C 28.625 35.488281 30.9375 36.300781 33.238281 37.144531 C 33.402344 37.203125 33.609375 37.28125 33.757812 37.230469 C 34.65625 36.886719 35.519531 36.527344 36.519531 36.132812 Z M 39.105469 46.386719 C 39.761719 46.707031 40.269531 46.984375 40.796875 47.199219 C 40.9375 47.257812 41.171875 47.21875 41.308594 47.140625 C 42.484375 46.492188 43.726562 45.925781 44.8125 45.140625 C 46.714844 43.78125 46.644531 41.109375 44.765625 39.699219 C 44.421875 39.445312 44.050781 39.226562 43.699219 38.992188 C 42.296875 38.0625 40.757812 38.152344 39.359375 39.265625 C 39.898438 39.453125 40.425781 39.570312 40.898438 39.804688 C 41.875 40.285156 42.914062 40.726562 43.777344 41.371094 C 44.980469 42.28125 44.882812 43.300781 43.628906 44.144531 C 42.925781 44.613281 42.148438 44.996094 41.386719 45.375 C 40.671875 45.730469 39.945312 46.011719 39.105469 46.386719 Z M 36.714844 49.148438 C 36.027344 48.84375 35.488281 48.578125 34.933594 48.351562 C 34.792969 48.292969 34.570312 48.34375 34.433594 48.433594 C 32.289062 49.675781 31.054688 51.46875 31.0625 54.023438 C 31.0625 55.1875 31.453125 56.136719 32.394531 56.832031 C 33.304688 57.5 34.207031 58.164062 35.136719 58.800781 C 36.078125 59.457031 36.207031 59.425781 36.988281 58.417969 C 36.8125 58.292969 36.636719 58.15625 36.460938 58.027344 C 35.527344 57.320312 34.53125 56.6875 33.667969 55.902344 C 31.945312 54.34375 31.972656 52.75 33.660156 51.164062 C 34.070312 50.78125 34.53125 50.457031 35 50.15625 C 35.5 49.820312 36.039062 49.539062 36.714844 49.148438 Z M 36.519531 57.019531 C 36.519531 54.746094 36.519531 52.574219 36.519531 50.261719 C 35.324219 50.9375 34.285156 51.515625 33.609375 52.542969 C 33.226562 53.121094 33.089844 53.757812 33.492188 54.386719 C 34.226562 55.539062 35.390625 56.214844 36.519531 57.019531 Z M 39.074219 57.046875 C 40.210938 56.234375 41.347656 55.558594 42.109375 54.433594 C 42.445312 53.945312 42.464844 53.394531 42.207031 52.886719 C 41.574219 51.613281 40.417969 50.957031 39.074219 50.28125 C 39.074219 52.59375 39.074219 54.757812 39.074219 57.046875 Z M 36.34375 40.117188 C 35.304688 40.539062 34.375 40.851562 33.5 41.285156 C 33.011719 41.519531 32.582031 41.910156 32.160156 42.28125 C 31.835938 42.566406 31.835938 42.917969 32.179688 43.214844 C 33.414062 44.210938 34.875 44.742188 36.332031 45.367188 C 36.34375 43.59375 36.34375 41.949219 36.34375 40.117188 Z M 39.289062 45.335938 C 40.757812 44.722656 42.226562 44.191406 43.460938 43.175781 C 43.863281 42.839844 43.71875 42.488281 43.414062 42.195312 C 42.289062 41.117188 40.867188 40.648438 39.289062 40.199219 C 39.289062 41.941406 39.289062 43.585938 39.289062 45.335938 Z M 38.339844 42.859375 C 38.378906 42.859375 38.410156 42.859375 38.449219 42.859375 C 38.449219 42.078125 38.417969 41.292969 38.457031 40.511719 C 38.488281 40.011719 38.339844 39.71875 37.820312 39.71875 C 37.339844 39.71875 37.15625 39.980469 37.164062 40.453125 C 37.214844 42.066406 37.261719 43.683594 37.292969 45.296875 C 37.300781 45.679688 37.449219 45.90625 37.832031 45.914062 C 38.234375 45.925781 38.359375 45.679688 38.351562 45.296875 C 38.332031 44.476562 38.339844 43.664062 38.339844 42.859375 Z M 37.390625 53.777344 C 37.429688 53.777344 37.476562 53.777344 37.515625 53.777344 C 37.515625 54.941406 37.507812 56.117188 37.535156 57.28125 C 37.535156 57.46875 37.742188 57.65625 37.851562 57.839844 C 37.9375 57.65625 38.09375 57.480469 38.105469 57.292969 C 38.164062 54.980469 38.203125 52.660156 38.253906 50.351562 C 38.261719 50.019531 38.242188 49.636719 37.792969 49.734375 C 37.625 49.773438 37.417969 50.136719 37.410156 50.351562 C 37.359375 51.488281 37.390625 52.632812 37.390625 53.777344 Z M 38.632812 61.152344 C 38.898438 61.386719 39.144531 61.589844 39.367188 61.804688 C 40.808594 63.195312 40.847656 64.105469 39.542969 65.613281 C 39.347656 65.832031 39.152344 66.046875 38.957031 66.261719 C 38.789062 66.449219 38.632812 66.632812 38.476562 66.820312 C 38.546875 66.878906 38.605469 66.925781 38.671875 66.984375 C 39.339844 66.269531 40.015625 65.574219 40.652344 64.839844 C 41.238281 64.167969 41.347656 63.382812 40.996094 62.578125 C 40.777344 62.089844 40.523438 61.609375 40.199219 61.179688 C 39.574219 60.347656 39.503906 60.355469 38.632812 61.152344 Z M 37.695312 61.746094 C 37.605469 63.167969 37.644531 64.597656 37.761719 66.015625 C 38.113281 65.046875 38.074219 62.101562 37.695312 61.746094 Z M 38.898438 64.949219 C 39.847656 63.960938 39.847656 63.265625 38.898438 62.726562 C 38.898438 63.472656 38.898438 64.15625 38.898438 64.949219 Z M 36.734375 62.6875 C 35.792969 63.246094 35.804688 64.148438 36.734375 64.890625 C 36.734375 64.167969 36.734375 63.472656 36.734375 62.6875 Z M 36.882812 71.167969 C 36.941406 70.257812 36.988281 69.394531 37.039062 68.628906 C 36.371094 69.542969 36.285156 70.492188 36.882812 71.167969 Z M 36.882812 71.167969 "/></g></g></svg>