<svg xmlns="http://www.w3.org/2000/svg" xmlns:xlink="http://www.w3.org/1999/xlink" width="100" zoomAndPan="magnify" viewBox="0 0 75 74.999997" height="100" preserveAspectRatio="xMidYMid meet" version="1.2"><g id="4d771af729"><path style=" stroke:none;fill-rule:evenodd;fill:#005c8f;fill-opacity:1;" d="M 29.71875 74.992188 C 29.121094 74.992188 28.660156 74.46875 28.734375 73.878906 C 28.835938 71.828125 28.777344 69.671875 28.320312 67.660156 C 27.875 65.683594 27.042969 63.835938 25.605469 62.359375 C 24.355469 61.074219 22.507812 60.851562 20.636719 60.621094 C 19.117188 60.4375 17.585938 60.25 16.15625 59.554688 C 13.34375 58.1875 13.234375 55.695312 13.128906 53.253906 C 13.109375 52.757812 13.089844 52.261719 13.035156 51.777344 C 12.980469 51.269531 12.808594 50.953125 12.65625 50.679688 C 12.542969 50.472656 12.441406 50.277344 12.363281 50.0625 C 12.25 49.746094 12.152344 49.402344 12.117188 49.042969 C 12.074219 48.605469 12.125 48.171875 12.335938 47.769531 C 12.4375 47.578125 12.550781 47.433594 12.664062 47.304688 L 12.414062 47.058594 C 11.996094 46.65625 11.566406 46.242188 11.414062 45.71875 C 11.242188 45.105469 11.347656 44.695312 11.464844 44.253906 C 11.53125 44.011719 11.585938 43.777344 11.515625 43.523438 C 11.488281 43.421875 11.433594 43.316406 11.347656 43.222656 C 11.011719 42.863281 10.480469 42.527344 9.953125 42.191406 C 7.992188 40.953125 6.070312 39.738281 8.1875 36.355469 C 8.550781 35.777344 9.191406 34.933594 9.910156 33.984375 C 11.378906 32.050781 13.207031 29.648438 13.25 28.875 C 13.3125 27.882812 13.285156 27.109375 13.257812 26.371094 C 13.210938 24.964844 13.167969 23.679688 13.636719 21.445312 C 15.390625 13.117188 18.996094 7.578125 24.289062 4.289062 C 29.542969 1.023438 36.402344 0.0195312 44.710938 0.742188 C 49.148438 1.125 53.007812 2.238281 56.253906 3.925781 C 60.722656 6.246094 64.039062 9.648438 66.128906 13.722656 C 68.210938 17.789062 69.066406 22.511719 68.636719 27.488281 C 68.265625 31.714844 66.96875 36.132812 64.699219 40.484375 C 61.609375 46.421875 60.363281 51.800781 60.644531 57.113281 C 60.925781 62.429688 62.726562 67.71875 65.722656 73.464844 C 66.140625 74.113281 65.679688 74.992188 64.886719 74.992188 Z M 29.71875 74.992188 "/><path style=" stroke:none;fill-rule:evenodd;fill:#d7e9ff;fill-opacity:1;" d="M 46.082031 16.378906 C 46.632812 16.378906 47.074219 16.820312 47.074219 17.367188 C 47.074219 17.914062 46.632812 18.359375 46.082031 18.359375 L 43.996094 18.359375 C 44.011719 18.433594 44.019531 18.507812 44.019531 18.585938 L 44.019531 31.300781 C 46.15625 31.050781 48.074219 30 49.519531 28.429688 C 51.207031 26.601562 52.246094 24.0625 52.246094 21.257812 C 52.246094 20.625 52.199219 20.015625 52.101562 19.433594 C 52.003906 18.84375 51.855469 18.257812 51.660156 17.6875 C 51.4375 17.042969 51.933594 16.367188 52.617188 16.378906 L 57.101562 16.476562 C 57.648438 16.484375 58.082031 16.9375 58.070312 17.480469 C 58.058594 18.027344 57.609375 18.460938 57.0625 18.449219 L 53.914062 18.382812 C 53.96875 18.625 54.015625 18.867188 54.054688 19.117188 C 54.171875 19.820312 54.234375 20.535156 54.234375 21.257812 C 54.234375 24.574219 52.992188 27.585938 50.980469 29.769531 C 49.167969 31.738281 46.734375 33.039062 44.019531 33.296875 L 44.019531 39.375 L 46.867188 39.375 C 47.414062 39.375 47.859375 39.816406 47.859375 40.367188 C 47.859375 40.914062 47.414062 41.355469 46.867188 41.355469 L 39.1875 41.355469 C 38.636719 41.355469 38.191406 40.914062 38.191406 40.367188 C 38.191406 39.820312 38.636719 39.375 39.1875 39.375 L 42.03125 39.375 L 42.03125 33.296875 C 39.320312 33.039062 36.886719 31.738281 35.074219 29.769531 C 33.0625 27.585938 31.816406 24.574219 31.816406 21.257812 C 31.816406 20.535156 31.878906 19.820312 31.996094 19.117188 C 32.039062 18.867188 32.085938 18.625 32.140625 18.382812 L 29.164062 18.449219 C 28.617188 18.460938 28.164062 18.027344 28.152344 17.480469 C 28.144531 16.9375 28.578125 16.484375 29.125 16.476562 C 29.878906 16.460938 33.304688 16.269531 33.78125 16.429688 C 34.296875 16.609375 34.574219 17.171875 34.394531 17.6875 C 34.199219 18.257812 34.050781 18.839844 33.953125 19.433594 C 33.855469 20.015625 33.804688 20.625 33.804688 21.257812 C 33.804688 24.0625 34.847656 26.601562 36.535156 28.429688 C 37.976562 30 39.898438 31.050781 42.03125 31.300781 L 42.03125 18.585938 C 42.03125 18.507812 42.042969 18.433594 42.058594 18.359375 L 39.96875 18.359375 C 39.421875 18.359375 38.976562 17.917969 38.976562 17.367188 C 38.976562 16.820312 39.421875 16.378906 39.96875 16.378906 Z M 30.65625 73.011719 L 63.179688 73.011719 C 60.472656 67.535156 58.847656 62.40625 58.574219 57.214844 C 58.273438 51.542969 59.582031 45.832031 62.847656 39.570312 C 64.992188 35.453125 66.21875 31.292969 66.566406 27.316406 C 66.964844 22.703125 66.183594 18.347656 64.273438 14.625 C 62.375 10.910156 59.34375 7.808594 55.246094 5.683594 C 52.222656 4.117188 48.617188 3.078125 44.449219 2.71875 C 36.5625 2.03125 30.101562 2.949219 25.242188 5.96875 C 20.421875 8.96875 17.117188 14.09375 15.488281 21.851562 C 15.0625 23.859375 15.105469 25.03125 15.144531 26.3125 C 15.171875 27.101562 15.203125 27.933594 15.140625 28.992188 C 15.058594 30.367188 13.03125 33.035156 11.402344 35.179688 C 10.710938 36.09375 10.09375 36.90625 9.78125 37.402344 C 8.707031 39.117188 9.804688 39.8125 10.925781 40.523438 C 11.558594 40.921875 12.195312 41.328125 12.714844 41.886719 C 13.027344 42.226562 13.226562 42.601562 13.332031 42.980469 C 13.457031 43.421875 13.464844 43.859375 13.40625 44.242188 C 13.375 44.445312 13.191406 45.03125 13.234375 45.175781 C 13.238281 45.195312 13.46875 45.417969 13.695312 45.632812 C 14.0625 45.988281 14.421875 46.335938 14.589844 46.769531 C 14.929688 47.648438 14.558594 48.058594 14.140625 48.515625 C 14.011719 48.660156 13.976562 48.660156 13.996094 48.851562 C 14.011719 49.003906 14.070312 49.199219 14.140625 49.394531 C 14.179688 49.503906 14.238281 49.613281 14.304688 49.734375 C 14.542969 50.167969 14.820312 50.675781 14.914062 51.570312 C 14.96875 52.085938 14.992188 52.628906 15.015625 53.175781 C 15.097656 55.027344 15.175781 56.921875 16.933594 57.777344 C 18.066406 58.328125 19.425781 58.492188 20.777344 58.65625 C 22.996094 58.925781 25.195312 59.191406 26.933594 60.980469 C 28.65625 62.75 29.640625 64.921875 30.160156 67.226562 C 30.589844 69.121094 30.699219 71.101562 30.65625 73.011719 Z M 30.65625 73.011719 "/><path style=" stroke:none;fill-rule:evenodd;fill:#f1f8ff;fill-opacity:1;" d="M 46.082031 16.378906 C 46.632812 16.378906 47.074219 16.820312 47.074219 17.367188 C 47.074219 17.914062 46.632812 18.359375 46.082031 18.359375 L 43.996094 18.359375 C 44.011719 18.433594 44.019531 18.507812 44.019531 18.585938 L 44.019531 31.300781 C 46.15625 31.050781 48.074219 30 49.519531 28.429688 C 51.207031 26.601562 52.246094 24.0625 52.246094 21.257812 C 52.246094 20.625 52.199219 20.015625 52.101562 19.433594 C 52.003906 18.84375 51.855469 18.257812 51.660156 17.6875 C 51.4375 17.042969 51.933594 16.367188 52.617188 16.378906 L 57.101562 16.476562 C 57.648438 16.484375 58.082031 16.9375 58.070312 17.480469 C 58.058594 18.027344 57.609375 18.460938 57.0625 18.449219 L 53.914062 18.382812 C 53.96875 18.625 54.015625 18.867188 54.054688 19.117188 C 54.171875 19.820312 54.234375 20.535156 54.234375 21.257812 C 54.234375 24.574219 52.992188 27.585938 50.980469 29.769531 C 49.167969 31.738281 46.734375 33.039062 44.019531 33.296875 L 44.019531 39.375 L 46.867188 39.375 C 47.414062 39.375 47.859375 39.816406 47.859375 40.367188 C 47.859375 40.914062 47.414062 41.355469 46.867188 41.355469 L 39.1875 41.355469 C 38.636719 41.355469 38.191406 40.914062 38.191406 40.367188 C 38.191406 39.820312 38.636719 39.375 39.1875 39.375 L 42.03125 39.375 L 42.03125 33.296875 C 39.320312 33.039062 36.886719 31.738281 35.074219 29.769531 C 33.0625 27.585938 31.816406 24.574219 31.816406 21.257812 C 31.816406 20.535156 31.878906 19.820312 31.996094 19.117188 C 32.039062 18.867188 32.085938 18.625 32.140625 18.382812 L 29.164062 18.449219 C 28.617188 18.460938 28.164062 18.027344 28.152344 17.480469 C 28.144531 16.9375 28.578125 16.484375 29.125 16.476562 C 29.878906 16.460938 33.304688 16.269531 33.78125 16.429688 C 34.296875 16.609375 34.574219 17.171875 34.394531 17.6875 C 34.199219 18.257812 34.050781 18.839844 33.953125 19.433594 C 33.855469 20.015625 33.804688 20.625 33.804688 21.257812 C 33.804688 24.0625 34.847656 26.601562 36.535156 28.429688 C 37.976562 30 39.898438 31.050781 42.03125 31.300781 L 42.03125 18.585938 C 42.03125 18.507812 42.042969 18.433594 42.058594 18.359375 L 39.96875 18.359375 C 39.421875 18.359375 38.976562 17.917969 38.976562 17.367188 C 38.976562 16.820312 39.421875 16.378906 39.96875 16.378906 Z M 58.683594 52.660156 C 59.113281 48.460938 60.453125 44.164062 62.847656 39.570312 C 64.992188 35.453125 66.21875 31.292969 66.566406 27.316406 C 66.964844 22.703125 66.183594 18.347656 64.273438 14.625 C 62.375 10.910156 59.34375 7.808594 55.246094 5.683594 C 52.222656 4.117188 48.617188 3.078125 44.449219 2.71875 C 39.96875 2.328125 35.953125 2.457031 32.425781 3.191406 C 28.144531 8.425781 25.574219 15.109375 25.574219 22.394531 C 25.574219 39.171875 39.207031 52.777344 56.027344 52.777344 C 56.921875 52.777344 57.808594 52.738281 58.683594 52.660156 Z M 58.683594 52.660156 "/></g></svg>