<svg xmlns="http://www.w3.org/2000/svg" xmlns:xlink="http://www.w3.org/1999/xlink" width="100" zoomAndPan="magnify" viewBox="0 0 75 74.999997" height="100" preserveAspectRatio="xMidYMid meet" version="1.2"><g id="9ebf43862d"><path style=" stroke:none;fill-rule:nonzero;fill:#000000;fill-opacity:1;" d="M 61.023438 69.574219 C 60.957031 68.074219 60.9375 66.5625 60.855469 65.066406 C 60.753906 63.695312 60.46875 62.246094 59.601562 61.136719 C 59.109375 60.539062 58.3125 60.375 57.589844 60.210938 C 56.574219 59.976562 55.542969 59.792969 54.535156 59.515625 C 53.308594 59.203125 51.640625 58.308594 52.417969 56.816406 C 52.503906 56.609375 52.605469 56.402344 52.617188 56.171875 C 52.617188 55.917969 52.597656 55.660156 52.707031 55.425781 C 52.847656 55.085938 53.195312 54.898438 53.363281 54.582031 C 53.453125 53.789062 52.539062 53.609375 51.988281 53.339844 C 51.546875 53.101562 51.027344 52.742188 51.007812 52.191406 C 51.046875 51.738281 51.480469 51.457031 51.699219 51.085938 C 52.300781 50.101562 52.800781 49.089844 53.535156 48.1875 C 53.953125 47.585938 54.171875 46.808594 53.886719 46.105469 C 53.570312 44.921875 52.054688 44.597656 51.765625 43.40625 C 51.605469 42.761719 51.957031 42.140625 52.378906 41.675781 C 53.484375 40.402344 54.453125 39.964844 56.035156 39.511719 C 56.476562 39.332031 56.96875 39.183594 57.328125 38.863281 C 57.417969 38.429688 57.265625 37.972656 57.089844 37.582031 C 56.324219 36.203125 54.984375 35.316406 53.71875 34.441406 C 51.964844 33.238281 49.957031 32.328125 48.574219 30.65625 C 45.574219 30.578125 42.570312 30.148438 39.722656 29.179688 C 37.898438 28.550781 36.019531 27.828125 34.644531 26.429688 C 32.585938 24.304688 32.585938 21.144531 31.636719 18.496094 C 31.085938 17 30.210938 15.496094 28.742188 14.75 C 26.460938 13.601562 23.507812 14.554688 22.441406 16.902344 C 24.167969 18.589844 25.25 21.191406 24.390625 23.558594 C 25.335938 24.203125 26.4375 24.667969 27.1875 25.550781 C 28.023438 26.574219 27.425781 27.570312 26.296875 27.957031 C 24.207031 28.683594 21.308594 28.886719 19.660156 27.148438 C 19.515625 27.390625 19.320312 27.601562 19.109375 27.792969 C 18.992188 27.933594 18.789062 28.007812 18.734375 28.183594 C 18.226562 29.324219 17.578125 30.429688 16.652344 31.277344 C 14.695312 33.132812 11.929688 31.722656 11.042969 29.503906 C 10.230469 28.96875 9.785156 28.027344 9.726562 27.078125 C 8.996094 27.757812 8.269531 28.445312 7.65625 29.230469 C 7.019531 30.070312 6.511719 31 6.09375 31.960938 C 5.390625 33.613281 4.886719 35.449219 5.261719 37.242188 C 5.5625 38.515625 5.96875 40.570312 7.640625 40.515625 C 9.519531 40.253906 10.898438 38.253906 12.917969 38.753906 C 15 39.160156 18.089844 39.558594 19.273438 41.511719 C 19.945312 42.539062 20.382812 43.757812 20.265625 44.996094 C 20.25 45.609375 19.925781 46.121094 19.617188 46.628906 C 19.441406 46.960938 19.429688 47.347656 19.457031 47.71875 C 19.492188 48.921875 20.023438 50.035156 20.542969 51.097656 C 20.8125 51.730469 21.398438 52.230469 21.484375 52.929688 C 21.578125 53.582031 21.226562 54.011719 20.554688 53.972656 C 20.050781 53.992188 19.980469 54.113281 19.921875 54.589844 C 19.9375 55.136719 20.328125 55.566406 20.597656 56.015625 C 21.144531 56.757812 21.378906 57.800781 20.820312 58.601562 C 20.203125 59.511719 19.042969 59.820312 18.003906 59.933594 C 16.636719 60.097656 15.285156 59.792969 13.933594 59.65625 C 12.410156 59.46875 11.46875 60.273438 10.964844 61.648438 C 10.355469 63.351562 10.507812 65.199219 10.710938 66.960938 C 10.734375 67.234375 10.785156 67.503906 10.796875 67.777344 C 10.792969 68.199219 10.140625 68.238281 10.125 67.777344 C 9.847656 65.242188 9.417969 62.324219 11.042969 60.132812 C 11.992188 58.816406 13.578125 58.855469 15.023438 59.113281 C 16.585938 59.332031 18.347656 59.542969 19.769531 58.710938 C 20.324219 58.371094 20.632812 57.679688 20.398438 57.054688 C 20.128906 56.347656 19.523438 55.804688 19.324219 55.0625 C 19.183594 54.578125 19.269531 53.984375 19.609375 53.601562 C 19.929688 53.292969 20.410156 53.34375 20.8125 53.269531 C 20.925781 52.648438 20.300781 52.171875 20.074219 51.636719 C 19.304688 50.136719 18.515625 48.441406 18.867188 46.71875 C 18.980469 46.25 19.339844 45.894531 19.503906 45.449219 C 19.78125 44.484375 19.535156 43.421875 19.101562 42.546875 C 18.84375 42.066406 18.601562 41.609375 18.207031 41.242188 C 17.242188 40.421875 15.976562 40.066406 14.757812 39.804688 C 11.683594 39.128906 12.050781 39.082031 9.367188 40.613281 C 5.917969 42.546875 4.757812 39.171875 4.476562 36.339844 C 4.402344 33.828125 5.425781 31.390625 6.777344 29.316406 C 3.882812 31.421875 2.175781 28.226562 1.726562 25.6875 C 1.308594 23.558594 1.269531 21.304688 1.914062 19.214844 C 0.0703125 16.875 0.585938 14.496094 2.523438 12.425781 C 3.855469 11.019531 5.410156 9.746094 7.207031 8.984375 C 6.773438 8.667969 6.914062 8.289062 7.378906 8.105469 C 8.160156 7.890625 8.988281 7.886719 9.789062 7.804688 C 11.1875 7.703125 12.601562 7.710938 13.976562 7.992188 C 14.578125 8.121094 15.179688 8.300781 15.742188 8.558594 C 16.40625 8.691406 17.054688 8.914062 17.652344 9.230469 C 18.894531 9.878906 19.851562 11.046875 20.195312 12.40625 C 20.421875 13.425781 20.699219 14.445312 20.683594 15.5 C 20.800781 15.570312 20.914062 15.648438 21.027344 15.726562 C 21.34375 15.945312 21.648438 16.179688 21.9375 16.429688 C 23.140625 14.007812 26.195312 12.96875 28.671875 13.980469 C 30.183594 14.578125 31.242188 15.925781 31.902344 17.363281 C 33.292969 20.195312 32.941406 23.9375 35.382812 26.203125 C 36.628906 27.339844 38.296875 27.96875 39.851562 28.515625 C 42.472656 29.425781 45.273438 29.855469 48.03125 29.972656 C 47.367188 29.082031 46.832031 28.109375 46.316406 27.128906 C 45.300781 25.160156 44.46875 23.085938 43.992188 20.917969 C 43.421875 18.378906 43.117188 15.726562 43.675781 13.175781 C 44.597656 9.066406 48.773438 6.9375 52.546875 5.972656 C 56.128906 5.046875 59.9375 4.773438 63.582031 5.488281 C 65.25 5.871094 66.902344 6.429688 68.382812 7.296875 C 69.382812 7.914062 70.296875 8.660156 71.148438 9.46875 C 73.609375 11.875 74.914062 15.351562 74.890625 18.769531 C 74.746094 21.808594 73.714844 24.859375 71.945312 27.34375 C 70.523438 29.210938 68.480469 30.472656 66.40625 31.515625 C 64.570312 32.464844 62.617188 33.324219 60.523438 33.414062 C 57.445312 33.476562 54.367188 32.316406 51.972656 30.40625 C 51.152344 30.53125 50.320312 30.617188 49.488281 30.648438 C 50.449219 31.671875 51.683594 32.359375 52.871094 33.085938 C 54.757812 34.339844 58.402344 36.378906 57.988281 39.023438 C 57.621094 40.007812 55.417969 40.269531 54.535156 40.769531 C 53.910156 41.09375 53.390625 41.574219 52.917969 42.085938 C 52.289062 42.757812 52.199219 43.382812 52.960938 43.996094 C 53.40625 44.371094 53.894531 44.71875 54.210938 45.21875 C 54.628906 45.890625 54.832031 46.734375 54.597656 47.507812 C 54.410156 48.253906 53.871094 48.859375 53.445312 49.464844 C 52.855469 50.382812 52.40625 51.386719 51.6875 52.214844 C 52.027344 52.804688 52.800781 52.867188 53.332031 53.214844 C 53.839844 53.550781 54.207031 54.246094 53.988281 54.84375 C 53.875 55.125 53.632812 55.328125 53.433594 55.546875 C 53.269531 55.695312 53.292969 55.917969 53.296875 56.117188 C 53.304688 56.535156 53.105469 56.910156 52.960938 57.289062 C 52.640625 58.085938 53.757812 58.535156 54.34375 58.753906 C 55.351562 59.078125 56.398438 59.246094 57.429688 59.492188 C 58.359375 59.691406 59.390625 59.878906 60.050781 60.628906 C 61.265625 62.074219 61.519531 64.054688 61.574219 65.878906 C 61.617188 67.109375 61.648438 68.34375 61.699219 69.574219 C 61.691406 70.007812 61.042969 70.023438 61.027344 69.574219 Z M 60.125 32.75 C 62.167969 32.75 64.082031 31.9375 65.871094 31.03125 C 67.503906 30.199219 69.136719 29.296875 70.449219 28 C 72.105469 26.414062 73.03125 24.230469 73.675781 22.070312 C 74.804688 18.398438 74.058594 14.261719 71.761719 11.1875 C 72.6875 12.570312 73.21875 14.21875 73.269531 15.882812 C 73.253906 18.054688 72.824219 20.230469 72.207031 22.308594 C 69.820312 29.933594 63.078125 32.84375 55.839844 29.492188 C 54.875 29.839844 53.875 30.070312 52.867188 30.257812 C 54.960938 31.765625 57.539062 32.695312 60.125 32.75 Z M 14.683594 31.46875 C 16.132812 31.351562 17.019531 29.960938 17.675781 28.8125 C 15.992188 29.734375 13.964844 30.433594 12.042969 29.945312 C 12.628906 30.808594 13.605469 31.507812 14.683594 31.46875 Z M 61.597656 30.199219 C 64.316406 30.273438 67 29.066406 68.824219 27.070312 C 70.953125 24.710938 71.917969 21.570312 72.378906 18.488281 C 73.292969 13.835938 71.308594 10.222656 67.125 8.097656 C 64.878906 7.023438 62.3125 6.800781 59.855469 6.992188 C 53.433594 7.503906 46.890625 12.007812 46.984375 18.957031 C 46.972656 20.777344 47.5 22.566406 48.230469 24.214844 C 49.117188 26.308594 50.460938 28.195312 52.171875 29.699219 C 53.125 29.539062 54.074219 29.34375 55 29.0625 C 53.429688 28.238281 52.082031 27.035156 51.085938 25.566406 C 50.085938 24.140625 49.324219 22.515625 49.0625 20.785156 C 48.550781 17.796875 49.582031 15.011719 51.539062 12.757812 C 52.9375 11.144531 54.585938 9.679688 56.554688 8.800781 C 59.878906 7.332031 63.972656 7.015625 67.222656 8.824219 C 70.976562 11.078125 72.171875 14.617188 71.46875 18.808594 C 71.242188 20.363281 70.828125 21.894531 70.320312 23.382812 C 69.984375 24.375 69.492188 25.3125 68.824219 26.125 C 66.15625 29.484375 61.71875 30.148438 57.847656 28.605469 C 57.496094 28.785156 57.140625 28.957031 56.78125 29.117188 C 56.761719 29.125 56.738281 29.136719 56.71875 29.144531 C 58.257812 29.789062 59.921875 30.160156 61.59375 30.195312 Z M 48.890625 29.984375 C 49.703125 29.984375 50.511719 29.921875 51.316406 29.820312 C 49.148438 27.808594 47.679688 25.152344 46.820312 22.34375 C 45.816406 19.050781 46.304688 15.296875 48.316406 12.476562 C 52.128906 7.046875 60.066406 5 66.261719 7.011719 C 64.070312 6.117188 61.710938 5.738281 59.351562 5.765625 C 55.71875 5.773438 51.925781 6.464844 48.691406 8.15625 C 45.484375 9.832031 43.988281 12.355469 44.046875 15.960938 C 44.078125 19.679688 45.117188 23.3125 46.796875 26.613281 C 47.410156 27.785156 48.046875 28.960938 48.890625 29.988281 Z M 13.605469 29.429688 C 15.269531 29.292969 16.878906 28.628906 18.222656 27.660156 C 18.5 26.953125 18.679688 26.207031 18.710938 25.449219 C 18.433594 25.285156 18.125 25.175781 17.816406 25.09375 C 16.429688 27.167969 13.632812 28.917969 11.191406 27.542969 C 11.273438 28.054688 11.394531 28.558594 11.585938 29.042969 C 12.195312 29.386719 12.917969 29.464844 13.605469 29.429688 Z M 4.914062 29.320312 C 7.1875 29.226562 8.546875 26.078125 7.433594 24.210938 C 6.21875 23.683594 5.160156 22.785156 4.492188 21.636719 C 3.765625 21.082031 3.054688 20.5 2.433594 19.828125 C 2.011719 21.46875 2.007812 23.203125 2.261719 24.871094 C 2.511719 26.34375 3.128906 29.191406 4.957031 29.324219 C 4.957031 29.324219 4.914062 29.320312 4.914062 29.320312 Z M 54.625 28.070312 C 55.027344 28.324219 55.445312 28.554688 55.871094 28.765625 C 56.277344 28.617188 56.671875 28.445312 57.0625 28.253906 C 51.933594 25.757812 49.882812 19.484375 53.339844 14.75 C 54.472656 13.171875 55.980469 11.863281 57.671875 10.910156 C 59.628906 9.769531 62.042969 9.300781 64.214844 10.101562 C 66.253906 10.800781 68.230469 12.191406 68.933594 14.308594 C 69.738281 16.730469 69.730469 20.410156 68.660156 22.746094 C 68.246094 23.632812 67.652344 24.460938 66.816406 24.992188 C 65.328125 25.925781 63.46875 26.226562 61.75 25.902344 C 61.171875 26.425781 60.5625 26.914062 59.925781 27.359375 C 59.503906 27.648438 59.074219 27.925781 58.632812 28.179688 C 62.453125 29.476562 66.53125 28.492188 68.796875 25.03125 C 69.523438 23.917969 69.882812 22.628906 70.242188 21.367188 C 70.570312 20.175781 70.808594 18.960938 70.921875 17.734375 C 71.34375 14.246094 69.941406 11.203125 66.886719 9.40625 C 64.75 8.195312 62.140625 8.046875 59.761719 8.480469 C 57.164062 8.988281 54.925781 10.210938 53.074219 12.097656 C 51.144531 13.96875 49.574219 16.441406 49.609375 19.207031 C 49.601562 22.65625 51.714844 26.242188 54.621094 28.074219 Z M 57.480469 27.714844 C 57.589844 27.769531 57.703125 27.816406 57.816406 27.867188 C 58.933594 27.261719 59.988281 26.539062 60.949219 25.710938 C 56.300781 24.316406 55.179688 20.042969 57 15.875 C 57.789062 14.046875 59.226562 12.652344 61.21875 12.253906 C 63.832031 11.671875 67.578125 12.253906 68.460938 15.179688 C 68.800781 16.367188 68.589844 17.625 68.359375 18.8125 C 67.945312 20.992188 66.707031 22.960938 64.277344 23.023438 C 63.738281 23.859375 63.09375 24.625 62.382812 25.316406 C 63.503906 25.449219 64.660156 25.265625 65.703125 24.824219 C 68.679688 23.5625 68.945312 19.78125 68.773438 16.972656 C 68.652344 15.488281 68.308594 13.9375 67.285156 12.800781 C 66.03125 11.480469 64.285156 10.621094 62.476562 10.398438 C 61.160156 10.257812 59.839844 10.59375 58.652344 11.160156 C 55.308594 12.804688 52.292969 16.027344 52.285156 19.925781 C 52.292969 23.242188 54.492188 26.347656 57.480469 27.71875 Z M 8.507812 25.773438 C 8.511719 26.246094 8.414062 26.71875 8.269531 27.167969 C 8.199219 27.386719 8.109375 27.605469 8.003906 27.8125 C 8.554688 27.246094 9.132812 26.703125 9.71875 26.171875 C 9.730469 25.980469 9.746094 25.792969 9.761719 25.601562 C 9.660156 25.316406 9.59375 25.023438 9.5625 24.722656 C 9.324219 24.710938 9.085938 24.683594 8.851562 24.644531 C 8.667969 24.613281 8.488281 24.570312 8.308594 24.523438 C 8.449219 24.921875 8.503906 25.351562 8.507812 25.773438 Z M 23.863281 27.792969 C 24.582031 27.726562 27.421875 27.375 26.824219 26.222656 C 26.210938 25.242188 25.046875 24.835938 24.136719 24.195312 C 23.527344 25.460938 22.277344 27.0625 20.78125 27.207031 C 21.699219 27.765625 22.816406 27.851562 23.863281 27.792969 Z M 10.539062 27.738281 C 10.492188 27.46875 10.460938 27.195312 10.4375 26.925781 C 10.433594 26.902344 10.433594 26.878906 10.429688 26.855469 C 10.414062 26.839844 10.402344 26.820312 10.390625 26.804688 C 10.402344 27.121094 10.441406 27.4375 10.539062 27.738281 Z M 13.234375 27.351562 C 14.832031 27.25 16.179688 26.167969 17.097656 24.925781 C 16.007812 24.726562 14.898438 24.652344 13.8125 24.429688 C 13.320312 24.578125 12.792969 24.589844 12.285156 24.554688 C 11.886719 25.003906 11.472656 25.441406 11.035156 25.855469 C 11.039062 25.996094 11.046875 26.136719 11.050781 26.277344 C 11.0625 26.378906 11.070312 26.480469 11.078125 26.582031 C 11.609375 27.1875 12.457031 27.378906 13.234375 27.351562 Z M 20.617188 26.53125 C 21.875 26.539062 23.109375 24.851562 23.574219 23.800781 C 21.464844 22.320312 20.667969 19.433594 21.636719 17.0625 C 21.605469 17.03125 21.570312 17.003906 21.542969 16.976562 C 21.261719 16.730469 20.972656 16.503906 20.667969 16.292969 C 20.617188 17.433594 20.367188 18.542969 20.179688 19.664062 C 20.101562 20.554688 20.121094 21.460938 20.039062 22.351562 C 20.050781 23.203125 19.503906 26.394531 20.617188 26.53125 Z M 61.117188 25.058594 C 61.183594 25.078125 61.253906 25.09375 61.324219 25.113281 C 61.398438 25.132812 61.476562 25.152344 61.550781 25.175781 C 62.277344 24.511719 62.945312 23.785156 63.5 22.976562 C 61.035156 22.644531 59.828125 20.292969 60.015625 17.992188 C 60.074219 17.019531 60.390625 16.023438 61.089844 15.320312 C 61.964844 14.453125 63.257812 14.019531 64.480469 14.179688 C 66.027344 14.363281 67.433594 15.464844 67.289062 17.136719 C 67.222656 18.261719 66.535156 19.402344 65.507812 19.910156 C 65.414062 20.757812 65.117188 21.570312 64.703125 22.308594 C 66.558594 22.039062 67.394531 20.292969 67.710938 18.632812 C 67.972656 17.265625 68.230469 15.695312 67.390625 14.476562 C 66.019531 12.570312 62.78125 12.390625 60.71875 13.089844 C 59.035156 13.617188 57.945312 15.140625 57.375 16.738281 C 56.058594 20.425781 57.164062 23.851562 61.113281 25.054688 Z M 11.019531 24.925781 C 11.019531 24.925781 11.03125 24.914062 11.039062 24.90625 C 11.199219 24.746094 11.351562 24.585938 11.5 24.421875 C 11.492188 24.421875 11.480469 24.417969 11.472656 24.417969 C 11.324219 24.476562 11.175781 24.523438 11.019531 24.566406 C 11.019531 24.683594 11.019531 24.808594 11.019531 24.925781 Z M 18.683594 24.683594 C 18.664062 24.535156 18.644531 24.390625 18.617188 24.246094 C 18.589844 24.132812 18.5625 24.019531 18.53125 23.90625 C 18.449219 24.0625 18.363281 24.214844 18.273438 24.367188 C 18.246094 24.414062 18.222656 24.460938 18.195312 24.503906 C 18.359375 24.558594 18.519531 24.617188 18.679688 24.683594 Z M 15.609375 24.027344 C 16.191406 24.105469 16.769531 24.175781 17.347656 24.289062 C 17.402344 24.300781 17.457031 24.3125 17.511719 24.324219 C 17.703125 24.019531 17.878906 23.710938 18.046875 23.390625 C 18.101562 23.273438 18.160156 23.152344 18.214844 23.035156 C 17.96875 22.492188 17.628906 21.992188 17.242188 21.542969 C 16.582031 22.441406 15.851562 23.324219 14.90625 23.933594 C 15.140625 23.96875 15.375 23.996094 15.609375 24.027344 Z M 9.53125 24.050781 C 9.53125 24.050781 9.53125 24.035156 9.53125 24.027344 C 9.535156 23.867188 9.550781 23.710938 9.574219 23.550781 C 8.160156 22.570312 6.964844 21.183594 6.488281 19.511719 C 6.230469 19.53125 5.996094 19.605469 5.761719 19.71875 C 5.515625 19.855469 5.085938 19.925781 4.980469 19.582031 C 4.871094 18.976562 5.957031 19.011719 6.320312 18.710938 C 6.152344 17.457031 6.371094 16.1875 6.707031 14.976562 C 5.957031 15.261719 5.246094 15.660156 4.636719 16.175781 C 4.078125 17.800781 4.164062 19.667969 5.003906 21.179688 C 6.007812 21.957031 7.160156 22.609375 7.890625 23.671875 C 8.414062 23.882812 8.96875 24.007812 9.53125 24.050781 Z M 13.789062 23.734375 C 14.882812 23.359375 15.675781 22.453125 16.378906 21.578125 C 15.652344 21.757812 14.914062 21.910156 14.175781 22.03125 C 13.859375 22.550781 13.5 23.042969 13.132812 23.53125 C 13.183594 23.550781 13.234375 23.570312 13.289062 23.59375 C 13.453125 23.648438 13.621094 23.691406 13.789062 23.734375 Z M 11.421875 23.703125 C 11.476562 23.679688 11.527344 23.65625 11.578125 23.628906 C 11.65625 23.589844 11.730469 23.546875 11.804688 23.503906 C 11.710938 23.417969 11.621094 23.328125 11.542969 23.234375 C 11.335938 22.992188 11.171875 22.730469 11.035156 22.449219 C 11.039062 22.617188 11.046875 22.792969 11.042969 22.960938 C 11.042969 23.164062 11.039062 23.367188 11.035156 23.570312 C 11.09375 23.59375 11.15625 23.617188 11.214844 23.636719 C 11.285156 23.660156 11.355469 23.683594 11.425781 23.703125 Z M 19 23.167969 C 19.015625 23.066406 19.027344 22.964844 19.042969 22.859375 C 19.015625 22.921875 18.984375 22.984375 18.957031 23.046875 C 18.972656 23.085938 18.984375 23.125 19 23.164062 Z M 23.820312 23.136719 C 24.445312 21.152344 23.542969 19.035156 22.164062 17.585938 C 21.496094 19.550781 22.140625 21.875 23.820312 23.136719 Z M 12.371094 23.09375 C 12.703125 22.820312 12.984375 22.5 13.238281 22.152344 C 12.707031 22.195312 12.175781 22.222656 11.648438 22.171875 C 11.824219 22.523438 12.058594 22.851562 12.371094 23.09375 Z M 9.746094 22.847656 C 9.769531 22.765625 9.796875 22.6875 9.824219 22.609375 C 9.925781 22.335938 10.042969 22.0625 10.179688 21.800781 C 9.367188 21.4375 8.851562 20.578125 8.964844 19.6875 C 8.410156 19.417969 7.777344 19.371094 7.167969 19.425781 C 7.585938 20.824219 8.585938 21.988281 9.746094 22.847656 Z M 63.910156 22.34375 C 64.335938 21.636719 64.6875 20.871094 64.8125 20.046875 C 63.507812 20.0625 62.421875 18.757812 62.835938 17.488281 C 63.007812 16.859375 63.664062 16.148438 64.367188 16.390625 C 65.109375 16.734375 65.558594 18.328125 65.558594 19.101562 C 66.429688 18.402344 66.917969 17.101562 66.417969 16.050781 C 65.90625 15.128906 64.757812 14.78125 63.757812 14.820312 C 61.800781 14.988281 60.667969 16.378906 60.667969 18.296875 C 60.617188 20.335938 61.710938 22.210938 63.90625 22.34375 Z M 18.570312 22.253906 C 18.589844 22.207031 18.605469 22.160156 18.628906 22.113281 C 18.628906 22.101562 18.636719 22.09375 18.636719 22.085938 C 18.628906 22.09375 18.617188 22.097656 18.605469 22.101562 C 18.574219 22.117188 18.539062 22.132812 18.507812 22.144531 C 18.527344 22.179688 18.550781 22.21875 18.570312 22.253906 Z M 12.945312 21.503906 C 13.179688 21.484375 13.417969 21.460938 13.65625 21.425781 C 13.890625 20.929688 14.050781 20.390625 14.121094 19.84375 C 13.03125 19.8125 12.015625 20.433594 11.34375 21.253906 C 11.359375 21.328125 11.375 21.394531 11.394531 21.464844 C 11.90625 21.542969 12.425781 21.535156 12.945312 21.503906 Z M 18.390625 21.414062 C 18.417969 21.378906 18.445312 21.34375 18.46875 21.304688 C 18.523438 21.226562 18.574219 21.144531 18.621094 21.058594 C 18.539062 21.066406 18.460938 21.078125 18.382812 21.09375 C 18.378906 21.183594 18.378906 21.273438 18.382812 21.367188 C 18.386719 21.382812 18.386719 21.398438 18.390625 21.414062 Z M 14.710938 21.089844 C 14.679688 21.152344 14.644531 21.210938 14.613281 21.273438 C 15.257812 21.160156 15.894531 21.003906 16.527344 20.851562 C 16.121094 20.515625 15.667969 20.234375 15.175781 20.050781 C 15.042969 20.40625 14.890625 20.757812 14.710938 21.089844 Z M 10.125 20.976562 C 10.015625 20.695312 9.867188 20.425781 9.65625 20.203125 C 9.675781 20.367188 9.761719 20.539062 9.820312 20.644531 C 9.898438 20.769531 10.019531 20.902344 10.125 20.976562 Z M 18.746094 20.386719 C 18.867188 20.386719 19 20.425781 19.101562 20.488281 C 19.136719 20.511719 19.164062 20.535156 19.191406 20.5625 C 19.28125 20.242188 19.378906 19.917969 19.464844 19.59375 C 19.46875 19.007812 19.421875 18.421875 19.386719 17.835938 C 19.144531 18.398438 18.855469 18.9375 18.554688 19.46875 C 18.511719 19.777344 18.46875 20.089844 18.433594 20.402344 C 18.535156 20.390625 18.640625 20.378906 18.746094 20.386719 Z M 16.558594 20.03125 C 16.765625 20.175781 16.960938 20.335938 17.148438 20.5 C 17.40625 20.085938 17.679688 19.675781 17.910156 19.246094 C 17.984375 18.710938 18.0625 18.179688 18.128906 17.644531 C 18.238281 16.8125 18.332031 15.976562 18.382812 15.136719 C 18.332031 15.121094 18.285156 15.101562 18.246094 15.085938 C 17.605469 14.867188 16.949219 14.695312 16.285156 14.554688 C 15.859375 14.707031 15.4375 14.878906 15.019531 15.054688 C 15.636719 16.410156 15.785156 17.972656 15.382812 19.410156 C 15.800781 19.558594 16.203125 19.777344 16.5625 20.03125 Z M 3.910156 20.3125 C 3.601562 19.292969 3.523438 18.203125 3.699219 17.152344 C 3.25 17.726562 2.917969 18.390625 2.664062 19.078125 C 3.050781 19.53125 3.480469 19.945312 3.90625 20.3125 Z M 10.125 19.71875 C 10.292969 19.886719 10.441406 20.089844 10.554688 20.300781 C 10.523438 19.367188 10.632812 18.425781 10.824219 17.507812 C 10.851562 17.347656 10.921875 17.195312 10.878906 17.035156 C 10.710938 17.121094 10.542969 17.210938 10.371094 17.300781 C 10.347656 17.3125 10.320312 17.328125 10.296875 17.339844 C 10.070312 17.996094 9.832031 18.652344 9.6875 19.335938 C 9.847656 19.449219 9.988281 19.578125 10.125 19.71875 Z M 11.628906 18.089844 C 11.628906 18.800781 11.550781 19.507812 11.429688 20.210938 C 12.183594 19.554688 13.15625 19.140625 14.164062 19.171875 C 14.179688 18.011719 13.824219 16.71875 12.789062 16.066406 C 12.507812 16.203125 12.226562 16.34375 11.945312 16.480469 C 11.882812 16.511719 11.820312 16.542969 11.761719 16.574219 C 11.695312 16.789062 11.636719 17.003906 11.582031 17.21875 C 11.617188 17.507812 11.628906 17.800781 11.628906 18.085938 Z M 64.882812 19.378906 C 64.90625 18.9375 64.84375 18.496094 64.699219 18.078125 C 64.550781 17.714844 64.429688 17.289062 64.132812 17.019531 C 64.039062 16.992188 63.949219 17.058594 63.871094 17.105469 C 63.738281 17.195312 63.640625 17.328125 63.570312 17.464844 C 63.085938 18.386719 63.894531 19.429688 64.882812 19.378906 Z M 8.039062 18.753906 C 8.394531 18.78125 8.746094 18.863281 9.074219 19.003906 C 9.15625 18.652344 9.269531 18.304688 9.375 17.960938 C 9.390625 17.910156 9.40625 17.859375 9.425781 17.808594 C 9.238281 17.90625 9.058594 18.007812 8.875 18.105469 C 8.488281 18.316406 8.105469 18.527344 7.71875 18.734375 C 7.828125 18.734375 7.929688 18.746094 8.035156 18.753906 Z M 13.535156 15.785156 C 14.398438 16.527344 14.773438 17.683594 14.832031 18.792969 C 15.058594 17.628906 14.894531 16.398438 14.398438 15.324219 C 14.324219 15.359375 14.246094 15.390625 14.171875 15.425781 C 13.941406 15.53125 13.710938 15.636719 13.480469 15.742188 C 13.5 15.757812 13.515625 15.769531 13.535156 15.785156 Z M 2.183594 18.449219 C 2.605469 17.4375 3.234375 16.507812 4.0625 15.785156 C 4.679688 14.0625 6.066406 12.65625 7.789062 12.023438 C 8.03125 11.429688 8.28125 10.84375 8.511719 10.246094 C 8.589844 9.972656 8.710938 9.761719 8.617188 9.5 C 7.863281 8.972656 5.410156 10.730469 4.773438 11.261719 C 2.539062 13.035156 0.203125 15.589844 2.1875 18.449219 Z M 6.964844 18.378906 C 7.324219 18.1875 7.679688 17.992188 8.039062 17.796875 C 8.605469 17.484375 9.175781 17.175781 9.75 16.871094 C 9.839844 16.609375 9.933594 16.347656 10.011719 16.128906 C 10.058594 15.992188 10.105469 15.855469 10.152344 15.722656 C 9.039062 15.921875 8.09375 16.445312 7.023438 16.703125 C 6.945312 17.257812 6.914062 17.820312 6.964844 18.378906 Z M 18.960938 16.28125 C 18.925781 16.65625 18.882812 17.027344 18.835938 17.398438 C 18.96875 17.089844 19.09375 16.777344 19.203125 16.460938 C 19.152344 16.171875 19.09375 15.890625 19.023438 15.609375 C 19.003906 15.832031 18.980469 16.058594 18.957031 16.28125 Z M 10.625 16.40625 C 10.65625 16.390625 10.6875 16.375 10.71875 16.359375 C 10.710938 16.335938 10.703125 16.3125 10.695312 16.292969 C 10.691406 16.277344 10.683594 16.261719 10.679688 16.246094 C 10.660156 16.300781 10.644531 16.351562 10.625 16.40625 Z M 7.226562 15.960938 C 8.105469 15.644531 8.976562 15.285156 9.890625 15.085938 C 9.386719 14.675781 8.707031 14.578125 8.074219 14.644531 C 7.75 15.054688 7.429688 15.476562 7.226562 15.960938 Z M 11.269531 15.90625 C 11.300781 15.8125 11.335938 15.71875 11.371094 15.628906 C 11.296875 15.625 11.222656 15.621094 11.148438 15.621094 C 11.191406 15.714844 11.234375 15.808594 11.269531 15.90625 Z M 12.421875 15.152344 C 12.558594 15.195312 12.6875 15.25 12.816406 15.3125 C 13.234375 15.113281 13.65625 14.914062 14.085938 14.726562 C 14.054688 14.679688 14.027344 14.632812 13.996094 14.585938 C 13.890625 14.429688 13.777344 14.28125 13.660156 14.136719 C 13.660156 14.136719 13.65625 14.136719 13.65625 14.136719 C 13.382812 14.101562 13.109375 14.066406 12.835938 14.03125 C 12.636719 14.378906 12.46875 14.75 12.300781 15.117188 C 12.34375 15.128906 12.382812 15.140625 12.421875 15.152344 Z M 11.632812 14.976562 C 11.769531 14.621094 11.953125 14.28125 12.117188 13.9375 C 11.886719 13.90625 11.652344 13.875 11.421875 13.839844 C 11.335938 14.214844 11.21875 14.578125 11.109375 14.945312 C 11.117188 14.945312 11.128906 14.945312 11.140625 14.945312 C 11.304688 14.945312 11.46875 14.957031 11.632812 14.976562 Z M 5.21875 14.945312 C 5.429688 14.824219 5.648438 14.710938 5.867188 14.605469 C 6.21875 14.433594 6.582031 14.296875 6.957031 14.183594 C 7.019531 14.011719 7.082031 13.835938 7.140625 13.664062 C 7.226562 13.414062 7.328125 13.164062 7.425781 12.917969 C 6.527344 13.382812 5.738281 14.074219 5.21875 14.945312 Z M 9.507812 14.121094 C 9.789062 14.214844 10.035156 14.359375 10.269531 14.527344 C 10.347656 14.582031 10.414062 14.640625 10.484375 14.703125 C 10.582031 14.382812 10.675781 14.0625 10.753906 13.738281 C 10.230469 13.640625 9.699219 13.550781 9.191406 13.386719 C 9.144531 13.429688 9.105469 13.476562 9.0625 13.519531 C 8.925781 13.667969 8.789062 13.8125 8.65625 13.957031 C 8.949219 13.980469 9.230469 14.027344 9.507812 14.121094 Z M 19.652344 14.519531 C 19.703125 14.085938 19.707031 13.644531 19.65625 13.210938 C 19.449219 12.5625 19.09375 11.953125 18.59375 11.484375 C 18.859375 12.136719 18.992188 12.835938 19.042969 13.535156 C 19.113281 13.6875 19.175781 13.84375 19.234375 14 C 19.398438 14.148438 19.535156 14.332031 19.652344 14.519531 Z M 14.707031 14.457031 C 14.789062 14.421875 14.871094 14.386719 14.953125 14.351562 C 14.972656 14.34375 14.992188 14.335938 15.007812 14.328125 C 14.949219 14.320312 14.890625 14.3125 14.832031 14.300781 C 14.753906 14.289062 14.671875 14.277344 14.589844 14.265625 C 14.628906 14.328125 14.667969 14.394531 14.707031 14.457031 Z M 18.402344 14.433594 C 18.402344 14.375 18.402344 14.320312 18.402344 14.261719 C 18.390625 14.257812 18.382812 14.253906 18.371094 14.25 C 18.292969 14.226562 18.214844 14.203125 18.136719 14.191406 C 18.148438 14.195312 18.164062 14.199219 18.179688 14.203125 C 18.089844 14.1875 18.003906 14.175781 17.910156 14.171875 L 17.957031 14.175781 C 17.882812 14.175781 17.804688 14.175781 17.730469 14.179688 C 17.699219 14.183594 17.667969 14.1875 17.636719 14.191406 C 17.894531 14.265625 18.152344 14.34375 18.402344 14.433594 Z M 7.738281 13.996094 C 8.003906 13.667969 8.296875 13.359375 8.582031 13.050781 C 8.449219 12.914062 8.332031 12.742188 8.316406 12.546875 C 8.308594 12.550781 8.300781 12.554688 8.296875 12.554688 C 8.101562 13.03125 7.910156 13.511719 7.734375 13.996094 Z M 15.070312 13.660156 C 15.457031 13.730469 15.847656 13.789062 16.234375 13.863281 C 16.894531 13.640625 17.601562 13.414062 18.300781 13.539062 C 17.742188 12.460938 16.746094 11.070312 15.367188 11.304688 C 14.503906 11.535156 13.960938 12.3125 13.46875 13 C 13.527344 13.050781 13.582031 13.097656 13.640625 13.148438 C 13.765625 13.261719 13.886719 13.382812 14 13.507812 C 14.359375 13.554688 14.714844 13.601562 15.070312 13.660156 Z M 11.664062 13.199219 C 11.929688 13.238281 12.199219 13.273438 12.46875 13.308594 C 12.5 13.257812 12.527344 13.207031 12.558594 13.160156 C 12.382812 13.046875 12.207031 12.945312 12.023438 12.851562 C 11.890625 12.785156 11.757812 12.726562 11.621094 12.667969 C 11.613281 12.839844 11.589844 13.011719 11.558594 13.183594 C 11.59375 13.1875 11.628906 13.191406 11.664062 13.199219 Z M 10.890625 13.078125 C 10.917969 12.929688 10.9375 12.78125 10.949219 12.632812 C 10.953125 12.570312 10.953125 12.503906 10.953125 12.445312 C 10.882812 12.425781 10.8125 12.40625 10.738281 12.390625 C 10.601562 12.363281 10.460938 12.339844 10.320312 12.324219 C 10.304688 12.335938 10.292969 12.347656 10.277344 12.359375 C 10.097656 12.519531 9.917969 12.683594 9.742188 12.847656 C 9.960938 12.902344 10.183594 12.945312 10.40625 12.992188 C 10.566406 13.019531 10.730469 13.050781 10.890625 13.078125 Z M 11.707031 11.980469 C 11.925781 12.058594 12.140625 12.15625 12.351562 12.265625 C 12.546875 12.367188 12.742188 12.476562 12.929688 12.601562 C 14.324219 10.441406 16.183594 9.761719 18.03125 11.894531 C 17.878906 11.484375 17.679688 11.089844 17.421875 10.738281 C 14.9375 9.746094 12.023438 10.292969 9.769531 11.621094 C 9.882812 11.621094 9.992188 11.621094 10.105469 11.628906 C 10.628906 11.175781 11.375 11.15625 11.570312 11.929688 C 11.617188 11.945312 11.660156 11.960938 11.707031 11.980469 Z M 9.058594 12.574219 C 9.144531 12.488281 9.234375 12.40625 9.324219 12.320312 C 9.214844 12.335938 9.105469 12.351562 8.996094 12.371094 C 8.96875 12.445312 8.996094 12.527344 9.058594 12.574219 Z M 9.296875 9.421875 C 9.417969 10.203125 8.917969 10.933594 8.671875 11.652344 C 9.558594 10.753906 10.804688 10.308594 11.992188 9.949219 C 13.425781 9.542969 14.957031 9.425781 16.421875 9.730469 C 16.136719 9.523438 15.832031 9.34375 15.511719 9.191406 C 14.703125 9.039062 13.878906 8.980469 13.058594 8.992188 C 11.769531 9.003906 10.484375 9.09375 9.195312 9.15625 C 9.246094 9.238281 9.273438 9.324219 9.296875 9.421875 Z M 18.011719 10.269531 C 18.011719 10.269531 18.023438 10.273438 18.027344 10.277344 C 17.941406 10.210938 17.855469 10.144531 17.765625 10.082031 C 17.824219 10.179688 17.910156 10.226562 18.011719 10.269531 Z M 18.011719 10.269531 "/></g></svg>