<svg xmlns="http://www.w3.org/2000/svg" xmlns:xlink="http://www.w3.org/1999/xlink" width="100" zoomAndPan="magnify" viewBox="0 0 75 74.999997" height="100" preserveAspectRatio="xMidYMid meet" version="1.2"><defs><clipPath id="6269bcd696"><path d="M 4 2.558594 L 71.910156 2.558594 L 71.910156 75 L 4 75 Z M 4 2.558594 "/></clipPath></defs><g id="8fc752e503"><g clip-rule="nonzero" clip-path="url(#6269bcd696)"><path style=" stroke:none;fill-rule:nonzero;fill:#000000;fill-opacity:1;" d="M 19.671875 75.265625 C 18.972656 75.25 18.734375 74.507812 18.617188 73.925781 C 18.417969 72.9375 18.359375 71.929688 18.300781 70.929688 C 18.105469 67.070312 18.710938 63.023438 20.871094 59.753906 C 17.753906 57.273438 15.371094 53.957031 13.574219 50.410156 C 13.078125 49.449219 12.683594 48.441406 12.234375 47.453125 C 12.082031 47.253906 11.925781 47.050781 11.769531 46.851562 C 9.417969 43.839844 7.410156 40.535156 5.910156 37.003906 C 2.917969 30.363281 4.769531 23.21875 9.515625 17.949219 C 10.308594 16.085938 11.386719 14.34375 12.722656 12.828125 C 15.558594 9.652344 19.28125 7.378906 23.152344 5.714844 C 28.230469 3.507812 33.808594 2.566406 39.328125 2.832031 C 43.257812 3.128906 47.273438 3.527344 50.851562 5.339844 C 54.207031 6.691406 57.34375 8.675781 59.878906 11.285156 C 60.851562 12.25 61.625 13.382812 62.46875 14.457031 C 63.882812 16.207031 65.160156 18.078125 66.304688 20.015625 C 68.402344 23.523438 70.078125 27.347656 70.691406 31.417969 C 71.882812 39.386719 70.046875 48.070312 64.570312 54.125 C 60.820312 58.484375 56.066406 62.136719 50.613281 64.019531 C 46.027344 65.582031 41.078125 65.664062 36.300781 65.1875 C 36.4375 65.265625 36.578125 65.339844 36.714844 65.417969 C 37.113281 65.664062 36.769531 66.273438 36.347656 66.046875 C 35.6875 65.679688 35.027344 65.3125 34.367188 64.941406 C 33.949219 64.882812 33.53125 64.820312 33.113281 64.761719 C 28.988281 64.011719 24.84375 62.765625 21.453125 60.199219 C 19.570312 63.074219 18.925781 66.589844 19 69.992188 C 19.019531 70.597656 19.089844 74.640625 19.769531 74.542969 C 20.238281 74.621094 20.144531 75.324219 19.671875 75.265625 Z M 41.101562 64.730469 C 44.285156 64.675781 47.496094 64.363281 50.511719 63.285156 C 55.121094 61.675781 59.160156 58.753906 62.550781 55.269531 C 64.550781 53.21875 66.332031 50.917969 67.613281 48.339844 C 70.277344 42.832031 70.90625 36.382812 69.78125 30.414062 C 68.925781 26.183594 66.96875 22.285156 64.632812 18.699219 C 66.550781 23.519531 67.628906 28.761719 67.308594 33.960938 C 67.628906 35.839844 67.714844 37.761719 67.503906 39.660156 C 67.117188 43.089844 65.722656 46.367188 63.699219 49.132812 C 62.898438 50.820312 61.855469 52.367188 60.761719 53.871094 C 57.15625 58.558594 52.082031 62.585938 46.039062 63.101562 C 43.097656 63.386719 40.132812 63.050781 37.21875 62.613281 C 36.734375 62.464844 36.242188 62.519531 35.746094 62.5625 C 34.320312 62.652344 32.886719 62.617188 31.46875 62.457031 C 32.507812 63.054688 33.550781 63.652344 34.597656 64.238281 C 36.75 64.574219 38.925781 64.6875 41.105469 64.730469 Z M 30.136719 63.378906 C 30.453125 63.460938 30.769531 63.527344 31.085938 63.597656 C 31.566406 63.695312 32.042969 63.800781 32.523438 63.898438 C 31.507812 63.320312 30.496094 62.738281 29.484375 62.152344 C 26.898438 61.65625 24.398438 60.648438 22.246094 59.121094 C 22.117188 59.277344 21.988281 59.4375 21.867188 59.601562 C 24.320312 61.449219 27.195312 62.617188 30.136719 63.378906 Z M 42.691406 62.449219 C 45.824219 62.628906 49.023438 62.113281 51.835938 60.671875 C 55.566406 58.761719 58.628906 55.703125 61.003906 52.269531 C 58.195312 55.171875 54.742188 57.347656 51.140625 59.113281 C 47.867188 60.691406 44.402344 62.0625 40.75 62.324219 C 41.394531 62.398438 42.046875 62.410156 42.695312 62.449219 Z M 33.796875 61.875 C 31.078125 61.183594 28.453125 60.113281 25.988281 58.765625 C 27.117188 59.828125 28.402344 60.703125 29.742188 61.464844 C 31.082031 61.714844 32.4375 61.855469 33.800781 61.875 Z M 43.53125 61.0625 C 43.296875 61.128906 43.066406 61.191406 42.832031 61.257812 C 42.640625 61.3125 42.449219 61.363281 42.257812 61.417969 C 43.585938 61.210938 44.890625 60.859375 46.160156 60.421875 C 45.289062 60.648438 44.371094 60.738281 43.53125 61.066406 Z M 27.464844 60.890625 C 26.113281 59.957031 24.921875 58.804688 23.804688 57.601562 C 23.640625 57.730469 23.484375 57.863281 23.328125 58 C 23.121094 58.1875 22.925781 58.378906 22.734375 58.578125 C 24.171875 59.589844 25.8125 60.375 27.464844 60.890625 Z M 40.59375 60.472656 C 42.289062 60.273438 43.960938 59.882812 45.589844 59.378906 C 48.164062 58.375 50.59375 56.964844 52.71875 55.1875 C 57.796875 51.132812 61.304688 45.367188 63.339844 39.226562 C 64.238281 36.347656 64.820312 33.351562 64.703125 30.328125 C 63.839844 27.152344 62.289062 24.214844 60.46875 21.496094 C 61.289062 27.492188 59.464844 34.109375 56.507812 39.308594 C 53.039062 45.316406 48.171875 48.183594 42.007812 50.824219 C 38.570312 52.320312 35.03125 53.585938 31.417969 54.570312 C 29.820312 55.019531 28.195312 55.386719 26.652344 56 C 30.679688 58.910156 35.609375 60.648438 40.59375 60.46875 Z M 21.289062 59.160156 C 21.410156 59 21.535156 58.84375 21.660156 58.6875 C 18.929688 56.558594 16.726562 53.832031 14.714844 51.03125 C 16.398438 54.101562 18.546875 56.972656 21.289062 59.160156 Z M 30.414062 59.046875 C 28.796875 58.316406 27.300781 57.359375 25.855469 56.335938 C 25.8125 56.355469 25.769531 56.375 25.726562 56.398438 C 27.1875 57.453125 28.753906 58.355469 30.414062 59.046875 Z M 58.65625 52.839844 C 56.167969 55.234375 53.179688 57.039062 50.046875 58.449219 C 55.105469 56.539062 59.582031 53.34375 62.292969 48.554688 C 61.214844 50.089844 60.007812 51.539062 58.65625 52.839844 Z M 22.144531 58.144531 C 22.304688 57.96875 22.472656 57.800781 22.648438 57.636719 C 22.832031 57.460938 23.019531 57.296875 23.214844 57.136719 C 20.585938 55.503906 18.144531 53.570312 15.90625 51.429688 C 17.71875 53.894531 19.726562 56.261719 22.144531 58.140625 Z M 58.75 49.894531 C 56.984375 52.308594 54.875 54.449219 52.523438 56.292969 C 56.09375 54.152344 59.460938 51.488281 61.789062 47.980469 C 63.480469 45.507812 64.703125 42.71875 65.382812 39.792969 C 65.789062 37.648438 65.652344 35.445312 65.335938 33.296875 C 64.996094 36.917969 63.839844 40.414062 62.359375 43.714844 C 62.359375 43.710938 62.363281 43.710938 62.363281 43.707031 C 62.363281 43.707031 62.363281 43.703125 62.382812 43.671875 C 61.339844 45.84375 60.171875 47.949219 58.753906 49.890625 Z M 25.078125 55.914062 C 25.117188 55.890625 25.160156 55.871094 25.199219 55.851562 C 25.203125 55.847656 25.207031 55.84375 25.210938 55.84375 C 22.601562 53.847656 20.339844 51.414062 18.460938 48.714844 C 20.25 51.5 22.480469 53.90625 25.078125 55.914062 Z M 23.015625 55.242188 C 23.132812 55.332031 23.253906 55.414062 23.378906 55.5 C 23.449219 55.546875 23.515625 55.59375 23.585938 55.640625 C 23.496094 55.5625 23.40625 55.488281 23.3125 55.410156 C 22.761719 54.933594 22.230469 54.4375 21.714844 53.917969 C 21.910156 54.183594 22.101562 54.453125 22.3125 54.703125 C 22.546875 54.882812 22.78125 55.0625 23.015625 55.242188 Z M 25.945312 55.496094 C 28.164062 54.574219 30.535156 54.121094 32.828125 53.410156 C 35.5625 52.601562 38.25 51.628906 40.878906 50.515625 C 46.601562 48.105469 51.546875 45.585938 55.085938 40.226562 C 58.703125 34.679688 60.945312 26.746094 59.496094 20.171875 C 56.9375 16.800781 53.839844 13.769531 50.214844 11.578125 C 47.25 10.265625 44.164062 9.242188 41.011719 8.492188 C 38.230469 7.847656 35.355469 7.546875 32.507812 7.808594 C 31.351562 8.160156 30.21875 8.632812 29.175781 9.152344 C 21.375 13.214844 14.683594 21.867188 14.035156 30.828125 C 13.363281 40.433594 18.378906 49.828125 25.945312 55.496094 Z M 21.941406 55.394531 C 21.585938 54.972656 21.070312 54.722656 20.679688 54.339844 C 19.667969 53.496094 18.703125 52.601562 17.769531 51.671875 C 15.539062 49.402344 13.566406 46.894531 11.832031 44.222656 C 12.160156 45.222656 12.480469 46.226562 13.0625 47.101562 C 14.027344 48.339844 15.128906 49.457031 16.222656 50.582031 C 18.019531 52.3125 19.910156 53.945312 21.941406 55.394531 Z M 20.007812 52.816406 C 17.472656 49.164062 15.351562 45.246094 13.558594 41.179688 C 12.1875 38.066406 10.832031 34.859375 10.242188 31.496094 C 10.089844 34.109375 10.265625 36.796875 10.667969 39.367188 C 10.832031 40.136719 10.984375 40.90625 11.144531 41.679688 C 11.199219 41.777344 11.246094 41.878906 11.304688 41.972656 C 13.664062 45.992188 16.570312 49.6875 20.007812 52.820312 Z M 62.785156 49.148438 C 62.878906 49.023438 62.972656 48.898438 63.066406 48.773438 C 63.171875 48.546875 63.277344 48.320312 63.378906 48.089844 C 63.1875 48.449219 62.992188 48.800781 62.785156 49.144531 Z M 65.925781 42.242188 C 65.761719 43.15625 65.550781 44.0625 65.292969 44.953125 C 66.355469 42.582031 66.929688 39.980469 66.894531 37.375 C 66.714844 38.355469 66.480469 39.324219 66.203125 40.28125 C 66.132812 40.933594 66.039062 41.589844 65.925781 42.242188 Z M 10.035156 42.746094 C 9.152344 40.777344 8.492188 38.707031 7.96875 36.617188 C 7.457031 35.097656 6.976562 33.5625 6.753906 31.96875 C 6.917969 35.765625 8.171875 39.460938 10.035156 42.746094 Z M 12.335938 36.300781 C 12.941406 38.003906 13.675781 39.660156 14.40625 41.3125 C 12.632812 35.207031 12.894531 29.96875 14.554688 23.886719 C 16.363281 17.464844 19.65625 12.660156 25.464844 9.285156 C 24.613281 9.554688 23.757812 9.8125 22.9375 10.160156 C 22.285156 10.523438 21.597656 10.835938 20.964844 11.230469 C 20.351562 11.597656 19.824219 12.09375 19.28125 12.554688 C 15.914062 15.496094 13.300781 19.371094 11.832031 23.597656 C 11.351562 25 10.976562 26.433594 10.703125 27.890625 C 10.617188 30.796875 11.339844 33.609375 12.339844 36.300781 Z M 9.394531 38.214844 C 9.574219 38.601562 9.761719 38.988281 9.941406 39.375 C 9.339844 35.546875 9.257812 31.613281 9.976562 27.796875 C 10.15625 21.753906 13.160156 15.84375 18.066406 12.320312 C 17.09375 12.804688 16.183594 13.40625 15.261719 13.972656 C 14.621094 14.542969 14.023438 15.164062 13.464844 15.8125 C 11.726562 17.746094 10.234375 19.902344 9.046875 22.21875 C 8.601562 22.964844 8.523438 23.824219 8.382812 24.664062 C 8.308594 25.164062 8.195312 25.660156 8.152344 26.167969 C 7.785156 29.035156 7.816406 31.945312 8.332031 34.796875 C 8.449219 35.351562 8.570312 35.910156 8.691406 36.464844 C 8.929688 37.046875 9.152344 37.632812 9.394531 38.214844 Z M 6.835938 37.332031 C 6.921875 37.535156 7.023438 37.734375 7.117188 37.933594 C 5.722656 33.71875 5.597656 29.070312 7.136719 24.875 C 7.425781 23.765625 7.800781 22.675781 8.269531 21.632812 C 8.40625 21.113281 8.550781 20.601562 8.71875 20.09375 C 6.785156 22.761719 5.4375 25.921875 5.191406 29.222656 C 4.984375 32.019531 5.710938 34.796875 6.835938 37.335938 Z M 66.628906 31.039062 C 66.550781 28.9375 66.25 26.882812 65.78125 24.839844 C 65.191406 22.199219 64.34375 19.609375 63.148438 17.1875 C 61.8125 14.378906 59.644531 12.078125 57.28125 10.109375 C 60.917969 13.824219 63.066406 18.683594 64.4375 23.648438 C 65.019531 25.25 65.535156 26.871094 65.964844 28.519531 C 66.152344 29.371094 66.347656 30.214844 66.628906 31.035156 Z M 65.503906 30.113281 C 65.554688 30.296875 65.609375 30.480469 65.660156 30.664062 C 65.671875 30.703125 65.679688 30.738281 65.691406 30.777344 C 65.621094 30.363281 65.570312 29.941406 65.398438 29.554688 C 65.394531 29.75 65.445312 29.929688 65.503906 30.113281 Z M 63.777344 24.054688 C 63.242188 22.347656 62.464844 20.714844 61.726562 19.085938 C 60.976562 17.429688 60.101562 15.832031 59.097656 14.320312 C 57.824219 12.429688 56.300781 10.675781 54.402344 9.40625 C 50.082031 6.527344 44.710938 6.078125 39.664062 6.1875 C 46.386719 6.503906 53.992188 8.371094 57.882812 14.386719 C 58.335938 15.070312 58.722656 15.800781 59.058594 16.550781 C 59.417969 16.996094 59.777344 17.445312 60.101562 17.917969 C 61.480469 19.867188 62.707031 21.917969 63.777344 24.054688 Z M 60.625 20.480469 C 60.738281 20.632812 60.855469 20.785156 60.96875 20.941406 C 60.683594 20.453125 60.394531 19.980469 60.082031 19.511719 C 60.125 19.902344 60.410156 20.171875 60.625 20.484375 Z M 16.820312 19.753906 C 16.726562 19.960938 16.628906 20.164062 16.546875 20.378906 C 16.484375 20.535156 16.425781 20.695312 16.363281 20.851562 C 19.355469 15.558594 23.828125 10.953125 29.304688 8.28125 C 23.878906 10.261719 19.183594 14.429688 16.820312 19.753906 Z M 10.074219 18.492188 C 10.132812 18.40625 10.191406 18.324219 10.253906 18.242188 C 10.277344 18.210938 10.300781 18.175781 10.324219 18.144531 C 10.261719 18.210938 10.199219 18.277344 10.136719 18.347656 C 10.117188 18.394531 10.09375 18.441406 10.074219 18.492188 Z M 56.066406 15.210938 C 57.097656 16.207031 58.085938 17.257812 58.992188 18.371094 C 58.875 17.992188 58.75 17.640625 58.453125 17.367188 C 57.46875 16.25 56.355469 15.25 55.148438 14.375 C 55.457031 14.652344 55.761719 14.933594 56.066406 15.210938 Z M 11.152344 16.277344 C 12.273438 15.234375 13.476562 14.285156 14.75 13.4375 C 16.210938 12.03125 17.800781 10.746094 19.480469 9.621094 C 23.726562 6.785156 28.523438 4.761719 33.511719 3.730469 C 25.558594 4.535156 15.214844 9.015625 11.152344 16.277344 Z M 38.957031 6.9375 C 45.429688 7.648438 52.039062 9.714844 56.902344 14.242188 C 54.304688 10.554688 49.992188 8.609375 45.710938 7.6875 C 43.367188 7.21875 40.996094 6.863281 38.605469 6.914062 C 38.722656 6.921875 38.839844 6.929688 38.960938 6.9375 Z M 50.644531 10.976562 C 51.332031 11.320312 52.03125 11.640625 52.714844 11.996094 C 51.695312 11.375 50.628906 10.832031 49.535156 10.351562 C 49.910156 10.550781 50.273438 10.769531 50.644531 10.976562 Z M 21.253906 10.015625 C 21.296875 9.996094 21.339844 9.980469 21.382812 9.960938 C 21.394531 9.949219 21.410156 9.941406 21.421875 9.929688 C 21.367188 9.960938 21.308594 9.988281 21.253906 10.015625 Z M 42.46875 5.457031 C 46.800781 5.621094 51.304688 6.371094 54.941406 8.894531 C 52.292969 6.574219 49.449219 5.34375 46.03125 4.65625 C 40.140625 3.378906 33.921875 4.402344 28.460938 6.828125 C 29.636719 6.613281 30.828125 6.507812 32.023438 6.46875 C 32.402344 6.484375 32.761719 6.390625 33.128906 6.3125 C 36.183594 5.605469 39.335938 5.363281 42.46875 5.457031 Z M 22.511719 8.621094 C 23.371094 8.246094 24.253906 7.925781 25.148438 7.644531 C 26.824219 6.710938 28.585938 5.921875 30.386719 5.265625 C 27.664062 6.121094 25 7.203125 22.511719 8.621094 Z M 40.964844 34.199219 C 39.984375 34.203125 39.019531 34.042969 38.054688 33.90625 C 37.726562 33.871094 37.398438 33.839844 37.066406 33.785156 C 36.878906 33.757812 36.742188 33.585938 36.757812 33.394531 C 36.546875 33.554688 36.21875 33.40625 36.191406 33.148438 C 35.695312 32.136719 35.289062 31.085938 34.972656 30.003906 C 34.609375 28.910156 34.414062 27.769531 34.429688 26.617188 C 34.414062 25.816406 34.488281 25.007812 34.757812 24.25 C 35.683594 21.6875 37.902344 19.980469 40.621094 19.886719 C 42.476562 19.777344 44.113281 20.859375 44.75 22.613281 C 45.410156 24.382812 45.667969 26.363281 45.269531 28.222656 C 44.890625 29.914062 44.246094 31.472656 43.585938 33.054688 C 43.453125 33.351562 43.335938 33.65625 43.148438 33.925781 C 42.882812 34.269531 42.398438 34.183594 42.011719 34.203125 C 41.664062 34.203125 41.3125 34.203125 40.964844 34.199219 Z M 41.328125 33.472656 C 41.707031 33.472656 42.082031 33.484375 42.457031 33.464844 C 42.503906 33.464844 42.550781 33.457031 42.59375 33.449219 C 43.210938 32.246094 43.648438 30.96875 44.105469 29.695312 C 44.410156 28.820312 44.636719 27.917969 44.722656 26.992188 C 44.785156 23.117188 43.519531 19.488281 38.945312 20.929688 C 36.90625 21.597656 35.363281 23.617188 35.175781 25.761719 C 35.136719 26.492188 35.144531 27.222656 35.226562 27.953125 C 35.347656 28.871094 35.652344 29.789062 35.933594 30.636719 C 36.097656 31.105469 36.261719 31.570312 36.464844 32.027344 C 36.597656 32.390625 36.890625 32.734375 36.910156 33.128906 C 36.984375 33.074219 37.074219 33.050781 37.164062 33.0625 C 37.679688 33.132812 38.199219 33.183594 38.714844 33.261719 C 39.621094 33.410156 40.4375 33.480469 41.328125 33.472656 Z M 41.839844 37.164062 C 42.167969 37.140625 42.523438 37.214844 42.835938 37.105469 C 43.367188 36.835938 43.367188 35.625 43.417969 35.074219 C 43.371094 34.488281 42.609375 34.527344 42.183594 34.382812 C 41.109375 34.082031 39.988281 34.039062 38.878906 34.066406 C 38.519531 34.066406 38.160156 34.0625 37.800781 34.058594 C 37.324219 34.066406 37.324219 34.773438 37.800781 34.785156 C 38.660156 34.808594 39.523438 34.769531 40.382812 34.8125 C 41.164062 34.867188 41.929688 35.0625 42.6875 35.253906 C 42.648438 35.652344 42.613281 36.054688 42.496094 36.433594 C 40.730469 36.417969 38.980469 36.488281 37.21875 36.355469 C 37.226562 35.808594 37.246094 35.261719 37.273438 34.71875 C 37.28125 34.441406 37.417969 34.085938 37.042969 33.960938 C 36.425781 33.855469 36.585938 34.699219 36.53125 35.082031 C 36.527344 35.625 36.457031 36.171875 36.523438 36.710938 C 36.644531 37.113281 37.152344 37.070312 37.488281 37.105469 C 38.207031 37.15625 38.933594 37.160156 39.65625 37.160156 C 40.382812 37.164062 41.109375 37.164062 41.835938 37.160156 Z M 39.535156 33.613281 C 38.679688 32.003906 37.761719 30.222656 38.160156 28.34375 C 38.296875 27.410156 39.144531 26.332031 40.167969 26.527344 C 41.425781 26.960938 41.269531 28.613281 41.238281 29.691406 C 41.191406 30.902344 40.886719 32.074219 40.515625 33.21875 C 40.46875 33.367188 40.34375 33.472656 40.195312 33.488281 C 40.148438 33.796875 39.699219 33.886719 39.535156 33.609375 Z M 39.902344 32.746094 C 40.234375 31.761719 40.453125 30.742188 40.511719 29.699219 C 40.511719 29.710938 40.511719 29.722656 40.511719 29.734375 C 40.511719 29.734375 40.511719 29.738281 40.511719 29.738281 C 40.527344 28.996094 40.640625 28.167969 40.289062 27.492188 C 39.792969 26.726562 38.9375 27.859375 38.878906 28.417969 C 38.539062 29.945312 39.210938 31.425781 39.902344 32.746094 Z M 32.492188 33.992188 C 32.871094 33.8125 33.242188 33.609375 33.601562 33.390625 C 33.921875 33.152344 34.863281 32.726562 34.445312 32.238281 C 34.089844 31.910156 33.796875 32.433594 33.503906 32.59375 C 33.132812 32.828125 32.75 33.042969 32.363281 33.246094 C 32.132812 33.332031 31.90625 33.53125 32.019531 33.800781 C 32.09375 33.976562 32.316406 34.078125 32.492188 33.992188 Z M 31.863281 28.507812 C 32.335938 28.496094 32.335938 27.789062 31.863281 27.777344 C 31.347656 27.785156 30.828125 27.890625 30.316406 27.796875 C 29.84375 27.742188 29.75 28.441406 30.214844 28.515625 C 30.761719 28.621094 31.3125 28.515625 31.863281 28.503906 Z M 33.429688 21.636719 C 33.453125 21.449219 33.335938 21.289062 33.164062 21.234375 C 33.140625 21.21875 33.113281 21.199219 33.089844 21.175781 C 32.570312 20.640625 32.167969 20 31.746094 19.386719 C 31.570312 19.140625 31.378906 18.652344 30.996094 18.867188 C 30.832031 18.964844 30.761719 19.195312 30.867188 19.363281 C 31.179688 19.855469 31.511719 20.332031 31.851562 20.804688 C 32.1875 21.21875 32.484375 21.792969 33.023438 21.949219 C 33.214844 21.980469 33.40625 21.828125 33.433594 21.636719 Z M 37.273438 17.707031 C 37.355469 17.429688 37.09375 17.355469 37.039062 17.128906 C 36.921875 16.746094 36.847656 16.367188 36.769531 15.972656 C 36.699219 15.632812 36.625 15.273438 36.554688 14.925781 C 36.488281 14.621094 36.035156 14.566406 35.890625 14.839844 C 35.839844 14.929688 35.835938 15.023438 35.855469 15.121094 C 35.90625 15.367188 35.957031 15.609375 36.007812 15.855469 C 36.007812 15.847656 36.003906 15.839844 36.003906 15.832031 C 36.015625 15.894531 36.03125 15.960938 36.042969 16.023438 C 36.039062 16 36.035156 15.992188 36.035156 15.988281 C 36.035156 15.984375 36.03125 15.976562 36.03125 15.972656 C 36.179688 16.511719 36.234375 17.757812 36.828125 17.960938 C 37.011719 18.019531 37.222656 17.894531 37.273438 17.707031 Z M 44.351562 16.609375 C 44.457031 16.320312 44.613281 16.058594 44.777344 15.800781 C 44.976562 15.507812 45.175781 15.203125 45.367188 14.894531 C 45.601562 14.476562 44.992188 14.121094 44.742188 14.527344 C 44.371094 15.15625 43.878906 15.726562 43.648438 16.429688 C 43.585938 16.617188 43.71875 16.828125 43.898438 16.878906 C 44.09375 16.9375 44.292969 16.804688 44.347656 16.609375 Z M 48.664062 22.40625 C 48.535156 22.398438 48.394531 22.398438 48.277344 22.332031 C 47.980469 22.160156 48.066406 21.695312 48.40625 21.648438 C 48.652344 21.671875 48.890625 21.691406 49.136719 21.664062 C 49.46875 21.640625 49.800781 21.609375 50.128906 21.570312 C 50.324219 21.546875 50.507812 21.683594 50.535156 21.882812 C 50.5625 22.078125 50.421875 22.265625 50.226562 22.292969 C 49.707031 22.347656 49.1875 22.417969 48.664062 22.40625 Z M 48.8125 21.960938 L 48.800781 21.914062 C 48.789062 21.878906 48.777344 21.839844 48.75 21.8125 C 48.78125 21.855469 48.800781 21.90625 48.808594 21.960938 Z M 50.777344 27.714844 C 50.125 27.574219 49.5 27.339844 48.867188 27.144531 C 48.554688 27.136719 48.382812 27.554688 48.613281 27.769531 C 49.214844 28.105469 49.921875 28.234375 50.585938 28.417969 C 51.046875 28.53125 51.234375 27.851562 50.777344 27.714844 Z M 50.050781 33.242188 C 49.683594 32.980469 49.3125 32.71875 48.960938 32.425781 C 48.738281 32.25 48.589844 32 48.386719 31.804688 C 48.03125 31.53125 47.601562 32.035156 47.914062 32.351562 C 48.359375 32.96875 49.003906 33.382812 49.609375 33.820312 C 49.996094 34.101562 50.421875 33.539062 50.050781 33.242188 Z M 47.710938 36.09375 C 47.296875 35.457031 46.867188 34.824219 46.507812 34.148438 C 46.453125 33.703125 45.855469 33.652344 45.773438 34.101562 C 45.785156 34.566406 46.164062 34.957031 46.371094 35.355469 C 46.605469 35.726562 46.84375 36.097656 47.085938 36.460938 C 47.140625 36.542969 47.207031 36.601562 47.304688 36.628906 C 47.597656 36.722656 47.886719 36.355469 47.710938 36.09375 Z M 47.710938 36.09375 "/></g></g></svg>