<svg xmlns="http://www.w3.org/2000/svg" xmlns:xlink="http://www.w3.org/1999/xlink" width="100" zoomAndPan="magnify" viewBox="0 0 75 74.999997" height="100" preserveAspectRatio="xMidYMid meet" version="1.2"><g id="8e8bf6aa92"><path style=" stroke:none;fill-rule:nonzero;fill:#000000;fill-opacity:1;" d="M 71.121094 37.003906 C 71.121094 37.003906 71.121094 37.003906 71.121094 36.988281 C 72.527344 34.890625 73.449219 31.730469 73.449219 28.917969 C 73.449219 24.050781 70.558594 19.578125 66.179688 17.558594 C 66.339844 16.660156 66.417969 15.765625 66.417969 14.871094 C 66.417969 6.671875 59.746094 -0.0078125 51.546875 -0.0078125 L 50.0625 -0.0078125 C 46.484375 -0.0078125 43.125 1.378906 40.59375 3.921875 C 39.203125 5.308594 38.164062 6.964844 37.507812 8.753906 C 36.84375 6.945312 35.796875 5.300781 34.40625 3.921875 C 31.882812 1.390625 28.527344 -0.0078125 24.9375 -0.0078125 L 23.453125 -0.0078125 C 15.253906 -0.0078125 8.582031 6.664062 8.582031 14.871094 C 8.582031 15.765625 8.667969 16.660156 8.820312 17.558594 C 4.449219 19.578125 1.550781 24.050781 1.550781 28.917969 C 1.550781 31.730469 2.472656 34.890625 3.886719 36.972656 C 3.597656 37.210938 3.316406 37.484375 3.042969 37.765625 C 1.160156 39.722656 -0.0078125 41.539062 -0.0078125 44.53125 C -0.0078125 49.765625 3.683594 54.222656 8.726562 55.269531 C 8.632812 55.753906 8.582031 56.25 8.574219 56.761719 C 8.4375 62.234375 12.9375 67.023438 18.410156 67.203125 C 19.328125 67.226562 20.207031 67.152344 21.050781 66.953125 C 21.195312 70.183594 23.054688 72.972656 25.953125 74.222656 C 27.179688 74.753906 28.449219 75.007812 29.691406 75.007812 C 31.21875 75.007812 32.710938 74.617188 34.03125 73.839844 C 35.566406 72.945312 36.757812 71.609375 37.492188 70.046875 C 38.222656 71.617188 39.425781 72.953125 40.953125 73.839844 C 42.273438 74.617188 43.765625 75.007812 45.289062 75.007812 C 46.535156 75.007812 47.804688 74.753906 49.023438 74.222656 C 51.921875 72.980469 53.769531 70.210938 53.921875 66.953125 C 54.777344 67.152344 55.660156 67.226562 56.574219 67.203125 C 62.035156 67.015625 66.535156 62.234375 66.410156 56.761719 C 66.410156 56.25 66.347656 55.753906 66.253906 55.269531 C 71.300781 54.230469 74.992188 49.773438 74.992188 44.53125 C 74.992188 41.539062 73.824219 39.722656 71.941406 37.765625 C 71.675781 37.484375 71.386719 37.21875 71.113281 37.003906 Z M 38.335938 13.390625 C 38.335938 10.253906 39.5625 7.3125 41.777344 5.105469 C 43.984375 2.890625 46.925781 1.660156 50.0625 1.660156 L 51.546875 1.660156 C 58.832031 1.660156 64.753906 7.585938 64.753906 14.871094 C 64.753906 15.871094 64.636719 16.882812 64.414062 17.871094 C 64.328125 18.273438 64.542969 18.683594 64.925781 18.828125 C 69.027344 20.4375 71.785156 24.496094 71.785156 28.910156 C 71.785156 31.363281 70.960938 34.234375 69.742188 36.050781 C 69.605469 36.238281 69.535156 36.441406 69.496094 36.65625 L 60.777344 36.65625 C 59.933594 36.65625 59.15625 37.117188 58.765625 37.859375 C 58.363281 38.597656 58.414062 39.503906 58.890625 40.210938 C 59.25 40.730469 59.523438 41.308594 59.71875 41.941406 C 59.898438 42.546875 59.984375 43.175781 59.984375 43.808594 C 59.984375 45.792969 59.078125 47.667969 57.5625 48.835938 C 56.25 49.839844 54.664062 50.222656 52.941406 49.847656 C 50.285156 49.253906 48.359375 46.703125 48.359375 43.808594 C 48.359375 42.484375 48.734375 41.25 49.457031 40.191406 C 49.566406 40.03125 49.644531 39.871094 49.6875 39.734375 C 49.941406 39.066406 49.875 38.335938 49.5 37.730469 C 49.132812 37.152344 48.546875 36.777344 47.863281 36.683594 C 47.734375 36.65625 47.632812 36.65625 47.566406 36.65625 L 38.335938 36.65625 L 38.335938 29.089844 C 38.335938 28.753906 38.558594 28.59375 38.660156 28.542969 C 38.753906 28.492188 39 28.390625 39.265625 28.566406 C 40.585938 29.480469 42.160156 29.957031 43.816406 29.957031 C 48.136719 29.957031 51.664062 26.609375 51.664062 22.484375 C 51.664062 22.246094 51.664062 21.988281 51.628906 21.777344 C 51.246094 17.914062 47.890625 15.007812 43.816406 15.007812 C 42.160156 15.007812 40.59375 15.496094 39.273438 16.390625 C 39 16.578125 38.746094 16.472656 38.660156 16.421875 C 38.558594 16.371094 38.335938 16.21875 38.335938 15.878906 L 38.335938 13.371094 Z M 3.222656 28.917969 C 3.222656 24.503906 5.984375 20.4375 10.082031 18.835938 C 10.464844 18.683594 10.671875 18.273438 10.59375 17.878906 C 10.371094 16.890625 10.253906 15.878906 10.253906 14.878906 C 10.253906 7.59375 16.175781 1.671875 23.464844 1.671875 L 24.945312 1.671875 C 28.082031 1.671875 31.023438 2.898438 33.230469 5.113281 C 34.832031 6.699219 35.921875 8.683594 36.402344 10.867188 C 36.589844 11.683594 36.671875 12.535156 36.671875 13.398438 L 36.671875 15.902344 C 36.671875 16.746094 37.132812 17.523438 37.875 17.914062 C 38.617188 18.316406 39.519531 18.265625 40.226562 17.785156 C 41.265625 17.070312 42.511719 16.695312 43.824219 16.695312 C 47.027344 16.695312 49.679688 18.964844 49.984375 21.988281 C 50.003906 22.160156 50.011719 22.328125 50.011719 22.507812 C 50.011719 25.714844 47.234375 28.320312 43.824219 28.320312 C 42.511719 28.320312 41.265625 27.945312 40.21875 27.222656 C 39.519531 26.753906 38.617188 26.703125 37.875 27.101562 C 37.132812 27.496094 36.671875 28.269531 36.671875 29.113281 L 36.671875 36.683594 L 27.484375 36.683594 C 27.484375 36.683594 27.410156 36.683594 27.375 36.664062 C 27.078125 36.648438 26.933594 36.433594 26.890625 36.339844 C 26.839844 36.246094 26.753906 36 26.921875 35.753906 C 27.835938 34.433594 28.3125 32.855469 28.3125 31.203125 C 28.3125 26.871094 24.964844 23.351562 20.839844 23.351562 C 20.609375 23.351562 20.371094 23.351562 20.148438 23.386719 L 20.121094 23.386719 C 16.269531 23.769531 13.363281 27.128906 13.363281 31.203125 C 13.363281 32.089844 13.507812 32.941406 13.765625 33.722656 C 13.984375 34.441406 14.328125 35.121094 14.746094 35.746094 C 14.933594 36.015625 14.828125 36.273438 14.777344 36.359375 C 14.726562 36.460938 14.574219 36.683594 14.234375 36.683594 L 5.515625 36.683594 C 5.472656 36.46875 5.394531 36.265625 5.265625 36.078125 C 4.046875 34.261719 3.222656 31.390625 3.222656 28.933594 Z M 36.664062 66.375 C 36.664062 66.648438 36.648438 66.910156 36.613281 67.160156 C 36.375 69.332031 35.097656 71.292969 33.195312 72.402344 C 31.21875 73.550781 28.882812 73.660156 26.617188 72.683594 C 24.085938 71.589844 22.558594 69.007812 22.722656 66.128906 L 22.746094 65.914062 C 22.78125 65.632812 22.660156 65.351562 22.441406 65.164062 C 22.210938 64.984375 21.902344 64.941406 21.628906 65.035156 C 20.660156 65.402344 19.585938 65.574219 18.460938 65.53125 C 13.890625 65.378906 10.125 61.378906 10.246094 56.785156 C 10.261719 56.105469 10.363281 55.441406 10.535156 54.816406 C 10.601562 54.589844 10.566406 54.324219 10.421875 54.128906 C 10.285156 53.921875 10.074219 53.785156 9.835938 53.761719 C 5.171875 53.199219 1.660156 49.226562 1.660156 44.523438 C 1.660156 42.066406 2.574219 40.652344 4.246094 38.90625 C 4.441406 38.710938 4.652344 38.515625 4.859375 38.335938 L 14.222656 38.335938 C 15.066406 38.335938 15.84375 37.875 16.234375 37.132812 C 16.636719 36.390625 16.585938 35.488281 16.109375 34.78125 C 15.777344 34.296875 15.519531 33.765625 15.339844 33.195312 C 15.128906 32.566406 15.015625 31.875 15.015625 31.175781 C 15.015625 27.964844 17.277344 25.320312 20.199219 25.023438 C 20.234375 25.023438 20.265625 25.023438 20.300781 25.023438 C 20.472656 25.003906 20.652344 24.996094 20.828125 24.996094 C 24.027344 24.996094 26.640625 27.777344 26.640625 31.183594 C 26.640625 32.503906 26.265625 33.742188 25.542969 34.796875 C 25.082031 35.480469 25.023438 36.324219 25.378906 37.058594 C 25.730469 37.753906 26.386719 38.222656 27.152344 38.308594 C 27.273438 38.335938 27.367188 38.335938 27.425781 38.335938 L 36.65625 38.335938 L 36.65625 45.902344 C 36.65625 46.082031 36.597656 46.226562 36.484375 46.328125 C 36.46875 46.328125 36.460938 46.355469 36.453125 46.363281 C 36.417969 46.390625 36.382812 46.414062 36.308594 46.449219 C 36.214844 46.5 35.964844 46.59375 35.71875 46.421875 C 34.398438 45.511719 32.820312 45.035156 31.167969 45.035156 C 30.808594 45.035156 30.433594 45.058594 30.042969 45.109375 C 26.207031 45.640625 23.316406 48.816406 23.316406 52.507812 C 23.316406 53.34375 23.464844 54.160156 23.734375 54.910156 C 24.390625 56.761719 25.824219 58.328125 27.683594 59.222656 C 29.53125 60.09375 31.78125 60.222656 33.722656 59.574219 C 34.414062 59.371094 35.078125 59.027344 35.710938 58.609375 C 35.972656 58.421875 36.238281 58.527344 36.324219 58.578125 C 36.425781 58.628906 36.648438 58.78125 36.648438 59.121094 L 36.648438 66.390625 Z M 65.15625 53.761719 C 64.917969 53.785156 64.695312 53.921875 64.566406 54.128906 C 64.421875 54.324219 64.390625 54.589844 64.457031 54.816406 C 64.636719 55.433594 64.730469 56.105469 64.746094 56.796875 C 64.867188 61.378906 61.097656 65.378906 56.53125 65.53125 C 55.40625 65.574219 54.339844 65.402344 53.359375 65.035156 C 53.089844 64.933594 52.789062 64.984375 52.550781 65.164062 C 52.328125 65.351562 52.210938 65.632812 52.246094 65.914062 L 52.261719 66.09375 C 52.441406 69.007812 50.914062 71.589844 48.375 72.691406 C 46.109375 73.660156 43.765625 73.566406 41.796875 72.410156 C 39.894531 71.300781 38.617188 69.339844 38.378906 67.132812 C 38.34375 66.921875 38.328125 66.65625 38.328125 66.382812 L 38.328125 59.113281 C 38.328125 58.269531 37.867188 57.496094 37.125 57.101562 C 36.382812 56.703125 35.480469 56.753906 34.773438 57.230469 C 34.285156 57.5625 33.765625 57.816406 33.214844 57.988281 C 31.636719 58.515625 29.863281 58.398438 28.398438 57.714844 C 26.949219 57.027344 25.816406 55.796875 25.304688 54.359375 C 25.097656 53.777344 24.988281 53.15625 24.988281 52.515625 C 24.988281 49.652344 27.265625 47.183594 30.273438 46.765625 C 31.984375 46.550781 33.496094 46.925781 34.78125 47.804688 C 35.464844 48.273438 36.347656 48.324219 37.03125 47.964844 C 37.253906 47.863281 37.457031 47.726562 37.636719 47.546875 C 38.070312 47.121094 38.316406 46.535156 38.316406 45.910156 L 38.316406 38.34375 L 47.523438 38.34375 C 47.523438 38.34375 47.589844 38.34375 47.617188 38.359375 C 47.871094 38.378906 48.007812 38.539062 48.066406 38.632812 C 48.171875 38.796875 48.195312 38.972656 48.109375 39.1875 C 48.109375 39.214844 48.09375 39.246094 48.066406 39.28125 C 47.15625 40.601562 46.679688 42.179688 46.679688 43.832031 C 46.679688 47.496094 49.152344 50.726562 52.566406 51.511719 C 53.113281 51.628906 53.632812 51.691406 54.152344 51.691406 C 55.753906 51.691406 57.273438 51.171875 58.558594 50.183594 C 60.476562 48.707031 61.628906 46.339844 61.628906 43.839844 C 61.628906 43.046875 61.515625 42.265625 61.296875 41.496094 C 61.058594 40.695312 60.699219 39.945312 60.246094 39.296875 C 60.058594 39.027344 60.160156 38.769531 60.214844 38.683594 C 60.265625 38.582031 60.417969 38.359375 60.757812 38.359375 L 70.125 38.359375 C 70.328125 38.546875 70.542969 38.734375 70.738281 38.933594 C 72.417969 40.679688 73.320312 42.09375 73.320312 44.546875 C 73.320312 49.253906 69.800781 53.214844 65.148438 53.785156 Z M 65.15625 53.761719 "/></g></svg>