<svg xmlns="http://www.w3.org/2000/svg" xmlns:xlink="http://www.w3.org/1999/xlink" width="100" zoomAndPan="magnify" viewBox="0 0 75 74.999997" height="100" preserveAspectRatio="xMidYMid meet" version="1.2"><g id="2b81730780"><path style=" stroke:none;fill-rule:nonzero;fill:#000000;fill-opacity:1;" d="M 0.757812 28.320312 C 0.816406 28.320312 0.878906 28.339844 0.945312 28.339844 L 4.097656 28.339844 C 5.660156 28.339844 6.929688 27.078125 6.929688 25.535156 L 6.929688 24.128906 C 6.929688 23.097656 7.347656 22.109375 8.097656 21.375 C 8.863281 20.625 9.902344 20.234375 10.976562 20.25 C 13.097656 20.300781 14.839844 22.132812 14.839844 24.339844 L 14.839844 25.535156 C 14.839844 27.078125 16.109375 28.339844 17.667969 28.339844 L 25.941406 28.339844 C 26.410156 28.339844 26.777344 27.964844 26.777344 27.503906 L 26.777344 19.363281 C 26.777344 18.742188 27.308594 18.230469 27.953125 18.230469 L 29.15625 18.230469 C 32.308594 18.230469 34.933594 15.800781 35.003906 12.828125 C 35.035156 11.335938 34.484375 9.921875 33.433594 8.847656 C 32.371094 7.753906 30.921875 7.152344 29.371094 7.152344 L 27.953125 7.152344 C 27.308594 7.152344 26.777344 6.640625 26.777344 6.015625 L 26.777344 0.835938 C 26.777344 0.367188 26.386719 -0.015625 25.933594 0 C 19.003906 0 12.503906 2.617188 7.609375 7.371094 C 2.703125 12.144531 0 18.484375 0 25.234375 C 0 26.027344 0.0351562 26.769531 0.109375 27.496094 C 0.109375 27.894531 0.382812 28.21875 0.757812 28.3125 Z M 8.769531 8.582031 C 13.160156 4.3125 18.9375 1.882812 25.109375 1.6875 L 25.109375 6.007812 C 25.109375 7.550781 26.386719 8.8125 27.945312 8.8125 L 29.359375 8.8125 C 30.460938 8.8125 31.472656 9.238281 32.234375 10.015625 C 32.957031 10.765625 33.347656 11.746094 33.324219 12.785156 C 33.265625 14.871094 31.390625 16.566406 29.140625 16.566406 L 27.9375 16.566406 C 26.371094 16.566406 25.097656 17.828125 25.097656 19.371094 L 25.097656 26.683594 L 17.660156 26.683594 C 17.019531 26.683594 16.492188 26.171875 16.492188 25.550781 L 16.492188 24.359375 C 16.492188 21.246094 14.035156 18.664062 11.011719 18.597656 L 10.859375 18.597656 C 9.375 18.597656 7.976562 19.160156 6.921875 20.199219 C 5.847656 21.246094 5.25 22.644531 5.25 24.136719 L 5.25 25.542969 C 5.25 26.164062 4.722656 26.675781 4.082031 26.675781 L 1.695312 26.675781 C 1.671875 26.214844 1.652344 25.738281 1.652344 25.253906 C 1.652344 18.953125 4.175781 13.039062 8.753906 8.582031 Z M 8.769531 8.582031 "/><path style=" stroke:none;fill-rule:nonzero;fill:#000000;fill-opacity:1;" d="M 67.738281 50.746094 C 71.8125 46.652344 74.351562 41.300781 74.890625 35.675781 C 75 34.578125 75.027344 33.410156 74.972656 32.214844 C 74.402344 19.644531 63.777344 9.160156 50.777344 8.386719 C 50.214844 8.351562 49.671875 8.335938 49.109375 8.335938 C 48.648438 8.335938 48.273438 8.710938 48.273438 9.171875 L 48.273438 14.292969 C 48.273438 15.835938 49.542969 17.078125 51.09375 17.078125 L 52.515625 17.078125 C 53.617188 17.078125 54.628906 17.503906 55.390625 18.28125 C 56.105469 19.023438 56.488281 19.984375 56.464844 21.015625 C 56.410156 23.078125 54.546875 24.757812 52.296875 24.757812 L 51.085938 24.757812 C 49.527344 24.757812 48.265625 26.011719 48.265625 27.546875 L 48.265625 34.773438 L 40.839844 34.773438 C 40.203125 34.773438 39.683594 34.269531 39.683594 33.664062 L 39.683594 32.488281 C 39.683594 29.394531 37.226562 26.839844 34.210938 26.769531 C 32.652344 26.726562 31.210938 27.296875 30.109375 28.363281 C 29.046875 29.402344 28.457031 30.800781 28.457031 32.277344 L 28.457031 33.664062 C 28.457031 34.269531 27.929688 34.773438 27.296875 34.773438 L 24.144531 34.773438 C 23.710938 34.773438 23.359375 35.105469 23.316406 35.53125 C 23.316406 35.617188 23.316406 35.691406 23.316406 35.769531 C 23.855469 41.222656 26.164062 46.253906 30.027344 50.300781 C 35.105469 55.636719 38.574219 61.882812 40.074219 68.394531 L 40.125 68.625 C 39.007812 69.179688 38.234375 70.3125 38.234375 71.660156 C 38.234375 73.507812 39.734375 75.007812 41.582031 75.007812 L 56.589844 75.007812 C 58.433594 75.007812 59.933594 73.507812 59.933594 71.625 C 59.933594 70.3125 59.15625 69.171875 58.039062 68.625 C 58.816406 65.242188 60.007812 62.011719 61.601562 59.027344 C 63.246094 55.941406 65.292969 53.164062 67.714844 50.753906 Z M 49.941406 27.535156 C 49.941406 26.921875 50.464844 26.421875 51.101562 26.421875 L 52.3125 26.421875 C 55.457031 26.421875 58.074219 24.007812 58.140625 21.050781 C 58.175781 19.578125 57.621094 18.179688 56.589844 17.113281 C 55.515625 16.015625 54.078125 15.410156 52.527344 15.410156 L 51.101562 15.410156 C 50.464844 15.410156 49.941406 14.90625 49.941406 14.292969 L 49.941406 10.015625 C 50.183594 10.015625 50.4375 10.03125 50.675781 10.046875 C 62.828125 10.78125 72.765625 20.558594 73.304688 32.292969 C 73.347656 33.136719 73.339844 33.964844 73.285156 34.753906 L 70.910156 34.753906 C 69.347656 34.753906 68.089844 36.007812 68.089844 37.542969 L 68.089844 38.71875 C 68.089844 40.902344 66.367188 42.722656 64.246094 42.765625 C 63.144531 42.792969 62.121094 42.402344 61.347656 41.640625 C 60.605469 40.925781 60.195312 39.953125 60.195312 38.933594 L 60.195312 37.542969 C 60.195312 36.007812 58.925781 34.753906 57.375 34.753906 L 49.953125 34.753906 L 49.953125 27.527344 Z M 31.261719 49.140625 C 27.859375 45.570312 25.746094 41.191406 25.097656 36.425781 L 27.308594 36.425781 C 28.867188 36.425781 30.128906 35.183594 30.128906 33.648438 L 30.128906 32.257812 C 30.128906 31.234375 30.535156 30.265625 31.277344 29.539062 C 32.054688 28.789062 33.078125 28.390625 34.175781 28.421875 C 36.289062 28.464844 38.019531 30.28125 38.019531 32.472656 L 38.019531 33.648438 C 38.019531 35.183594 39.289062 36.425781 40.839844 36.425781 L 48.265625 36.425781 L 48.265625 43.660156 C 48.265625 44.277344 47.746094 44.777344 47.105469 44.777344 L 45.683594 44.777344 C 44.128906 44.777344 42.683594 45.382812 41.617188 46.484375 C 40.585938 47.539062 40.03125 48.9375 40.066406 50.421875 C 40.140625 53.378906 42.757812 55.789062 45.894531 55.789062 L 47.105469 55.789062 C 47.746094 55.789062 48.265625 56.292969 48.265625 56.898438 L 48.265625 68.277344 L 41.769531 68.277344 L 41.703125 68.027344 C 40.140625 61.226562 36.527344 54.707031 31.246094 49.152344 Z M 58.296875 71.652344 C 58.296875 72.578125 57.546875 73.339844 56.617188 73.339844 L 41.609375 73.339844 C 40.671875 73.339844 39.921875 72.578125 39.921875 71.625 C 39.921875 70.671875 40.671875 69.9375 41.609375 69.9375 L 56.617188 69.9375 C 57.546875 69.9375 58.296875 70.695312 58.296875 71.652344 Z M 56.445312 68.265625 L 49.941406 68.265625 L 49.941406 56.890625 C 49.941406 55.355469 48.671875 54.109375 47.121094 54.109375 L 45.910156 54.109375 C 43.660156 54.109375 41.796875 52.421875 41.746094 50.371094 C 41.71875 49.347656 42.101562 48.375 42.816406 47.632812 C 43.578125 46.859375 44.589844 46.433594 45.691406 46.433594 L 47.113281 46.433594 C 48.671875 46.433594 49.933594 45.179688 49.933594 43.644531 L 49.933594 36.410156 L 57.359375 36.410156 C 57.996094 36.410156 58.515625 36.910156 58.515625 37.527344 L 58.515625 38.914062 C 58.515625 40.390625 59.105469 41.777344 60.179688 42.828125 C 61.269531 43.890625 62.726562 44.453125 64.269531 44.421875 C 67.296875 44.351562 69.742188 41.785156 69.742188 38.703125 L 69.742188 37.527344 C 69.742188 36.910156 70.269531 36.410156 70.902344 36.410156 L 73.109375 36.410156 C 72.433594 41.316406 70.125 45.953125 66.546875 49.542969 C 64.015625 52.074219 61.859375 54.988281 60.144531 58.21875 C 58.472656 61.339844 57.230469 64.722656 56.429688 68.25 Z M 56.445312 68.265625 "/></g></svg>