<svg xmlns="http://www.w3.org/2000/svg" xmlns:xlink="http://www.w3.org/1999/xlink" width="100" zoomAndPan="magnify" viewBox="0 0 75 74.999997" height="100" preserveAspectRatio="xMidYMid meet" version="1.2"><g id="7bf51d21c5"><path style=" stroke:none;fill-rule:nonzero;fill:#000000;fill-opacity:1;" d="M 72.503906 49.757812 L 68.347656 49.757812 L 70.890625 47.21875 C 72.894531 45.210938 72.894531 41.960938 70.890625 39.945312 C 68.882812 37.941406 65.632812 37.941406 63.625 39.945312 L 61.9375 41.644531 L 43.132812 41.644531 C 43.617188 39.921875 43.183594 37.984375 41.824219 36.625 C 39.820312 34.621094 36.566406 34.621094 34.5625 36.625 L 29.746094 41.441406 L 28.242188 39.9375 C 26.609375 38.308594 24.410156 37.585938 22.277344 37.789062 C 23.113281 35.632812 22.660156 33.089844 20.921875 31.34375 L 19.695312 30.117188 C 17.34375 27.765625 13.523438 27.765625 11.167969 30.117188 C 9.800781 31.488281 9.234375 33.355469 9.460938 35.15625 C 8.585938 34.875 7.578125 35.0625 6.90625 35.734375 L 1.003906 41.714844 C 0.0351562 42.691406 0.0351562 44.285156 1.003906 45.261719 L 18.03125 62.488281 C 18.5 62.957031 19.144531 63.226562 19.800781 63.226562 L 21.03125 63.226562 L 21.03125 68.214844 L 2.742188 68.214844 C 1.375 68.214844 0.253906 69.335938 0.253906 70.703125 L 0.253906 73.191406 C 0.253906 74.109375 1.003906 74.855469 1.917969 74.855469 L 73.335938 74.855469 C 74.253906 74.855469 75 74.109375 75 73.191406 L 75 70.703125 C 75 69.335938 73.878906 68.214844 72.511719 68.214844 L 68.359375 68.214844 L 68.359375 63.226562 L 72.503906 63.226562 C 73.878906 63.226562 75 62.097656 75 60.714844 L 75 52.261719 C 75 50.878906 73.878906 49.746094 72.503906 49.746094 Z M 42.324219 43.308594 L 62.277344 43.308594 C 62.496094 43.308594 62.710938 43.214844 62.863281 43.070312 L 64.808594 41.125 C 66.148438 39.777344 68.359375 39.777344 69.71875 41.125 C 70.371094 41.78125 70.726562 42.648438 70.726562 43.574219 C 70.726562 44.5 70.371094 45.375 69.71875 46.019531 L 66.003906 49.738281 L 35.953125 49.738281 L 41.804688 43.878906 C 41.992188 43.691406 42.164062 43.503906 42.316406 43.300781 Z M 22.957031 39.410156 C 24.511719 39.410156 25.972656 40.015625 27.070312 41.109375 L 28.574219 42.613281 C 29.191406 43.242188 30.289062 43.242188 30.917969 42.613281 L 35.734375 37.796875 C 37.082031 36.445312 39.292969 36.445312 40.652344 37.796875 C 41.773438 38.925781 41.960938 40.632812 41.21875 41.960938 L 33.550781 49.746094 L 24.300781 49.746094 C 24.300781 49.746094 16.265625 41.621094 16.265625 41.621094 C 16.394531 41.621094 16.519531 41.644531 16.65625 41.644531 C 18.203125 41.644531 19.746094 41.058594 20.921875 39.878906 C 20.972656 39.835938 21.003906 39.785156 21.046875 39.742188 C 21.652344 39.53125 22.304688 39.410156 22.96875 39.410156 Z M 12.332031 31.300781 C 13.191406 30.449219 14.304688 30.015625 15.425781 30.015625 C 16.546875 30.015625 17.667969 30.449219 18.515625 31.300781 L 19.746094 32.53125 C 21.445312 34.230469 21.445312 37.007812 19.746094 38.707031 C 18.050781 40.40625 15.273438 40.40625 13.574219 38.707031 L 12.339844 37.472656 C 10.644531 35.777344 10.644531 33 12.339844 31.300781 Z M 72.511719 69.886719 C 72.96875 69.886719 73.34375 70.261719 73.34375 70.71875 L 73.34375 73.207031 L 1.917969 73.207031 L 1.917969 70.71875 C 1.917969 70.261719 2.292969 69.886719 2.753906 69.886719 Z M 22.679688 68.222656 L 22.679688 63.234375 L 29.320312 63.234375 L 29.320312 68.222656 Z M 30.984375 68.222656 L 30.984375 63.234375 L 58.394531 63.234375 L 58.394531 68.222656 Z M 60.050781 68.222656 L 60.050781 63.234375 L 66.691406 63.234375 L 66.691406 68.222656 Z M 73.335938 60.722656 C 73.335938 61.199219 72.960938 61.578125 72.496094 61.578125 L 19.789062 61.578125 C 19.570312 61.578125 19.355469 61.488281 19.203125 61.332031 L 2.164062 44.117188 C 1.835938 43.777344 1.835938 43.226562 2.164062 42.886719 L 3.3125 41.730469 L 20.425781 58.84375 C 20.503906 58.921875 20.605469 58.980469 20.699219 59.023438 C 20.800781 59.066406 20.902344 59.089844 21.011719 59.089844 L 73.335938 59.089844 L 73.335938 60.730469 Z M 73.335938 57.425781 L 21.363281 57.425781 L 4.484375 40.550781 L 8.078125 36.921875 C 8.390625 36.601562 8.945312 36.601562 9.257812 36.921875 L 23.113281 50.929688 C 23.417969 51.242188 23.851562 51.429688 24.292969 51.429688 L 72.503906 51.429688 C 72.96875 51.429688 73.34375 51.8125 73.34375 52.289062 L 73.34375 57.445312 Z M 73.335938 57.425781 "/><path style=" stroke:none;fill-rule:nonzero;fill:#000000;fill-opacity:1;" d="M 24.707031 28.226562 C 24.851562 28.316406 25.003906 28.371094 25.175781 28.371094 C 25.285156 28.371094 25.386719 28.351562 25.488281 28.308594 L 34.535156 24.605469 C 34.535156 24.605469 34.621094 24.5625 34.664062 24.539062 C 35.035156 24.308594 35.488281 24.191406 35.972656 24.191406 L 47.597656 24.191406 C 50.707031 24.191406 53.628906 22.925781 55.828125 20.648438 C 58.019531 18.371094 59.226562 15.363281 59.226562 12.164062 C 59.226562 5.640625 53.757812 0.128906 47.277344 0.128906 L 35.972656 0.128906 C 32.863281 0.128906 29.941406 1.382812 27.742188 3.667969 C 25.550781 5.9375 24.34375 8.953125 24.34375 12.15625 L 24.34375 27.535156 C 24.34375 27.808594 24.488281 28.070312 24.707031 28.226562 Z M 26.007812 12.15625 C 26.007812 9.378906 27.042969 6.777344 28.9375 4.824219 C 30.824219 2.863281 33.3125 1.792969 35.972656 1.792969 L 47.277344 1.792969 C 52.855469 1.792969 57.5625 6.539062 57.5625 12.164062 C 57.5625 14.933594 56.527344 17.539062 54.632812 19.492188 C 52.746094 21.445312 50.25 22.527344 47.597656 22.527344 L 35.960938 22.527344 C 35.199219 22.527344 34.46875 22.710938 33.847656 23.085938 L 26.007812 26.289062 Z M 26.007812 12.15625 "/><path style=" stroke:none;fill-rule:nonzero;fill:#000000;fill-opacity:1;" d="M 39.292969 12.585938 C 39.292969 10.53125 37.609375 8.851562 35.554688 8.851562 C 33.5 8.851562 31.816406 10.53125 31.816406 12.585938 C 31.816406 14.644531 33.5 16.324219 35.554688 16.324219 C 37.609375 16.324219 39.292969 14.644531 39.292969 12.585938 Z M 33.484375 12.585938 C 33.484375 11.441406 34.417969 10.515625 35.554688 10.515625 C 36.691406 10.515625 37.628906 11.449219 37.628906 12.585938 C 37.628906 13.726562 36.691406 14.660156 35.554688 14.660156 C 34.417969 14.660156 33.484375 13.726562 33.484375 12.585938 Z M 33.484375 12.585938 "/><path style=" stroke:none;fill-rule:nonzero;fill:#000000;fill-opacity:1;" d="M 48.007812 16.324219 C 50.0625 16.324219 51.742188 14.644531 51.742188 12.585938 C 51.742188 10.53125 50.0625 8.851562 48.007812 8.851562 C 45.953125 8.851562 44.269531 10.53125 44.269531 12.585938 C 44.269531 14.644531 45.953125 16.324219 48.007812 16.324219 Z M 48.007812 10.515625 C 49.152344 10.515625 50.078125 11.449219 50.078125 12.585938 C 50.078125 13.726562 49.144531 14.660156 48.007812 14.660156 C 46.867188 14.660156 45.933594 13.726562 45.933594 12.585938 C 45.933594 11.449219 46.867188 10.515625 48.007812 10.515625 Z M 48.007812 10.515625 "/></g></svg>