<svg xmlns="http://www.w3.org/2000/svg" xmlns:xlink="http://www.w3.org/1999/xlink" width="100" zoomAndPan="magnify" viewBox="0 0 75 74.999997" height="100" preserveAspectRatio="xMidYMid meet" version="1.2"><g id="eb70ab9d74"><path style=" stroke:none;fill-rule:nonzero;fill:#000000;fill-opacity:1;" d="M 7.652344 59.457031 L 72.386719 59.457031 C 73.824219 59.457031 74.992188 58.292969 75 56.871094 L 5.03125 56.871094 C 5.039062 58.300781 6.207031 59.457031 7.652344 59.457031 Z M 7.652344 59.457031 "/><path style=" stroke:none;fill-rule:nonzero;fill:#000000;fill-opacity:1;" d="M 69.78125 69.890625 C 70.335938 69.890625 70.804688 69.5 70.878906 68.941406 L 71.851562 61.21875 L 67.710938 61.21875 L 68.683594 68.941406 C 68.742188 69.488281 69.21875 69.890625 69.78125 69.890625 Z M 69.78125 69.890625 "/><path style=" stroke:none;fill-rule:nonzero;fill:#000000;fill-opacity:1;" d="M 74.132812 71.648438 L 0.953125 71.648438 C 0.476562 71.648438 0.0859375 72.042969 0.0859375 72.519531 L 0.0859375 74.265625 C 0.0859375 74.738281 0.46875 75.125 0.9375 75.125 L 74.148438 75.125 C 74.617188 75.113281 75 74.730469 75 74.257812 L 75 72.53125 C 75 72.050781 74.609375 71.65625 74.132812 71.65625 Z M 74.132812 71.648438 "/><path style=" stroke:none;fill-rule:nonzero;fill:#000000;fill-opacity:1;" d="M 69.847656 28.417969 C 66.011719 25.070312 61.753906 24.753906 56.152344 24.6875 C 51.375 24.625 47.554688 23.914062 44.089844 22.476562 C 40.84375 21.117188 37.753906 19.027344 34.742188 17 C 29.351562 13.359375 23.769531 9.601562 17.230469 10.105469 C 12.234375 10.492188 8.257812 13.597656 5.183594 16.800781 C 5.847656 17.28125 6.386719 17.949219 6.683594 18.753906 C 8.539062 23.847656 9.953125 29.097656 10.871094 34.328125 C 11.476562 37.761719 11.875 41.21875 12.078125 44.679688 C 13.78125 42.058594 16.695312 40.328125 20.023438 40.328125 L 67.253906 40.328125 C 70.453125 40.328125 73.289062 41.945312 75 44.394531 L 75 39.753906 C 75 35.414062 73.117188 31.277344 69.847656 28.417969 Z M 69.847656 28.417969 "/><path style=" stroke:none;fill-rule:nonzero;fill:#000000;fill-opacity:1;" d="M 10.53125 49.910156 C 10.511719 44.832031 10.046875 39.6875 9.167969 34.625 C 8.257812 29.5 6.878906 24.359375 5.046875 19.359375 C 4.878906 18.882812 4.554688 18.480469 4.136719 18.195312 C 3.703125 17.898438 3.175781 17.726562 2.628906 17.726562 C 1.777344 17.726562 0.96875 18.136719 0.503906 18.832031 C 0.0664062 19.457031 -0.0351562 20.207031 0.230469 20.910156 C 3.414062 29.667969 5.03125 38.804688 5.03125 48.050781 L 5.03125 55.105469 L 75 55.105469 L 75 50.773438 L 11.398438 50.773438 C 10.914062 50.773438 10.523438 50.390625 10.523438 49.910156 Z M 10.53125 49.910156 "/><path style=" stroke:none;fill-rule:nonzero;fill:#000000;fill-opacity:1;" d="M 10.539062 69.890625 C 11.101562 69.890625 11.570312 69.5 11.636719 68.941406 L 12.609375 61.21875 L 8.480469 61.21875 L 9.449219 68.941406 C 9.507812 69.488281 9.984375 69.890625 10.539062 69.890625 Z M 10.539062 69.890625 "/><path style=" stroke:none;fill-rule:nonzero;fill:#000000;fill-opacity:1;" d="M 67.253906 42.074219 L 20.023438 42.074219 C 16.046875 42.074219 12.761719 45.113281 12.335938 49.011719 L 74.957031 49.011719 C 74.53125 45.113281 71.238281 42.074219 67.261719 42.074219 Z M 67.253906 42.074219 "/></g></svg>