<svg xmlns="http://www.w3.org/2000/svg" xmlns:xlink="http://www.w3.org/1999/xlink" width="100" zoomAndPan="magnify" viewBox="0 0 75 74.999997" height="100" preserveAspectRatio="xMidYMid meet" version="1.2"><g id="15e815aa81"><path style=" stroke:none;fill-rule:nonzero;fill:#000000;fill-opacity:1;" d="M 72.570312 28.902344 C 73.71875 27.222656 74.339844 25.226562 74.339844 23.171875 C 74.339844 19.21875 72.109375 15.707031 68.585938 14.035156 C 68.707031 13.363281 68.765625 12.683594 68.765625 11.992188 C 68.765625 5.378906 63.386719 -0.0078125 56.773438 -0.0078125 C 56.523438 -0.0078125 56.277344 -0.0078125 56.03125 0.015625 C 55.878906 0 55.742188 -0.0078125 55.597656 -0.0078125 L 49.238281 -0.0078125 C 47.742188 -0.0078125 46.429688 0.742188 45.621094 1.875 C 44.8125 0.742188 43.5 -0.0078125 42.003906 -0.0078125 L 35.644531 -0.0078125 C 35.484375 -0.0078125 35.328125 0.0078125 35.246094 0.015625 C 34.988281 0 34.734375 -0.0078125 34.46875 -0.0078125 C 27.855469 -0.0078125 22.476562 5.378906 22.476562 11.992188 C 22.476562 12.671875 22.535156 13.355469 22.65625 14.035156 C 19.132812 15.707031 16.902344 19.210938 16.902344 23.171875 C 16.902344 25.226562 17.523438 27.222656 18.671875 28.902344 C 18.5 29.054688 18.347656 29.214844 18.1875 29.386719 C 13.597656 33.050781 10.660156 38.683594 10.660156 45 C 10.660156 49.464844 12.132812 53.589844 14.609375 56.921875 L 10.96875 60.5625 C 10.183594 59.804688 8.925781 59.804688 8.160156 60.589844 L 2.105469 66.648438 C 0.199219 68.558594 0.199219 71.660156 2.105469 73.566406 C 3.050781 74.515625 4.3125 75 5.5625 75 C 6.8125 75 8.066406 74.515625 9.019531 73.566406 L 12.859375 69.734375 C 12.859375 69.734375 12.875 69.734375 12.882812 69.714844 C 12.882812 69.714844 12.882812 69.691406 12.898438 69.691406 L 15.070312 67.507812 C 15.855469 66.734375 15.855469 65.472656 15.097656 64.695312 L 18.730469 61.046875 C 22.058594 63.527344 26.179688 65.003906 30.640625 65.003906 C 37 65.003906 42.667969 62.011719 46.328125 57.359375 C 47.621094 58.976562 49.605469 60 51.816406 60 C 55.46875 60 58.472656 57.195312 58.816406 53.625 C 59.359375 53.746094 59.921875 53.796875 60.492188 53.796875 C 65.054688 53.796875 68.765625 50.089844 68.765625 45.519531 C 68.765625 45.09375 68.730469 44.667969 68.664062 44.257812 C 72.664062 43.355469 75.585938 39.777344 75.585938 35.582031 C 75.585938 33.027344 74.46875 30.578125 72.570312 28.902344 Z M 18.5625 23.171875 C 18.5625 19.816406 20.605469 16.730469 23.660156 15.417969 L 25.8125 15.953125 C 26.527344 16.132812 27.269531 16.21875 28.007812 16.21875 C 28.445312 16.21875 28.878906 16.191406 29.304688 16.125 L 29.769531 16.058594 C 30.792969 15.910156 31.773438 15.597656 32.65625 15.121094 C 34.503906 14.140625 35.847656 12.496094 36.367188 10.628906 L 36.554688 9.953125 C 36.683594 9.511719 36.417969 9.050781 35.976562 8.933594 C 35.535156 8.804688 35.074219 9.078125 34.964844 9.511719 L 34.777344 10.183594 C 34.386719 11.617188 33.328125 12.878906 31.890625 13.652344 C 31.167969 14.035156 30.382812 14.292969 29.542969 14.410156 L 29.082031 14.480469 C 28.136719 14.625 27.148438 14.574219 26.238281 14.335938 L 24.332031 13.859375 C 24.222656 13.246094 24.144531 12.621094 24.144531 12 C 24.144531 6.296875 28.785156 1.671875 34.46875 1.671875 C 34.699219 1.671875 34.9375 1.671875 35.234375 1.695312 C 35.261719 1.695312 35.304688 1.695312 35.320312 1.695312 C 35.433594 1.695312 35.535156 1.679688 35.644531 1.679688 L 42.003906 1.679688 C 43.542969 1.679688 44.796875 2.933594 44.796875 4.472656 L 44.796875 7.738281 C 44.019531 7.660156 42.980469 7.703125 41.933594 8.199219 C 40.300781 8.972656 39.722656 10.328125 39.484375 10.917969 C 38.894531 12.316406 39.03125 13.585938 39.261719 14.410156 C 39.363281 14.777344 39.707031 15.015625 40.070312 15.015625 C 40.140625 15.015625 40.214844 15.015625 40.285156 14.992188 C 40.726562 14.863281 40.992188 14.410156 40.863281 13.96875 C 40.699219 13.40625 40.605469 12.527344 41.015625 11.566406 C 41.230469 11.054688 41.585938 10.210938 42.648438 9.707031 C 43.449219 9.332031 44.25 9.339844 44.804688 9.417969 L 44.804688 30.921875 C 42.207031 28.304688 38.894531 26.410156 35.195312 25.542969 C 35.289062 25.363281 35.371094 25.191406 35.441406 24.988281 C 35.859375 23.878906 35.78125 22.703125 35.234375 21.496094 C 34.871094 20.703125 34.359375 20.046875 33.730469 19.527344 C 33.941406 19.203125 34.519531 18.496094 35.515625 18.332031 C 36.554688 18.171875 37.371094 18.714844 37.722656 18.9375 C 38.617188 19.527344 38.929688 20.316406 39.042969 20.746094 C 39.144531 21.121094 39.476562 21.359375 39.851562 21.359375 C 39.917969 21.359375 39.996094 21.359375 40.054688 21.332031 C 40.503906 21.214844 40.761719 20.761719 40.640625 20.316406 C 40.472656 19.660156 39.976562 18.433594 38.625 17.539062 C 38.15625 17.234375 36.921875 16.421875 35.253906 16.679688 C 33.542969 16.933594 32.621094 18.121094 32.273438 18.671875 C 32.1875 18.648438 32.113281 18.613281 32.035156 18.578125 C 30.101562 17.921875 28.382812 18.484375 27.726562 18.765625 C 25.925781 19.535156 25.132812 20.921875 24.886719 21.484375 C 24.699219 21.902344 24.886719 22.40625 25.300781 22.585938 C 25.71875 22.773438 26.214844 22.585938 26.402344 22.167969 C 26.578125 21.792969 27.117188 20.847656 28.382812 20.308594 C 28.859375 20.113281 30.113281 19.695312 31.507812 20.164062 C 32.207031 20.394531 33.152344 20.941406 33.710938 22.175781 C 33.941406 22.6875 34.222656 23.480469 33.875 24.402344 C 33.761719 24.707031 33.601562 24.964844 33.40625 25.191406 C 32.503906 25.066406 31.585938 25.003906 30.648438 25.003906 C 30.527344 25.003906 30.417969 25.003906 30.300781 25.003906 C 30.519531 24.671875 30.734375 24.332031 30.902344 23.964844 L 31.40625 22.925781 C 31.601562 22.507812 31.441406 22.003906 31.023438 21.808594 C 30.605469 21.613281 30.101562 21.785156 29.90625 22.203125 L 29.40625 23.242188 C 29.054688 23.957031 28.578125 24.597656 28.019531 25.175781 C 25.148438 25.558594 22.46875 26.546875 20.101562 28.023438 C 19.113281 26.609375 18.570312 24.910156 18.570312 23.171875 Z M 7.84375 72.390625 C 6.585938 73.652344 4.542969 73.652344 3.28125 72.390625 C 2.023438 71.128906 2.023438 69.085938 3.28125 67.824219 L 6.550781 64.558594 L 11.105469 69.121094 Z M 13.894531 66.332031 L 12.277344 67.941406 L 7.726562 63.382812 L 9.332031 61.765625 C 9.46875 61.628906 9.691406 61.628906 9.820312 61.765625 L 13.894531 65.847656 C 14.03125 65.984375 14.03125 66.195312 13.894531 66.332031 Z M 13.914062 63.511719 L 12.160156 61.753906 L 15.683594 58.226562 C 16.238281 58.847656 16.816406 59.4375 17.4375 59.984375 Z M 30.640625 63.332031 C 20.542969 63.332031 12.328125 55.109375 12.328125 45 C 12.328125 34.890625 20.542969 26.667969 30.640625 26.667969 C 40.734375 26.667969 48.949219 34.890625 48.949219 45 C 48.949219 55.109375 40.734375 63.332031 30.640625 63.332031 Z M 67.667969 42.75 L 66.238281 42.519531 C 65.070312 42.332031 64.042969 41.734375 63.421875 40.875 C 63.164062 40.515625 62.976562 40.140625 62.867188 39.742188 L 62.007812 36.453125 C 61.886719 36 61.445312 35.734375 60.992188 35.855469 C 60.550781 35.972656 60.289062 36.425781 60.40625 36.871094 L 61.265625 40.160156 C 61.429688 40.765625 61.699219 41.335938 62.074219 41.855469 C 62.96875 43.066406 64.390625 43.910156 65.980469 44.164062 L 66.988281 44.328125 C 67.0625 44.710938 67.113281 45.101562 67.113281 45.519531 C 67.113281 49.160156 64.152344 52.125 60.507812 52.125 C 59.742188 52.125 59.003906 51.996094 58.3125 51.75 L 57.425781 51.332031 C 56.59375 50.941406 55.851562 50.394531 55.28125 49.730469 C 54.609375 48.9375 54.175781 48.007812 54.03125 47.019531 L 53.816406 45.484375 C 53.75 45.035156 53.324219 44.71875 52.882812 44.777344 C 52.421875 44.847656 52.105469 45.273438 52.175781 45.714844 L 52.386719 47.257812 C 52.574219 48.554688 53.136719 49.773438 54.03125 50.8125 C 54.761719 51.664062 55.675781 52.347656 56.730469 52.839844 L 57.207031 53.0625 C 57.148438 55.976562 54.773438 58.328125 51.84375 58.328125 C 49.988281 58.328125 48.335938 57.390625 47.375 55.917969 C 49.433594 52.773438 50.632812 49.023438 50.632812 44.992188 C 50.632812 40.398438 49.078125 36.179688 46.472656 32.796875 L 46.472656 9.402344 C 47.035156 9.324219 47.824219 9.316406 48.625 9.691406 C 49.679688 10.191406 50.039062 11.035156 50.261719 11.546875 C 50.667969 12.503906 50.566406 13.378906 50.414062 13.953125 C 50.285156 14.394531 50.558594 14.855469 50.992188 14.972656 C 51.070312 14.992188 51.144531 15 51.203125 15 C 51.570312 15 51.910156 14.761719 52.015625 14.394531 C 52.234375 13.566406 52.378906 12.308594 51.792969 10.902344 C 51.554688 10.320312 50.964844 8.957031 49.339844 8.183594 C 48.292969 7.6875 47.253906 7.644531 46.480469 7.722656 L 46.480469 4.457031 C 46.480469 2.914062 47.730469 1.660156 49.273438 1.660156 L 55.632812 1.660156 C 55.742188 1.660156 55.84375 1.660156 55.964844 1.6875 L 56.117188 1.6875 C 56.339844 1.671875 56.578125 1.660156 56.804688 1.660156 C 62.5 1.660156 67.132812 6.296875 67.132812 11.992188 C 67.132812 12.613281 67.054688 13.234375 66.945312 13.847656 L 65.039062 14.328125 C 64.117188 14.558594 63.140625 14.609375 62.195312 14.472656 L 61.734375 14.402344 C 60.890625 14.285156 60.109375 14.027344 59.386719 13.644531 C 57.945312 12.871094 56.890625 11.609375 56.5 10.175781 L 56.3125 9.503906 C 56.191406 9.058594 55.742188 8.796875 55.300781 8.921875 C 54.847656 9.050781 54.59375 9.503906 54.71875 9.945312 L 54.90625 10.621094 C 55.425781 12.484375 56.773438 14.128906 58.621094 15.109375 C 59.511719 15.597656 60.484375 15.910156 61.503906 16.046875 L 61.972656 16.117188 C 62.398438 16.183594 62.832031 16.210938 63.265625 16.210938 C 64.007812 16.210938 64.746094 16.117188 65.464844 15.945312 L 67.617188 15.410156 C 70.679688 16.722656 72.714844 19.808594 72.714844 23.164062 C 72.714844 24.945312 72.144531 26.691406 71.089844 28.125 L 67.972656 27.578125 C 67.257812 27.441406 66.570312 27.246094 65.914062 26.964844 C 64.101562 26.183594 62.671875 24.859375 61.878906 23.234375 L 61.378906 22.191406 C 61.179688 21.777344 60.679688 21.605469 60.261719 21.800781 C 59.84375 21.996094 59.683594 22.5 59.878906 22.917969 L 60.382812 23.957031 C 61.34375 25.953125 63.070312 27.554688 65.257812 28.5 C 66.035156 28.824219 66.851562 29.070312 67.691406 29.222656 L 71.097656 29.8125 C 72.886719 31.175781 73.949219 33.316406 73.949219 35.574219 C 73.949219 39.195312 71.269531 42.253906 67.703125 42.742188 Z M 67.667969 42.75 "/><path style=" stroke:none;fill-rule:nonzero;fill:#000000;fill-opacity:1;" d="M 64.5 32.753906 C 63.667969 32.171875 62.671875 31.847656 61.5625 31.789062 C 61.199219 31.773438 59.5625 31.753906 58.082031 32.675781 C 58.058594 32.675781 58.050781 32.652344 58.023438 32.652344 C 57.367188 32.472656 56.40625 32.089844 55.597656 31.304688 C 54.730469 30.460938 54.277344 29.53125 54.269531 28.542969 C 54.269531 28.082031 53.894531 27.714844 53.433594 27.714844 C 52.976562 27.714844 52.609375 28.097656 52.609375 28.558594 C 52.625 30.007812 53.238281 31.339844 54.441406 32.496094 C 55.171875 33.214844 55.988281 33.664062 56.703125 33.953125 C 55.699219 35.378906 55.859375 36.953125 55.953125 37.867188 C 56.074219 39.027344 56.507812 40.175781 57.214844 41.199219 C 57.375 41.429688 57.632812 41.558594 57.902344 41.558594 C 58.066406 41.558594 58.226562 41.503906 58.371094 41.410156 C 58.746094 41.148438 58.847656 40.628906 58.585938 40.253906 C 58.03125 39.453125 57.707031 38.589844 57.613281 37.695312 C 57.519531 36.777344 57.394531 35.523438 58.390625 34.535156 C 59.5625 33.375 61.394531 33.460938 61.480469 33.46875 C 62.28125 33.511719 62.976562 33.734375 63.554688 34.140625 C 64.644531 34.902344 64.839844 36 64.875 36.324219 C 64.925781 36.785156 65.335938 37.109375 65.785156 37.066406 C 66.246094 37.015625 66.578125 36.605469 66.527344 36.152344 C 66.457031 35.515625 66.128906 33.902344 64.5 32.777344 Z M 64.5 32.753906 "/><path style=" stroke:none;fill-rule:nonzero;fill:#000000;fill-opacity:1;" d="M 53.539062 18.9375 C 53.886719 18.707031 54.703125 18.171875 55.742188 18.332031 C 56.738281 18.484375 57.316406 19.191406 57.53125 19.515625 C 56.898438 20.027344 56.390625 20.691406 56.023438 21.476562 C 55.46875 22.6875 55.402344 23.863281 55.808594 24.972656 C 56.429688 26.632812 57.878906 27.453125 58.464844 27.722656 C 58.578125 27.777344 58.695312 27.800781 58.816406 27.800781 C 59.128906 27.800781 59.429688 27.621094 59.574219 27.316406 C 59.769531 26.898438 59.582031 26.402344 59.164062 26.207031 C 58.753906 26.019531 57.769531 25.464844 57.367188 24.382812 C 57.027344 23.464844 57.300781 22.671875 57.53125 22.160156 C 58.089844 20.921875 59.035156 20.386719 59.734375 20.148438 C 61.128906 19.679688 62.382812 20.089844 62.859375 20.292969 C 64.125 20.828125 64.664062 21.777344 64.832031 22.160156 C 65.019531 22.578125 65.515625 22.765625 65.929688 22.578125 C 66.347656 22.390625 66.535156 21.894531 66.347656 21.476562 C 66.09375 20.914062 65.308594 19.527344 63.496094 18.765625 C 62.851562 18.496094 61.128906 17.933594 59.191406 18.578125 C 59.105469 18.605469 59.027344 18.640625 58.953125 18.671875 C 58.601562 18.121094 57.683594 16.933594 55.972656 16.671875 C 54.304688 16.414062 53.070312 17.222656 52.601562 17.53125 C 51.246094 18.425781 50.753906 19.652344 50.582031 20.300781 C 50.464844 20.746094 50.726562 21.203125 51.179688 21.324219 C 51.246094 21.339844 51.324219 21.347656 51.390625 21.347656 C 51.757812 21.347656 52.097656 21.101562 52.191406 20.726562 C 52.304688 20.300781 52.625 19.507812 53.519531 18.921875 Z M 53.539062 18.9375 "/><path style=" stroke:none;fill-rule:nonzero;fill:#000000;fill-opacity:1;" d="M 30.640625 29.164062 C 21.914062 29.164062 14.824219 36.265625 14.824219 45 C 14.824219 53.734375 21.914062 60.835938 30.640625 60.835938 C 39.363281 60.835938 46.457031 53.734375 46.457031 45 C 46.457031 36.265625 39.363281 29.164062 30.640625 29.164062 Z M 30.640625 59.164062 C 22.84375 59.164062 16.492188 52.808594 16.492188 45 C 16.492188 37.191406 22.84375 30.835938 30.640625 30.835938 C 38.4375 30.835938 44.785156 37.191406 44.785156 45 C 44.785156 52.808594 38.4375 59.164062 30.640625 59.164062 Z M 30.640625 59.164062 "/><path style=" stroke:none;fill-rule:nonzero;fill:#000000;fill-opacity:1;" d="M 30.640625 35.003906 C 31.097656 35.003906 31.472656 34.628906 31.472656 34.167969 C 31.472656 33.707031 31.097656 33.332031 30.640625 33.332031 C 24.214844 33.332031 18.988281 38.566406 18.988281 45 C 18.988281 45.460938 19.359375 45.835938 19.820312 45.835938 C 20.28125 45.835938 20.65625 45.460938 20.65625 45 C 20.65625 44.703125 20.671875 44.410156 20.699219 44.121094 C 21.113281 39.308594 24.953125 35.464844 29.761719 35.046875 C 30.050781 35.019531 30.339844 35.003906 30.640625 35.003906 Z M 30.640625 35.003906 "/><path style=" stroke:none;fill-rule:nonzero;fill:#000000;fill-opacity:1;" d="M 37.296875 40.832031 C 34.996094 40.832031 33.132812 42.699219 33.132812 45 C 33.132812 47.300781 34.996094 49.167969 37.296875 49.167969 C 39.59375 49.167969 41.457031 47.300781 41.457031 45 C 41.457031 42.699219 39.59375 40.832031 37.296875 40.832031 Z M 37.296875 47.496094 C 35.925781 47.496094 34.800781 46.371094 34.800781 45 C 34.800781 43.628906 35.925781 42.503906 37.296875 42.503906 C 38.667969 42.503906 39.789062 43.628906 39.789062 45 C 39.789062 46.371094 38.667969 47.496094 37.296875 47.496094 Z M 37.296875 47.496094 "/><path style=" stroke:none;fill-rule:nonzero;fill:#000000;fill-opacity:1;" d="M 29.804688 48.75 C 28.195312 48.75 26.894531 50.0625 26.894531 51.664062 C 26.894531 53.265625 28.207031 54.578125 29.804688 54.578125 C 31.40625 54.578125 32.714844 53.265625 32.714844 51.664062 C 32.714844 50.0625 31.40625 48.75 29.804688 48.75 Z M 29.804688 52.917969 C 29.117188 52.917969 28.554688 52.355469 28.554688 51.664062 C 28.554688 50.972656 29.117188 50.410156 29.804688 50.410156 C 30.496094 50.410156 31.058594 50.972656 31.058594 51.664062 C 31.058594 52.355469 30.496094 52.917969 29.804688 52.917969 Z M 29.804688 52.917969 "/></g></svg>