<svg xmlns="http://www.w3.org/2000/svg" xmlns:xlink="http://www.w3.org/1999/xlink" width="100" zoomAndPan="magnify" viewBox="0 0 75 74.999997" height="100" preserveAspectRatio="xMidYMid meet" version="1.2"><defs><clipPath id="a85a71df82"><path d="M 0 21.140625 L 35 21.140625 L 35 60.140625 L 0 60.140625 Z M 0 21.140625 "/></clipPath><clipPath id="ad49c6f436"><path d="M 40 21.140625 L 75 21.140625 L 75 60.140625 L 40 60.140625 Z M 40 21.140625 "/></clipPath><clipPath id="f3d54e26c3"><path d="M 9.476562 26.464844 L 65.523438 26.464844 L 65.523438 42.621094 L 9.476562 42.621094 Z M 9.476562 26.464844 "/></clipPath><clipPath id="fbb4cdf22d"><path d="M 64.269531 40.117188 C 64.082031 40.117188 63.90625 40.160156 63.746094 40.234375 C 63.621094 39.953125 63.476562 39.546875 63.324219 38.953125 C 62.980469 37.625 62.699219 35.8125 62.429688 34.054688 C 61.699219 29.351562 61.179688 26.464844 59.734375 26.464844 C 58.292969 26.464844 57.773438 29.351562 57.042969 34.054688 C 56.769531 35.8125 56.488281 37.628906 56.148438 38.953125 C 55.671875 40.796875 55.28125 40.847656 55.277344 40.847656 C 55.273438 40.847656 54.886719 40.796875 54.410156 38.953125 C 54.066406 37.625 53.785156 35.8125 53.515625 34.054688 C 52.785156 29.351562 52.265625 26.464844 50.820312 26.464844 C 49.378906 26.464844 48.855469 29.351562 48.128906 34.054688 C 47.855469 35.8125 47.574219 37.628906 47.230469 38.953125 C 46.753906 40.796875 46.367188 40.847656 46.363281 40.847656 C 46.359375 40.847656 45.972656 40.796875 45.496094 38.953125 C 45.152344 37.625 44.871094 35.8125 44.601562 34.054688 C 43.871094 29.351562 43.351562 26.464844 41.90625 26.464844 C 40.460938 26.464844 39.941406 29.351562 39.214844 34.054688 C 38.941406 35.8125 38.660156 37.628906 38.316406 38.953125 C 37.839844 40.796875 37.453125 40.847656 37.449219 40.847656 C 37.445312 40.847656 37.058594 40.796875 36.582031 38.953125 C 36.238281 37.625 35.957031 35.8125 35.6875 34.054688 C 34.957031 29.351562 34.4375 26.464844 32.992188 26.464844 C 31.546875 26.464844 31.027344 29.351562 30.300781 34.054688 C 30.027344 35.8125 29.746094 37.628906 29.402344 38.953125 C 28.925781 40.796875 28.539062 40.847656 28.535156 40.847656 C 28.53125 40.847656 28.144531 40.796875 27.667969 38.953125 C 27.324219 37.628906 27.042969 35.8125 26.769531 34.054688 C 26.042969 29.351562 25.523438 26.464844 24.078125 26.464844 C 22.632812 26.464844 22.113281 29.351562 21.382812 34.054688 C 21.113281 35.8125 20.832031 37.628906 20.488281 38.953125 C 20.011719 40.796875 19.625 40.847656 19.621094 40.847656 C 19.617188 40.847656 19.226562 40.796875 18.75 38.953125 C 18.410156 37.628906 18.128906 35.8125 17.855469 34.054688 C 17.125 29.351562 16.605469 26.464844 15.160156 26.464844 C 13.71875 26.464844 13.199219 29.351562 12.46875 34.054688 C 12.195312 35.8125 11.914062 37.628906 11.574219 38.953125 C 11.433594 39.492188 11.300781 39.875 11.183594 40.152344 C 11.042969 40.097656 10.890625 40.066406 10.730469 40.066406 C 10.039062 40.066406 9.476562 40.625 9.476562 41.316406 C 9.476562 42.007812 10.039062 42.566406 10.730469 42.566406 C 11.421875 42.566406 11.984375 42.007812 11.984375 41.316406 C 11.984375 41.148438 11.949219 40.992188 11.890625 40.84375 C 12.523438 39.636719 12.914062 37.320312 13.398438 34.199219 C 13.667969 32.441406 13.953125 30.625 14.292969 29.300781 C 14.769531 27.457031 15.160156 27.402344 15.160156 27.402344 C 15.164062 27.402344 15.554688 27.457031 16.03125 29.300781 C 16.371094 30.625 16.652344 32.441406 16.925781 34.199219 C 17.65625 38.902344 18.175781 41.785156 19.621094 41.785156 C 21.0625 41.785156 21.585938 38.902344 22.3125 34.199219 C 22.585938 32.441406 22.867188 30.625 23.210938 29.300781 C 23.683594 27.457031 24.074219 27.402344 24.078125 27.402344 C 24.082031 27.402344 24.46875 27.457031 24.945312 29.300781 C 25.289062 30.625 25.570312 32.441406 25.839844 34.199219 C 26.570312 38.902344 27.089844 41.785156 28.535156 41.785156 C 29.980469 41.785156 30.5 38.902344 31.230469 34.199219 C 31.5 32.441406 31.78125 30.625 32.125 29.300781 C 32.601562 27.457031 32.988281 27.402344 32.992188 27.402344 C 32.996094 27.402344 33.382812 27.457031 33.859375 29.300781 C 34.203125 30.625 34.484375 32.441406 34.757812 34.199219 C 35.484375 38.902344 36.003906 41.785156 37.449219 41.785156 C 38.894531 41.785156 39.414062 38.902344 40.144531 34.199219 C 40.414062 32.441406 40.695312 30.625 41.039062 29.300781 C 41.515625 27.457031 41.902344 27.402344 41.90625 27.402344 C 41.910156 27.402344 42.296875 27.457031 42.773438 29.300781 C 43.117188 30.625 43.398438 32.441406 43.671875 34.199219 C 44.398438 38.902344 44.921875 41.785156 46.363281 41.785156 C 47.808594 41.785156 48.328125 38.902344 49.058594 34.199219 C 49.328125 32.441406 49.609375 30.625 49.953125 29.300781 C 50.429688 27.457031 50.816406 27.402344 50.820312 27.402344 C 50.824219 27.402344 51.214844 27.457031 51.6875 29.300781 C 52.03125 30.625 52.3125 32.441406 52.585938 34.199219 C 53.3125 38.902344 53.835938 41.785156 55.277344 41.785156 C 56.722656 41.785156 57.242188 38.902344 57.972656 34.199219 C 58.242188 32.441406 58.523438 30.625 58.867188 29.300781 C 59.34375 27.457031 59.730469 27.402344 59.734375 27.402344 C 59.738281 27.402344 60.128906 27.457031 60.601562 29.300781 C 60.945312 30.625 61.226562 32.441406 61.5 34.199219 C 62 37.4375 62.40625 39.8125 63.078125 40.980469 C 63.039062 41.101562 63.015625 41.234375 63.015625 41.371094 C 63.015625 42.058594 63.578125 42.621094 64.269531 42.621094 C 64.960938 42.621094 65.523438 42.058594 65.523438 41.371094 C 65.523438 40.679688 64.960938 40.117188 64.269531 40.117188 Z M 64.269531 40.117188 "/></clipPath><clipPath id="2301f737e1"><path d="M 64.269531 40.117188 C 64.082031 40.117188 63.90625 40.160156 63.746094 40.234375 C 63.621094 39.953125 63.476562 39.546875 63.324219 38.953125 C 62.980469 37.625 62.699219 35.8125 62.429688 34.054688 C 61.699219 29.351562 61.179688 26.464844 59.734375 26.464844 C 58.292969 26.464844 57.773438 29.351562 57.042969 34.054688 C 56.769531 35.8125 56.488281 37.628906 56.148438 38.953125 C 55.671875 40.796875 55.28125 40.847656 55.277344 40.847656 C 55.273438 40.847656 54.886719 40.796875 54.410156 38.953125 C 54.066406 37.625 53.785156 35.8125 53.515625 34.054688 C 52.785156 29.351562 52.265625 26.464844 50.820312 26.464844 C 49.378906 26.464844 48.855469 29.351562 48.128906 34.054688 C 47.855469 35.8125 47.574219 37.628906 47.230469 38.953125 C 46.753906 40.796875 46.367188 40.847656 46.363281 40.847656 C 46.359375 40.847656 45.972656 40.796875 45.496094 38.953125 C 45.152344 37.625 44.871094 35.8125 44.601562 34.054688 C 43.871094 29.351562 43.351562 26.464844 41.90625 26.464844 C 40.460938 26.464844 39.941406 29.351562 39.214844 34.054688 C 38.941406 35.8125 38.660156 37.628906 38.316406 38.953125 C 37.839844 40.796875 37.453125 40.847656 37.449219 40.847656 C 37.445312 40.847656 37.058594 40.796875 36.582031 38.953125 C 36.238281 37.625 35.957031 35.8125 35.6875 34.054688 C 34.957031 29.351562 34.4375 26.464844 32.992188 26.464844 C 31.546875 26.464844 31.027344 29.351562 30.300781 34.054688 C 30.027344 35.8125 29.746094 37.628906 29.402344 38.953125 C 28.925781 40.796875 28.539062 40.847656 28.535156 40.847656 C 28.53125 40.847656 28.144531 40.796875 27.667969 38.953125 C 27.324219 37.628906 27.042969 35.8125 26.769531 34.054688 C 26.042969 29.351562 25.523438 26.464844 24.078125 26.464844 C 22.632812 26.464844 22.113281 29.351562 21.382812 34.054688 C 21.113281 35.8125 20.832031 37.628906 20.488281 38.953125 C 20.011719 40.796875 19.625 40.847656 19.621094 40.847656 C 19.617188 40.847656 19.226562 40.796875 18.75 38.953125 C 18.410156 37.628906 18.128906 35.8125 17.855469 34.054688 C 17.125 29.351562 16.605469 26.464844 15.160156 26.464844 C 13.71875 26.464844 13.199219 29.351562 12.46875 34.054688 C 12.195312 35.8125 11.914062 37.628906 11.574219 38.953125 C 11.433594 39.492188 11.300781 39.875 11.183594 40.152344 C 11.042969 40.097656 10.890625 40.066406 10.730469 40.066406 C 10.039062 40.066406 9.476562 40.625 9.476562 41.316406 C 9.476562 42.007812 10.039062 42.566406 10.730469 42.566406 C 11.421875 42.566406 11.984375 42.007812 11.984375 41.316406 C 11.984375 41.148438 11.949219 40.992188 11.890625 40.84375 C 12.523438 39.636719 12.914062 37.320312 13.398438 34.199219 C 13.667969 32.441406 13.953125 30.625 14.292969 29.300781 C 14.769531 27.457031 15.160156 27.402344 15.160156 27.402344 C 15.164062 27.402344 15.554688 27.457031 16.03125 29.300781 C 16.371094 30.625 16.652344 32.441406 16.925781 34.199219 C 17.65625 38.902344 18.175781 41.785156 19.621094 41.785156 C 21.0625 41.785156 21.585938 38.902344 22.3125 34.199219 C 22.585938 32.441406 22.867188 30.625 23.210938 29.300781 C 23.683594 27.457031 24.074219 27.402344 24.078125 27.402344 C 24.082031 27.402344 24.46875 27.457031 24.945312 29.300781 C 25.289062 30.625 25.570312 32.441406 25.839844 34.199219 C 26.570312 38.902344 27.089844 41.785156 28.535156 41.785156 C 29.980469 41.785156 30.5 38.902344 31.230469 34.199219 C 31.5 32.441406 31.78125 30.625 32.125 29.300781 C 32.601562 27.457031 32.988281 27.402344 32.992188 27.402344 C 32.996094 27.402344 33.382812 27.457031 33.859375 29.300781 C 34.203125 30.625 34.484375 32.441406 34.757812 34.199219 C 35.484375 38.902344 36.003906 41.785156 37.449219 41.785156 C 38.894531 41.785156 39.414062 38.902344 40.144531 34.199219 C 40.414062 32.441406 40.695312 30.625 41.039062 29.300781 C 41.515625 27.457031 41.902344 27.402344 41.90625 27.402344 C 41.910156 27.402344 42.296875 27.457031 42.773438 29.300781 C 43.117188 30.625 43.398438 32.441406 43.671875 34.199219 C 44.398438 38.902344 44.921875 41.785156 46.363281 41.785156 C 47.808594 41.785156 48.328125 38.902344 49.058594 34.199219 C 49.328125 32.441406 49.609375 30.625 49.953125 29.300781 C 50.429688 27.457031 50.816406 27.402344 50.820312 27.402344 C 50.824219 27.402344 51.214844 27.457031 51.6875 29.300781 C 52.03125 30.625 52.3125 32.441406 52.585938 34.199219 C 53.3125 38.902344 53.835938 41.785156 55.277344 41.785156 C 56.722656 41.785156 57.242188 38.902344 57.972656 34.199219 C 58.242188 32.441406 58.523438 30.625 58.867188 29.300781 C 59.34375 27.457031 59.730469 27.402344 59.734375 27.402344 C 59.738281 27.402344 60.128906 27.457031 60.601562 29.300781 C 60.945312 30.625 61.226562 32.441406 61.5 34.199219 C 62 37.4375 62.40625 39.8125 63.078125 40.980469 C 63.039062 41.101562 63.015625 41.234375 63.015625 41.371094 C 63.015625 42.058594 63.578125 42.621094 64.269531 42.621094 C 64.960938 42.621094 65.523438 42.058594 65.523438 41.371094 C 65.523438 40.679688 64.960938 40.117188 64.269531 40.117188 "/></clipPath><linearGradient x1="0.0000022366" gradientTransform="matrix(56.04582,0,0,55.911417,9.477091,34.543013)" y1="0" x2="0.999998" gradientUnits="userSpaceOnUse" y2="0" id="f657b483b6"><stop style="stop-color:#ff6a00;stop-opacity:1;" offset="0"/><stop style="stop-color:#ff6900;stop-opacity:1;" offset="0.00390625"/><stop style="stop-color:#ff6800;stop-opacity:1;" offset="0.0078125"/><stop style="stop-color:#ff6700;stop-opacity:1;" offset="0.0117188"/><stop style="stop-color:#ff6600;stop-opacity:1;" offset="0.015625"/><stop style="stop-color:#ff6500;stop-opacity:1;" offset="0.0195312"/><stop style="stop-color:#ff6400;stop-opacity:1;" offset="0.0234375"/><stop style="stop-color:#ff6300;stop-opacity:1;" offset="0.0273437"/><stop style="stop-color:#ff6200;stop-opacity:1;" offset="0.03125"/><stop style="stop-color:#ff6100;stop-opacity:1;" offset="0.0351562"/><stop style="stop-color:#ff6000;stop-opacity:1;" offset="0.0390625"/><stop style="stop-color:#ff5f00;stop-opacity:1;" offset="0.0429688"/><stop style="stop-color:#ff5d00;stop-opacity:1;" offset="0.046875"/><stop style="stop-color:#ff5c00;stop-opacity:1;" offset="0.0507812"/><stop style="stop-color:#ff5b00;stop-opacity:1;" offset="0.0546875"/><stop style="stop-color:#ff5a00;stop-opacity:1;" offset="0.0585937"/><stop style="stop-color:#ff5900;stop-opacity:1;" offset="0.0625"/><stop style="stop-color:#ff5800;stop-opacity:1;" offset="0.0664062"/><stop style="stop-color:#ff5700;stop-opacity:1;" offset="0.0703125"/><stop style="stop-color:#ff5600;stop-opacity:1;" offset="0.0742188"/><stop style="stop-color:#ff5500;stop-opacity:1;" offset="0.078125"/><stop style="stop-color:#ff5400;stop-opacity:1;" offset="0.0820312"/><stop style="stop-color:#ff5300;stop-opacity:1;" offset="0.0859375"/><stop style="stop-color:#ff5200;stop-opacity:1;" offset="0.0898438"/><stop style="stop-color:#ff5100;stop-opacity:1;" offset="0.09375"/><stop style="stop-color:#ff5000;stop-opacity:1;" offset="0.0976562"/><stop style="stop-color:#ff4f00;stop-opacity:1;" offset="0.101562"/><stop style="stop-color:#ff4e00;stop-opacity:1;" offset="0.105469"/><stop style="stop-color:#ff4d00;stop-opacity:1;" offset="0.109375"/><stop style="stop-color:#ff4c00;stop-opacity:1;" offset="0.113281"/><stop style="stop-color:#ff4b00;stop-opacity:1;" offset="0.117187"/><stop style="stop-color:#ff4a00;stop-opacity:1;" offset="0.121094"/><stop style="stop-color:#ff4900;stop-opacity:1;" offset="0.125"/><stop style="stop-color:#ff4800;stop-opacity:1;" offset="0.128906"/><stop style="stop-color:#ff4700;stop-opacity:1;" offset="0.132812"/><stop style="stop-color:#ff4600;stop-opacity:1;" offset="0.136719"/><stop style="stop-color:#ff4400;stop-opacity:1;" offset="0.140625"/><stop style="stop-color:#ff4300;stop-opacity:1;" offset="0.144531"/><stop style="stop-color:#ff4200;stop-opacity:1;" offset="0.148438"/><stop style="stop-color:#ff4100;stop-opacity:1;" offset="0.152344"/><stop style="stop-color:#ff4000;stop-opacity:1;" offset="0.15625"/><stop style="stop-color:#ff3f00;stop-opacity:1;" offset="0.160156"/><stop style="stop-color:#ff3e00;stop-opacity:1;" offset="0.164062"/><stop style="stop-color:#ff3d00;stop-opacity:1;" offset="0.167969"/><stop style="stop-color:#ff3c00;stop-opacity:1;" offset="0.171875"/><stop style="stop-color:#ff3b00;stop-opacity:1;" offset="0.175781"/><stop style="stop-color:#ff3a00;stop-opacity:1;" offset="0.179687"/><stop style="stop-color:#ff3900;stop-opacity:1;" offset="0.183594"/><stop style="stop-color:#ff3800;stop-opacity:1;" offset="0.1875"/><stop style="stop-color:#ff3700;stop-opacity:1;" offset="0.191406"/><stop style="stop-color:#ff3600;stop-opacity:1;" offset="0.195312"/><stop style="stop-color:#ff3500;stop-opacity:1;" offset="0.199219"/><stop style="stop-color:#ff3400;stop-opacity:1;" offset="0.203125"/><stop style="stop-color:#ff3300;stop-opacity:1;" offset="0.207031"/><stop style="stop-color:#ff3200;stop-opacity:1;" offset="0.210938"/><stop style="stop-color:#ff3100;stop-opacity:1;" offset="0.214844"/><stop style="stop-color:#ff3000;stop-opacity:1;" offset="0.21875"/><stop style="stop-color:#ff2e00;stop-opacity:1;" offset="0.222656"/><stop style="stop-color:#ff2d00;stop-opacity:1;" offset="0.226562"/><stop style="stop-color:#ff2c00;stop-opacity:1;" offset="0.230469"/><stop style="stop-color:#ff2b00;stop-opacity:1;" offset="0.234375"/><stop style="stop-color:#ff2a00;stop-opacity:1;" offset="0.238281"/><stop style="stop-color:#ff2900;stop-opacity:1;" offset="0.242188"/><stop style="stop-color:#ff2800;stop-opacity:1;" offset="0.246094"/><stop style="stop-color:#ff2700;stop-opacity:1;" offset="0.25"/><stop style="stop-color:#ff2600;stop-opacity:1;" offset="0.253906"/><stop style="stop-color:#ff2500;stop-opacity:1;" offset="0.257812"/><stop style="stop-color:#ff2400;stop-opacity:1;" offset="0.261719"/><stop style="stop-color:#ff2300;stop-opacity:1;" offset="0.265625"/><stop style="stop-color:#ff2200;stop-opacity:1;" offset="0.269531"/><stop style="stop-color:#ff2100;stop-opacity:1;" offset="0.273438"/><stop style="stop-color:#ff2000;stop-opacity:1;" offset="0.277344"/><stop style="stop-color:#ff1f00;stop-opacity:1;" offset="0.28125"/><stop style="stop-color:#ff1e00;stop-opacity:1;" offset="0.285156"/><stop style="stop-color:#ff1d00;stop-opacity:1;" offset="0.289062"/><stop style="stop-color:#ff1c00;stop-opacity:1;" offset="0.292969"/><stop style="stop-color:#ff1b00;stop-opacity:1;" offset="0.296875"/><stop style="stop-color:#ff1a00;stop-opacity:1;" offset="0.300781"/><stop style="stop-color:#ff1900;stop-opacity:1;" offset="0.304687"/><stop style="stop-color:#ff1800;stop-opacity:1;" offset="0.308594"/><stop style="stop-color:#ff1600;stop-opacity:1;" offset="0.3125"/><stop style="stop-color:#ff1500;stop-opacity:1;" offset="0.316406"/><stop style="stop-color:#ff1400;stop-opacity:1;" offset="0.320313"/><stop style="stop-color:#ff1300;stop-opacity:1;" offset="0.324219"/><stop style="stop-color:#ff1200;stop-opacity:1;" offset="0.328125"/><stop style="stop-color:#ff1100;stop-opacity:1;" offset="0.332031"/><stop style="stop-color:#ff1000;stop-opacity:1;" offset="0.335938"/><stop style="stop-color:#ff0f00;stop-opacity:1;" offset="0.339844"/><stop style="stop-color:#ff0e00;stop-opacity:1;" offset="0.34375"/><stop style="stop-color:#ff0d00;stop-opacity:1;" offset="0.347656"/><stop style="stop-color:#ff0c00;stop-opacity:1;" offset="0.351562"/><stop style="stop-color:#ff0b00;stop-opacity:1;" offset="0.355469"/><stop style="stop-color:#ff0a00;stop-opacity:1;" offset="0.359375"/><stop style="stop-color:#ff0900;stop-opacity:1;" offset="0.363281"/><stop style="stop-color:#ff0800;stop-opacity:1;" offset="0.367188"/><stop style="stop-color:#ff0700;stop-opacity:1;" offset="0.371094"/><stop style="stop-color:#ff0600;stop-opacity:1;" offset="0.375"/><stop style="stop-color:#ff0500;stop-opacity:1;" offset="0.378906"/><stop style="stop-color:#ff0400;stop-opacity:1;" offset="0.382812"/><stop style="stop-color:#ff0300;stop-opacity:1;" offset="0.386719"/><stop style="stop-color:#ff0200;stop-opacity:1;" offset="0.390625"/><stop style="stop-color:#ff0101;stop-opacity:1;" offset="0.394531"/><stop style="stop-color:#ff0002;stop-opacity:1;" offset="0.398438"/><stop style="stop-color:#ff0006;stop-opacity:1;" offset="0.402344"/><stop style="stop-color:#ff000a;stop-opacity:1;" offset="0.40625"/><stop style="stop-color:#ff000e;stop-opacity:1;" offset="0.410156"/><stop style="stop-color:#ff0012;stop-opacity:1;" offset="0.414062"/><stop style="stop-color:#ff0016;stop-opacity:1;" offset="0.417969"/><stop style="stop-color:#ff001a;stop-opacity:1;" offset="0.421875"/><stop style="stop-color:#ff001e;stop-opacity:1;" offset="0.425781"/><stop style="stop-color:#ff0023;stop-opacity:1;" offset="0.429688"/><stop style="stop-color:#ff0027;stop-opacity:1;" offset="0.433594"/><stop style="stop-color:#ff002b;stop-opacity:1;" offset="0.4375"/><stop style="stop-color:#ff002f;stop-opacity:1;" offset="0.441406"/><stop style="stop-color:#ff0033;stop-opacity:1;" offset="0.445312"/><stop style="stop-color:#ff0037;stop-opacity:1;" offset="0.449219"/><stop style="stop-color:#ff003b;stop-opacity:1;" offset="0.453125"/><stop style="stop-color:#ff003f;stop-opacity:1;" offset="0.457031"/><stop style="stop-color:#ff0043;stop-opacity:1;" offset="0.460937"/><stop style="stop-color:#ff0047;stop-opacity:1;" offset="0.464844"/><stop style="stop-color:#ff004c;stop-opacity:1;" offset="0.46875"/><stop style="stop-color:#ff0050;stop-opacity:1;" offset="0.472656"/><stop style="stop-color:#ff0053;stop-opacity:1;" offset="0.476563"/><stop style="stop-color:#ff0058;stop-opacity:1;" offset="0.480469"/><stop style="stop-color:#ff005c;stop-opacity:1;" offset="0.484375"/><stop style="stop-color:#ff0060;stop-opacity:1;" offset="0.488281"/><stop style="stop-color:#ff0064;stop-opacity:1;" offset="0.492188"/><stop style="stop-color:#ff0068;stop-opacity:1;" offset="0.496094"/><stop style="stop-color:#ff006c;stop-opacity:1;" offset="0.5"/><stop style="stop-color:#ff0070;stop-opacity:1;" offset="0.503906"/><stop style="stop-color:#ff0075;stop-opacity:1;" offset="0.507812"/><stop style="stop-color:#ff0079;stop-opacity:1;" offset="0.511719"/><stop style="stop-color:#ff007d;stop-opacity:1;" offset="0.515625"/><stop style="stop-color:#ff0081;stop-opacity:1;" offset="0.519531"/><stop style="stop-color:#ff0086;stop-opacity:1;" offset="0.523438"/><stop style="stop-color:#ff0089;stop-opacity:1;" offset="0.527344"/><stop style="stop-color:#ff008d;stop-opacity:1;" offset="0.53125"/><stop style="stop-color:#ff0091;stop-opacity:1;" offset="0.535156"/><stop style="stop-color:#ff0095;stop-opacity:1;" offset="0.539062"/><stop style="stop-color:#ff0099;stop-opacity:1;" offset="0.542969"/><stop style="stop-color:#ff009e;stop-opacity:1;" offset="0.546875"/><stop style="stop-color:#ff00a2;stop-opacity:1;" offset="0.550781"/><stop style="stop-color:#ff00a6;stop-opacity:1;" offset="0.554688"/><stop style="stop-color:#ff00aa;stop-opacity:1;" offset="0.558594"/><stop style="stop-color:#ff00ad;stop-opacity:1;" offset="0.5625"/><stop style="stop-color:#ff00b2;stop-opacity:1;" offset="0.566406"/><stop style="stop-color:#ff00b6;stop-opacity:1;" offset="0.570313"/><stop style="stop-color:#ff00ba;stop-opacity:1;" offset="0.574219"/><stop style="stop-color:#ff00be;stop-opacity:1;" offset="0.578125"/><stop style="stop-color:#ff00c2;stop-opacity:1;" offset="0.582031"/><stop style="stop-color:#ff00c7;stop-opacity:1;" offset="0.585937"/><stop style="stop-color:#ff00cb;stop-opacity:1;" offset="0.589844"/><stop style="stop-color:#ff00cf;stop-opacity:1;" offset="0.59375"/><stop style="stop-color:#ff00d3;stop-opacity:1;" offset="0.597656"/><stop style="stop-color:#ff00d7;stop-opacity:1;" offset="0.601562"/><stop style="stop-color:#ff00db;stop-opacity:1;" offset="0.605469"/><stop style="stop-color:#ff00df;stop-opacity:1;" offset="0.609375"/><stop style="stop-color:#ff00e3;stop-opacity:1;" offset="0.613281"/><stop style="stop-color:#ff00e7;stop-opacity:1;" offset="0.617188"/><stop style="stop-color:#ff00ec;stop-opacity:1;" offset="0.621094"/><stop style="stop-color:#ff00f0;stop-opacity:1;" offset="0.625"/><stop style="stop-color:#ff00f4;stop-opacity:1;" offset="0.628906"/><stop style="stop-color:#ff00f8;stop-opacity:1;" offset="0.632812"/><stop style="stop-color:#ff00fb;stop-opacity:1;" offset="0.636719"/><stop style="stop-color:#fe00ff;stop-opacity:1;" offset="0.640625"/><stop style="stop-color:#fb02ff;stop-opacity:1;" offset="0.644531"/><stop style="stop-color:#f904ff;stop-opacity:1;" offset="0.648438"/><stop style="stop-color:#f606ff;stop-opacity:1;" offset="0.652344"/><stop style="stop-color:#f308ff;stop-opacity:1;" offset="0.65625"/><stop style="stop-color:#f00aff;stop-opacity:1;" offset="0.660156"/><stop style="stop-color:#ee0bff;stop-opacity:1;" offset="0.664063"/><stop style="stop-color:#eb0dff;stop-opacity:1;" offset="0.667969"/><stop style="stop-color:#e80fff;stop-opacity:1;" offset="0.671875"/><stop style="stop-color:#e611ff;stop-opacity:1;" offset="0.675781"/><stop style="stop-color:#e313ff;stop-opacity:1;" offset="0.679688"/><stop style="stop-color:#e014ff;stop-opacity:1;" offset="0.683594"/><stop style="stop-color:#dd16ff;stop-opacity:1;" offset="0.6875"/><stop style="stop-color:#db18ff;stop-opacity:1;" offset="0.691406"/><stop style="stop-color:#d81aff;stop-opacity:1;" offset="0.695312"/><stop style="stop-color:#d51cff;stop-opacity:1;" offset="0.699219"/><stop style="stop-color:#d21eff;stop-opacity:1;" offset="0.703125"/><stop style="stop-color:#d020ff;stop-opacity:1;" offset="0.707031"/><stop style="stop-color:#cd21ff;stop-opacity:1;" offset="0.710937"/><stop style="stop-color:#ca23ff;stop-opacity:1;" offset="0.714844"/><stop style="stop-color:#c725ff;stop-opacity:1;" offset="0.71875"/><stop style="stop-color:#c527ff;stop-opacity:1;" offset="0.722656"/><stop style="stop-color:#c229ff;stop-opacity:1;" offset="0.726562"/><stop style="stop-color:#bf2bff;stop-opacity:1;" offset="0.730469"/><stop style="stop-color:#bc2cff;stop-opacity:1;" offset="0.734375"/><stop style="stop-color:#b92eff;stop-opacity:1;" offset="0.738281"/><stop style="stop-color:#b630ff;stop-opacity:1;" offset="0.742188"/><stop style="stop-color:#b332ff;stop-opacity:1;" offset="0.746094"/><stop style="stop-color:#b134ff;stop-opacity:1;" offset="0.75"/><stop style="stop-color:#ae36ff;stop-opacity:1;" offset="0.753906"/><stop style="stop-color:#ab37ff;stop-opacity:1;" offset="0.757812"/><stop style="stop-color:#a939ff;stop-opacity:1;" offset="0.761719"/><stop style="stop-color:#a63bff;stop-opacity:1;" offset="0.765625"/><stop style="stop-color:#a33dff;stop-opacity:1;" offset="0.769531"/><stop style="stop-color:#a03fff;stop-opacity:1;" offset="0.773438"/><stop style="stop-color:#9d41ff;stop-opacity:1;" offset="0.777344"/><stop style="stop-color:#9b42ff;stop-opacity:1;" offset="0.78125"/><stop style="stop-color:#9844ff;stop-opacity:1;" offset="0.785156"/><stop style="stop-color:#9546ff;stop-opacity:1;" offset="0.789063"/><stop style="stop-color:#9348ff;stop-opacity:1;" offset="0.792969"/><stop style="stop-color:#904aff;stop-opacity:1;" offset="0.796875"/><stop style="stop-color:#8d4bff;stop-opacity:1;" offset="0.800781"/><stop style="stop-color:#8a4dff;stop-opacity:1;" offset="0.804687"/><stop style="stop-color:#884fff;stop-opacity:1;" offset="0.808594"/><stop style="stop-color:#8551ff;stop-opacity:1;" offset="0.8125"/><stop style="stop-color:#8253ff;stop-opacity:1;" offset="0.816406"/><stop style="stop-color:#7f55ff;stop-opacity:1;" offset="0.820312"/><stop style="stop-color:#7c57ff;stop-opacity:1;" offset="0.824219"/><stop style="stop-color:#7a58ff;stop-opacity:1;" offset="0.828125"/><stop style="stop-color:#775aff;stop-opacity:1;" offset="0.832031"/><stop style="stop-color:#745cff;stop-opacity:1;" offset="0.835938"/><stop style="stop-color:#725eff;stop-opacity:1;" offset="0.839844"/><stop style="stop-color:#6f60ff;stop-opacity:1;" offset="0.84375"/><stop style="stop-color:#6c61ff;stop-opacity:1;" offset="0.847656"/><stop style="stop-color:#6963ff;stop-opacity:1;" offset="0.851562"/><stop style="stop-color:#6765ff;stop-opacity:1;" offset="0.855469"/><stop style="stop-color:#6467ff;stop-opacity:1;" offset="0.859375"/><stop style="stop-color:#6169ff;stop-opacity:1;" offset="0.863281"/><stop style="stop-color:#5e6bff;stop-opacity:1;" offset="0.867188"/><stop style="stop-color:#5b6dff;stop-opacity:1;" offset="0.871094"/><stop style="stop-color:#586eff;stop-opacity:1;" offset="0.875"/><stop style="stop-color:#5570ff;stop-opacity:1;" offset="0.878906"/><stop style="stop-color:#5372ff;stop-opacity:1;" offset="0.882813"/><stop style="stop-color:#5074ff;stop-opacity:1;" offset="0.886719"/><stop style="stop-color:#4d76ff;stop-opacity:1;" offset="0.890625"/><stop style="stop-color:#4a78ff;stop-opacity:1;" offset="0.894531"/><stop style="stop-color:#4879ff;stop-opacity:1;" offset="0.898437"/><stop style="stop-color:#457bff;stop-opacity:1;" offset="0.902344"/><stop style="stop-color:#427dff;stop-opacity:1;" offset="0.90625"/><stop style="stop-color:#3f7fff;stop-opacity:1;" offset="0.910156"/><stop style="stop-color:#3d81ff;stop-opacity:1;" offset="0.914062"/><stop style="stop-color:#3a83ff;stop-opacity:1;" offset="0.917969"/><stop style="stop-color:#3784ff;stop-opacity:1;" offset="0.921875"/><stop style="stop-color:#3586ff;stop-opacity:1;" offset="0.925781"/><stop style="stop-color:#3288ff;stop-opacity:1;" offset="0.929688"/><stop style="stop-color:#2f8aff;stop-opacity:1;" offset="0.933594"/><stop style="stop-color:#2c8cff;stop-opacity:1;" offset="0.9375"/><stop style="stop-color:#2a8dff;stop-opacity:1;" offset="0.941406"/><stop style="stop-color:#278fff;stop-opacity:1;" offset="0.945312"/><stop style="stop-color:#2491ff;stop-opacity:1;" offset="0.949219"/><stop style="stop-color:#2193ff;stop-opacity:1;" offset="0.953125"/><stop style="stop-color:#1e95ff;stop-opacity:1;" offset="0.957031"/><stop style="stop-color:#1c97ff;stop-opacity:1;" offset="0.960938"/><stop style="stop-color:#1998ff;stop-opacity:1;" offset="0.964844"/><stop style="stop-color:#169aff;stop-opacity:1;" offset="0.96875"/><stop style="stop-color:#149cff;stop-opacity:1;" offset="0.972656"/><stop style="stop-color:#119eff;stop-opacity:1;" offset="0.976563"/><stop style="stop-color:#0ea0ff;stop-opacity:1;" offset="0.980469"/><stop style="stop-color:#0ba2ff;stop-opacity:1;" offset="0.984375"/><stop style="stop-color:#08a4ff;stop-opacity:1;" offset="0.988281"/><stop style="stop-color:#06a5ff;stop-opacity:1;" offset="0.992188"/><stop style="stop-color:#03a7ff;stop-opacity:1;" offset="0.996094"/><stop style="stop-color:#00a9ff;stop-opacity:1;" offset="1"/></linearGradient></defs><g id="388a663d6d"><g clip-rule="nonzero" clip-path="url(#a85a71df82)"><path style=" stroke:none;fill-rule:nonzero;fill:#1a1c1e;fill-opacity:1;" d="M 7.320312 60.105469 C 7.394531 59.617188 7.464844 59.144531 7.53125 58.679688 C 7.542969 58.582031 7.558594 58.488281 7.570312 58.390625 C 7.585938 58.289062 7.597656 58.195312 7.609375 58.097656 C 7.683594 57.542969 7.75 57.007812 7.808594 56.496094 C 7.820312 56.398438 7.828125 56.296875 7.839844 56.199219 C 7.851562 56.101562 7.859375 56.003906 7.871094 55.90625 C 7.929688 55.347656 7.972656 54.8125 8.007812 54.308594 C 8.015625 54.207031 8.023438 54.109375 8.03125 54.011719 C 8.035156 53.914062 8.042969 53.816406 8.046875 53.714844 C 8.078125 53.144531 8.097656 52.613281 8.097656 52.121094 C 8.101562 52.019531 8.101562 51.921875 8.097656 51.824219 C 8.097656 51.722656 8.097656 51.625 8.097656 51.527344 C 8.082031 50.925781 8.046875 50.394531 7.984375 49.929688 C 7.96875 49.828125 7.953125 49.730469 7.9375 49.636719 C 7.917969 49.53125 7.902344 49.433594 7.878906 49.339844 C 7.78125 48.890625 7.648438 48.53125 7.484375 48.277344 C 7.367188 48.09375 7.25 47.914062 7.125 47.734375 C 7.0625 47.640625 6.996094 47.542969 6.925781 47.445312 C 6.863281 47.351562 6.792969 47.253906 6.726562 47.160156 C 6.328125 46.609375 5.917969 46.066406 5.503906 45.535156 C 5.429688 45.441406 5.355469 45.351562 5.285156 45.257812 C 5.210938 45.167969 5.140625 45.074219 5.066406 44.984375 C 4.984375 44.878906 4.902344 44.777344 4.820312 44.671875 C 4.46875 44.226562 4.117188 43.78125 3.773438 43.335938 C 3.707031 43.246094 3.636719 43.160156 3.570312 43.070312 C 3.503906 42.984375 3.441406 42.898438 3.375 42.808594 C 2.960938 42.257812 2.566406 41.699219 2.199219 41.128906 C 2.144531 41.046875 2.09375 40.964844 2.042969 40.882812 C 1.992188 40.800781 1.941406 40.71875 1.894531 40.636719 C 1.558594 40.082031 1.257812 39.515625 0.996094 38.925781 C 0.960938 38.847656 0.925781 38.769531 0.894531 38.691406 C 0.863281 38.617188 0.832031 38.539062 0.800781 38.464844 C 0.582031 37.90625 0.398438 37.328125 0.261719 36.726562 C 0.246094 36.652344 0.230469 36.578125 0.214844 36.503906 C 0.203125 36.429688 0.1875 36.359375 0.171875 36.285156 C 0.0742188 35.722656 0.0117188 35.140625 0.00390625 34.535156 C 0 34.460938 0 34.390625 0 34.316406 C 0 34.246094 0 34.171875 0.00390625 34.097656 C 0.015625 33.539062 0.0664062 32.953125 0.160156 32.347656 C 0.175781 32.273438 0.1875 32.203125 0.199219 32.128906 C 0.210938 32.054688 0.226562 31.980469 0.242188 31.90625 C 0.347656 31.347656 0.496094 30.769531 0.683594 30.167969 C 0.707031 30.089844 0.730469 30.015625 0.753906 29.9375 C 0.777344 29.863281 0.804688 29.785156 0.832031 29.710938 C 0.957031 29.339844 1.097656 28.957031 1.257812 28.570312 C 1.339844 28.371094 1.425781 28.175781 1.519531 27.988281 C 1.554688 27.90625 1.597656 27.828125 1.636719 27.75 C 1.679688 27.667969 1.722656 27.589844 1.769531 27.507812 C 2.121094 26.882812 2.53125 26.320312 2.984375 25.820312 C 3.058594 25.730469 3.140625 25.644531 3.21875 25.5625 C 3.304688 25.472656 3.390625 25.386719 3.480469 25.300781 C 4.152344 24.648438 4.886719 24.101562 5.628906 23.652344 C 5.792969 23.554688 5.953125 23.464844 6.113281 23.375 C 6.296875 23.273438 6.480469 23.175781 6.660156 23.085938 C 7.214844 22.8125 7.757812 22.585938 8.269531 22.398438 C 9.351562 22 10.519531 21.695312 11.734375 21.492188 C 12.742188 21.320312 13.785156 21.21875 14.832031 21.183594 C 15.3125 21.167969 15.792969 21.167969 16.269531 21.183594 C 16.917969 21.207031 17.566406 21.253906 18.199219 21.332031 C 18.542969 21.371094 18.878906 21.421875 19.210938 21.480469 C 20.921875 21.789062 22.515625 22.332031 23.960938 23.109375 C 24.078125 23.171875 24.191406 23.234375 24.308594 23.300781 C 24.351562 23.324219 24.394531 23.347656 24.433594 23.375 C 24.578125 23.457031 24.71875 23.542969 24.859375 23.628906 C 25.671875 24.140625 26.394531 24.707031 27.039062 25.332031 C 27.117188 25.410156 27.191406 25.484375 27.265625 25.5625 C 27.339844 25.636719 27.410156 25.710938 27.476562 25.785156 C 27.980469 26.328125 28.425781 26.917969 28.816406 27.546875 C 28.855469 27.613281 28.898438 27.679688 28.9375 27.75 C 28.976562 27.816406 29.015625 27.882812 29.050781 27.949219 C 29.371094 28.515625 29.648438 29.117188 29.878906 29.75 C 29.90625 29.8125 29.925781 29.875 29.949219 29.9375 C 29.96875 30 29.992188 30.0625 30.011719 30.125 C 30.207031 30.703125 30.367188 31.3125 30.492188 31.949219 C 30.503906 32.007812 30.515625 32.066406 30.527344 32.128906 C 30.539062 32.1875 30.550781 32.246094 30.558594 32.304688 C 30.664062 32.894531 30.738281 33.507812 30.785156 34.144531 C 30.785156 34.164062 30.785156 34.1875 30.789062 34.210938 C 30.792969 34.246094 30.792969 34.28125 30.796875 34.316406 C 30.800781 34.375 30.804688 34.429688 30.808594 34.488281 C 30.824219 34.785156 30.832031 35.066406 30.839844 35.339844 C 30.851562 35.683594 30.863281 36.011719 30.890625 36.332031 C 30.894531 36.390625 30.898438 36.449219 30.902344 36.503906 C 30.910156 36.5625 30.914062 36.617188 30.921875 36.675781 C 30.996094 37.289062 31.140625 37.890625 31.472656 38.53125 C 31.496094 38.585938 31.527344 38.636719 31.554688 38.691406 C 31.585938 38.746094 31.617188 38.796875 31.648438 38.851562 C 31.703125 38.941406 31.761719 39.035156 31.828125 39.132812 C 31.972656 39.347656 32.210938 39.628906 32.488281 39.957031 C 32.710938 40.222656 32.929688 40.492188 33.136719 40.753906 C 33.171875 40.796875 33.203125 40.839844 33.238281 40.882812 C 33.269531 40.921875 33.296875 40.960938 33.328125 41.003906 C 33.828125 41.667969 34.207031 42.304688 34.257812 42.828125 L 34.257812 43.0625 C 34.257812 43.0625 34.257812 43.066406 34.257812 43.070312 C 34.253906 43.105469 34.246094 43.140625 34.242188 43.171875 C 34.234375 43.195312 34.226562 43.222656 34.21875 43.25 C 33.867188 44.289062 33.390625 44.425781 33.007812 44.539062 C 32.671875 44.632812 32.441406 44.730469 32.328125 45.117188 C 32.316406 45.160156 32.304688 45.207031 32.292969 45.257812 C 32.285156 45.304688 32.277344 45.351562 32.273438 45.402344 C 32.265625 45.441406 32.265625 45.480469 32.261719 45.519531 C 32.203125 46.3125 32.363281 46.734375 32.476562 47.042969 C 32.515625 47.148438 32.546875 47.234375 32.5625 47.308594 C 32.574219 47.355469 32.574219 47.402344 32.570312 47.445312 C 32.566406 47.492188 32.550781 47.539062 32.527344 47.585938 C 32.503906 47.632812 32.464844 47.6875 32.414062 47.742188 C 31.976562 48.246094 31.507812 48.355469 31.457031 48.363281 C 31.429688 48.371094 31.414062 48.390625 31.410156 48.414062 C 31.410156 48.4375 31.421875 48.457031 31.445312 48.464844 C 31.453125 48.46875 32.164062 48.726562 32.292969 49.226562 C 32.3125 49.3125 32.316406 49.402344 32.300781 49.492188 C 32.292969 49.539062 32.277344 49.585938 32.261719 49.636719 C 32.242188 49.683594 32.21875 49.734375 32.191406 49.78125 C 32.140625 49.875 32.070312 49.96875 31.984375 50.0625 C 31.441406 50.660156 31.105469 51.136719 30.992188 51.65625 C 30.980469 51.710938 30.96875 51.769531 30.960938 51.824219 C 30.953125 51.878906 30.949219 51.9375 30.949219 51.992188 C 30.929688 52.414062 31.046875 52.882812 31.300781 53.476562 C 31.355469 53.601562 31.402344 53.726562 31.4375 53.851562 C 31.453125 53.90625 31.46875 53.960938 31.480469 54.011719 C 31.492188 54.066406 31.503906 54.117188 31.511719 54.171875 C 31.59375 54.648438 31.535156 55.097656 31.339844 55.476562 C 31.226562 55.691406 31.070312 55.878906 30.871094 56.03125 C 30.792969 56.09375 30.707031 56.148438 30.613281 56.199219 C 30.484375 56.273438 30.34375 56.335938 30.191406 56.382812 C 30.191406 56.382812 30.191406 56.382812 30.1875 56.382812 C 30.089844 56.414062 29.988281 56.441406 29.882812 56.464844 C 29.652344 56.515625 29.390625 56.539062 29.105469 56.539062 C 27.558594 56.539062 25.621094 56.59375 24.316406 57.03125 C 23.664062 57.253906 23.234375 57.539062 23 57.90625 C 22.972656 57.949219 22.941406 58.011719 22.898438 58.117188 C 22.871094 58.1875 22.84375 58.277344 22.808594 58.390625 C 22.785156 58.46875 22.761719 58.558594 22.734375 58.664062 C 22.648438 58.996094 22.550781 59.457031 22.4375 60.105469 L 7.320312 60.105469 "/></g><g clip-rule="nonzero" clip-path="url(#ad49c6f436)"><path style=" stroke:none;fill-rule:nonzero;fill:#1a1c1e;fill-opacity:1;" d="M 67.679688 60.105469 C 67.605469 59.617188 67.535156 59.144531 67.46875 58.679688 C 67.457031 58.582031 67.441406 58.488281 67.429688 58.390625 C 67.414062 58.289062 67.402344 58.195312 67.390625 58.097656 C 67.316406 57.542969 67.25 57.007812 67.191406 56.496094 C 67.179688 56.398438 67.171875 56.296875 67.160156 56.199219 C 67.148438 56.101562 67.140625 56.003906 67.128906 55.90625 C 67.070312 55.347656 67.027344 54.8125 66.992188 54.308594 C 66.984375 54.207031 66.976562 54.109375 66.96875 54.011719 C 66.964844 53.914062 66.957031 53.816406 66.953125 53.714844 C 66.921875 53.144531 66.902344 52.613281 66.902344 52.121094 C 66.898438 52.019531 66.898438 51.921875 66.902344 51.824219 C 66.902344 51.722656 66.902344 51.625 66.902344 51.527344 C 66.917969 50.925781 66.953125 50.394531 67.015625 49.929688 C 67.03125 49.828125 67.046875 49.730469 67.0625 49.636719 C 67.082031 49.53125 67.097656 49.433594 67.121094 49.339844 C 67.21875 48.890625 67.351562 48.53125 67.515625 48.277344 C 67.632812 48.09375 67.75 47.914062 67.875 47.734375 C 67.9375 47.640625 68.003906 47.542969 68.074219 47.445312 C 68.136719 47.351562 68.207031 47.253906 68.273438 47.160156 C 68.671875 46.609375 69.082031 46.066406 69.496094 45.535156 C 69.570312 45.441406 69.644531 45.351562 69.714844 45.257812 C 69.789062 45.167969 69.859375 45.074219 69.933594 44.984375 C 70.015625 44.878906 70.097656 44.777344 70.179688 44.671875 C 70.53125 44.226562 70.882812 43.78125 71.226562 43.335938 C 71.292969 43.246094 71.363281 43.160156 71.429688 43.070312 C 71.496094 42.984375 71.558594 42.898438 71.625 42.808594 C 72.039062 42.257812 72.433594 41.699219 72.800781 41.128906 C 72.855469 41.046875 72.90625 40.964844 72.957031 40.882812 C 73.007812 40.800781 73.058594 40.71875 73.105469 40.636719 C 73.441406 40.082031 73.742188 39.515625 74.003906 38.925781 C 74.039062 38.847656 74.074219 38.769531 74.105469 38.691406 C 74.136719 38.617188 74.167969 38.539062 74.199219 38.464844 C 74.417969 37.90625 74.601562 37.328125 74.738281 36.726562 C 74.753906 36.652344 74.769531 36.578125 74.785156 36.503906 C 74.796875 36.429688 74.8125 36.359375 74.828125 36.285156 C 74.925781 35.722656 74.988281 35.140625 74.996094 34.535156 C 75 34.460938 75 34.390625 75 34.316406 C 75 34.246094 75 34.171875 74.996094 34.097656 C 74.984375 33.539062 74.933594 32.953125 74.839844 32.347656 C 74.824219 32.273438 74.8125 32.203125 74.800781 32.128906 C 74.789062 32.054688 74.773438 31.980469 74.757812 31.90625 C 74.652344 31.347656 74.503906 30.769531 74.316406 30.167969 C 74.292969 30.089844 74.269531 30.015625 74.246094 29.9375 C 74.222656 29.863281 74.195312 29.785156 74.167969 29.710938 C 74.042969 29.339844 73.902344 28.957031 73.742188 28.570312 C 73.660156 28.371094 73.574219 28.175781 73.480469 27.988281 C 73.445312 27.90625 73.402344 27.828125 73.363281 27.75 C 73.320312 27.667969 73.277344 27.589844 73.230469 27.507812 C 72.878906 26.882812 72.46875 26.320312 72.015625 25.820312 C 71.941406 25.730469 71.859375 25.644531 71.78125 25.5625 C 71.695312 25.472656 71.609375 25.386719 71.519531 25.300781 C 70.847656 24.648438 70.113281 24.101562 69.371094 23.652344 C 69.207031 23.554688 69.046875 23.464844 68.886719 23.375 C 68.703125 23.273438 68.519531 23.175781 68.339844 23.085938 C 67.785156 22.8125 67.242188 22.585938 66.730469 22.398438 C 65.648438 22 64.480469 21.695312 63.265625 21.492188 C 62.257812 21.320312 61.214844 21.21875 60.167969 21.183594 C 59.6875 21.167969 59.207031 21.167969 58.730469 21.183594 C 58.082031 21.207031 57.433594 21.253906 56.800781 21.332031 C 56.457031 21.371094 56.121094 21.421875 55.789062 21.480469 C 54.078125 21.789062 52.484375 22.332031 51.039062 23.109375 C 50.921875 23.171875 50.808594 23.234375 50.691406 23.300781 C 50.648438 23.324219 50.605469 23.347656 50.566406 23.375 C 50.421875 23.457031 50.28125 23.542969 50.140625 23.628906 C 49.328125 24.140625 48.605469 24.707031 47.960938 25.332031 C 47.882812 25.410156 47.808594 25.484375 47.734375 25.5625 C 47.660156 25.636719 47.589844 25.710938 47.523438 25.785156 C 47.019531 26.328125 46.574219 26.917969 46.183594 27.546875 C 46.144531 27.613281 46.101562 27.679688 46.0625 27.75 C 46.023438 27.816406 45.984375 27.882812 45.949219 27.949219 C 45.628906 28.515625 45.351562 29.117188 45.121094 29.75 C 45.09375 29.8125 45.074219 29.875 45.050781 29.9375 C 45.03125 30 45.007812 30.0625 44.988281 30.125 C 44.792969 30.703125 44.632812 31.3125 44.507812 31.949219 C 44.496094 32.007812 44.484375 32.066406 44.472656 32.128906 C 44.460938 32.1875 44.449219 32.246094 44.441406 32.304688 C 44.335938 32.894531 44.261719 33.507812 44.214844 34.144531 C 44.214844 34.164062 44.214844 34.1875 44.210938 34.210938 C 44.207031 34.246094 44.207031 34.28125 44.203125 34.316406 C 44.199219 34.375 44.195312 34.429688 44.191406 34.488281 C 44.175781 34.785156 44.167969 35.066406 44.160156 35.339844 C 44.148438 35.683594 44.136719 36.011719 44.109375 36.332031 C 44.105469 36.390625 44.101562 36.449219 44.097656 36.503906 C 44.089844 36.5625 44.085938 36.617188 44.078125 36.675781 C 44.003906 37.289062 43.859375 37.890625 43.527344 38.53125 C 43.503906 38.585938 43.472656 38.636719 43.445312 38.691406 C 43.414062 38.746094 43.382812 38.796875 43.351562 38.851562 C 43.296875 38.941406 43.238281 39.035156 43.171875 39.132812 C 43.027344 39.347656 42.789062 39.628906 42.511719 39.957031 C 42.289062 40.222656 42.070312 40.492188 41.863281 40.753906 C 41.828125 40.796875 41.796875 40.839844 41.761719 40.882812 C 41.730469 40.921875 41.703125 40.960938 41.671875 41.003906 C 41.171875 41.667969 40.792969 42.304688 40.742188 42.828125 L 40.742188 43.0625 C 40.742188 43.0625 40.742188 43.066406 40.742188 43.070312 C 40.746094 43.105469 40.753906 43.140625 40.757812 43.171875 C 40.765625 43.195312 40.773438 43.222656 40.78125 43.25 C 41.132812 44.289062 41.609375 44.425781 41.992188 44.539062 C 42.328125 44.632812 42.558594 44.730469 42.671875 45.117188 C 42.683594 45.160156 42.695312 45.207031 42.707031 45.257812 C 42.714844 45.304688 42.722656 45.351562 42.726562 45.402344 C 42.734375 45.441406 42.734375 45.480469 42.738281 45.519531 C 42.796875 46.3125 42.636719 46.734375 42.523438 47.042969 C 42.484375 47.148438 42.453125 47.234375 42.4375 47.308594 C 42.425781 47.355469 42.425781 47.402344 42.429688 47.445312 C 42.433594 47.492188 42.449219 47.539062 42.472656 47.585938 C 42.496094 47.632812 42.535156 47.6875 42.585938 47.742188 C 43.023438 48.246094 43.492188 48.355469 43.542969 48.363281 C 43.570312 48.371094 43.585938 48.390625 43.589844 48.414062 C 43.589844 48.4375 43.578125 48.457031 43.554688 48.464844 C 43.546875 48.46875 42.835938 48.726562 42.707031 49.226562 C 42.6875 49.3125 42.683594 49.402344 42.699219 49.492188 C 42.707031 49.539062 42.722656 49.585938 42.738281 49.636719 C 42.757812 49.683594 42.78125 49.734375 42.808594 49.78125 C 42.859375 49.875 42.929688 49.96875 43.015625 50.0625 C 43.558594 50.660156 43.894531 51.136719 44.007812 51.65625 C 44.019531 51.710938 44.03125 51.769531 44.039062 51.824219 C 44.046875 51.878906 44.050781 51.9375 44.050781 51.992188 C 44.070312 52.414062 43.953125 52.882812 43.699219 53.476562 C 43.644531 53.601562 43.597656 53.726562 43.5625 53.851562 C 43.546875 53.90625 43.53125 53.960938 43.519531 54.011719 C 43.507812 54.066406 43.496094 54.117188 43.488281 54.171875 C 43.40625 54.648438 43.464844 55.097656 43.660156 55.476562 C 43.773438 55.691406 43.929688 55.878906 44.128906 56.03125 C 44.207031 56.09375 44.292969 56.148438 44.386719 56.199219 C 44.515625 56.273438 44.65625 56.335938 44.808594 56.382812 C 44.808594 56.382812 44.808594 56.382812 44.8125 56.382812 C 44.910156 56.414062 45.011719 56.441406 45.117188 56.464844 C 45.347656 56.515625 45.609375 56.539062 45.894531 56.539062 C 47.441406 56.539062 49.378906 56.59375 50.683594 57.03125 C 51.335938 57.253906 51.765625 57.539062 52 57.90625 C 52.027344 57.949219 52.058594 58.011719 52.101562 58.117188 C 52.128906 58.1875 52.15625 58.277344 52.191406 58.390625 C 52.214844 58.46875 52.238281 58.558594 52.265625 58.664062 C 52.351562 58.996094 52.449219 59.457031 52.5625 60.105469 L 67.679688 60.105469 "/></g><g clip-rule="nonzero" clip-path="url(#f3d54e26c3)"><g clip-rule="nonzero" clip-path="url(#fbb4cdf22d)"><g clip-rule="nonzero" clip-path="url(#2301f737e1)"><path style=" stroke:none;fill-rule:nonzero;fill:url(#linear0);" d="M 9.476562 26.464844 L 9.476562 42.621094 L 65.523438 42.621094 L 65.523438 26.464844 Z M 9.476562 26.464844 "/></g></g></g></g></svg>